<svg xmlns="http://www.w3.org/2000/svg" xmlns:xlink="http://www.w3.org/1999/xlink" class="httpgd" width="835.00" height="489.00" viewBox="0 0 835.00 489.00">
<defs>
  <style type='text/css'><![CDATA[
    .httpgd line, .httpgd polyline, .httpgd polygon, .httpgd path, .httpgd rect, .httpgd circle {
      fill: none;
      stroke: #000000;
      stroke-linecap: round;
      stroke-linejoin: round;
      stroke-miterlimit: 10.00;
    }
  ]]></style>
<clipPath id="c0"><rect x="0.00" y="0.00" width="835.00" height="489.00"/></clipPath>
<clipPath id="c1"><rect x="38.16" y="5.48" width="672.82" height="451.79"/></clipPath>
<clipPath id="c2"><rect x="0.00" y="0.00" width="835.00" height="489.00"/></clipPath>
</defs>
<rect width="100%" height="100%" style="stroke: none;fill: #FFFFFF;"/>
<g clip-path="url(#c0)">
<rect x="0.00" y="0.00" width="835.00" height="489.00" style="stroke-width: 1.07;stroke: #FFFFFF;fill: #FFFFFF;"/>
</g><g clip-path="url(#c1)">
<rect x="38.16" y="5.48" width="672.82" height="451.79" style="stroke-width: 1.07;stroke: none;fill: #FFFFFF;"/>
<polyline points="38.16,405.54 710.98,405.54" style="stroke-width: 0.53;stroke: #EBEBEB;stroke-linecap: butt;"/>
<polyline points="38.16,301.56 710.98,301.56" style="stroke-width: 0.53;stroke: #EBEBEB;stroke-linecap: butt;"/>
<polyline points="38.16,197.58 710.98,197.58" style="stroke-width: 0.53;stroke: #EBEBEB;stroke-linecap: butt;"/>
<polyline points="38.16,93.60 710.98,93.60" style="stroke-width: 0.53;stroke: #EBEBEB;stroke-linecap: butt;"/>
<polyline points="193.34,457.27 193.34,5.48" style="stroke-width: 0.53;stroke: #EBEBEB;stroke-linecap: butt;"/>
<polyline points="351.92,457.27 351.92,5.48" style="stroke-width: 0.53;stroke: #EBEBEB;stroke-linecap: butt;"/>
<polyline points="510.49,457.27 510.49,5.48" style="stroke-width: 0.53;stroke: #EBEBEB;stroke-linecap: butt;"/>
<polyline points="669.07,457.27 669.07,5.48" style="stroke-width: 0.53;stroke: #EBEBEB;stroke-linecap: butt;"/>
<polyline points="38.16,353.55 710.98,353.55" style="stroke-width: 1.07;stroke: #EBEBEB;stroke-linecap: butt;"/>
<polyline points="38.16,249.57 710.98,249.57" style="stroke-width: 1.07;stroke: #EBEBEB;stroke-linecap: butt;"/>
<polyline points="38.16,145.59 710.98,145.59" style="stroke-width: 1.07;stroke: #EBEBEB;stroke-linecap: butt;"/>
<polyline points="38.16,41.61 710.98,41.61" style="stroke-width: 1.07;stroke: #EBEBEB;stroke-linecap: butt;"/>
<polyline points="114.05,457.27 114.05,5.48" style="stroke-width: 1.07;stroke: #EBEBEB;stroke-linecap: butt;"/>
<polyline points="272.63,457.27 272.63,5.48" style="stroke-width: 1.07;stroke: #EBEBEB;stroke-linecap: butt;"/>
<polyline points="431.21,457.27 431.21,5.48" style="stroke-width: 1.07;stroke: #EBEBEB;stroke-linecap: butt;"/>
<polyline points="589.78,457.27 589.78,5.48" style="stroke-width: 1.07;stroke: #EBEBEB;stroke-linecap: butt;"/>
<polyline points="68.75,296.36 91.40,285.91 114.05,358.57 136.71,295.97 159.36,425.62 182.01,206.62 204.67,356.46 227.32,282.38 249.98,255.49 272.63,296.32 295.28,221.38 317.94,187.71 340.59,215.35 363.24,272.35 385.90,292.36 408.55,378.96 431.21,251.32 453.86,347.57 476.51,291.29 499.17,131.40 521.82,265.19 544.47,287.51 567.13,125.42 589.78,249.69 612.43,299.18 635.09,260.11 657.74,147.91 680.40,147.49" style="stroke-width: 1.07;stroke: #F8766D; stroke-dasharray: 5.69, 5.69;stroke-linecap: butt;"/>
<polyline points="68.75,294.15 91.40,283.47 114.05,355.64 136.71,297.31 159.36,420.09 182.01,210.49 204.67,350.48 227.32,287.07 249.98,254.78 272.63,299.23 295.28,210.49 317.94,181.02 340.59,206.39 363.24,261.58 385.90,285.03 408.55,370.20 431.21,263.44 453.86,330.89 476.51,278.10 499.17,129.25 521.82,275.06 544.47,291.78 567.13,201.38 589.78,289.86 612.43,295.59 635.09,263.32 657.74,267.74 680.40,270.97" style="stroke-width: 1.07;stroke: #00BFC4; stroke-dasharray: 5.69, 5.69;stroke-linecap: butt;"/>
<polyline points="68.75,296.36 91.40,285.96 114.05,358.75 136.71,296.36 159.36,426.33 182.01,207.98 204.67,358.75 227.32,285.96 249.98,254.77 272.63,296.36 295.28,223.57 317.94,187.18 340.59,218.38 363.24,275.56 385.90,291.16 408.55,379.54 431.21,254.77 453.86,348.35 476.51,291.16 499.17,129.99 521.82,265.17 544.47,291.16 567.13,124.79 589.78,249.57 612.43,301.56 635.09,259.97 657.74,150.79 680.40,150.79" style="stroke-width: 1.07;stroke: #F8766D;stroke-linecap: butt;"/>
<polyline points="68.75,296.36 91.40,285.96 114.05,358.75 136.71,296.36 159.36,421.13 182.01,213.18 204.67,353.55 227.32,285.96 249.98,254.77 272.63,301.56 295.28,213.18 317.94,181.98 340.59,207.98 363.24,265.17 385.90,285.96 408.55,369.14 431.21,265.17 453.86,332.75 476.51,280.76 499.17,129.99 521.82,275.56 544.47,296.36 567.13,207.98 589.78,296.36 612.43,301.56 635.09,270.36 657.74,275.56 680.40,280.76" style="stroke-width: 1.07;stroke: #00BFC4;stroke-linecap: butt;"/>
<polygon points="68.75,296.36 91.40,285.96 114.05,358.75 136.71,291.16 159.36,421.13 182.01,202.78 204.67,348.35 227.32,275.56 249.98,244.37 272.63,285.96 295.28,207.98 317.94,176.78 340.59,202.78 363.24,254.77 385.90,270.36 408.55,358.75 431.21,228.77 453.86,322.35 476.51,265.17 499.17,98.80 521.82,228.77 544.47,244.37 567.13,83.20 589.78,202.78 612.43,244.37 635.09,192.38 657.74,62.41 680.40,26.02 680.40,254.77 657.74,223.57 635.09,322.35 612.43,348.35 589.78,291.16 567.13,166.39 544.47,327.55 521.82,296.36 499.17,161.19 476.51,317.16 453.86,369.14 431.21,270.36 408.55,395.14 385.90,311.96 363.24,285.96 340.59,228.77 317.94,197.58 295.28,228.77 272.63,301.56 249.98,259.97 227.32,285.96 204.67,358.75 182.01,207.98 159.36,426.33 136.71,296.36 114.05,358.75 91.40,285.96 68.75,296.36" style="stroke-width: 0.00;stroke: none;stroke-linecap: butt;fill: #F8766D;fill-opacity: 0.10;" />
<polyline points="68.75,296.36 91.40,285.96 114.05,358.75 136.71,291.16 159.36,421.13 182.01,202.78 204.67,348.35 227.32,275.56 249.98,244.37 272.63,285.96 295.28,207.98 317.94,176.78 340.59,202.78 363.24,254.77 385.90,270.36 408.55,358.75 431.21,228.77 453.86,322.35 476.51,265.17 499.17,98.80 521.82,228.77 544.47,244.37 567.13,83.20 589.78,202.78 612.43,244.37 635.09,192.38 657.74,62.41 680.40,26.02" style="stroke-width: 0.43;stroke: #F8766D;stroke-linecap: butt;"/>
<polyline points="680.40,254.77 657.74,223.57 635.09,322.35 612.43,348.35 589.78,291.16 567.13,166.39 544.47,327.55 521.82,296.36 499.17,161.19 476.51,317.16 453.86,369.14 431.21,270.36 408.55,395.14 385.90,311.96 363.24,285.96 340.59,228.77 317.94,197.58 295.28,228.77 272.63,301.56 249.98,259.97 227.32,285.96 204.67,358.75 182.01,207.98 159.36,426.33 136.71,296.36 114.05,358.75 91.40,285.96 68.75,296.36" style="stroke-width: 0.43;stroke: #F8766D;stroke-linecap: butt;"/>
<polygon points="68.75,285.96 91.40,275.56 114.05,348.35 136.71,285.96 159.36,410.74 182.01,197.58 204.67,337.95 227.32,275.56 249.98,239.17 272.63,285.96 295.28,192.38 317.94,155.99 340.59,181.98 363.24,233.97 385.90,254.77 408.55,337.95 431.21,228.77 453.86,285.96 476.51,223.57 499.17,67.61 521.82,207.98 544.47,218.38 567.13,124.79 589.78,202.78 612.43,181.98 635.09,104.00 657.74,72.81 680.40,57.21 680.40,436.73 657.74,426.33 635.09,395.14 612.43,389.94 589.78,363.95 567.13,265.17 544.47,353.55 521.82,327.55 499.17,181.98 476.51,322.35 453.86,363.95 431.21,291.16 408.55,395.14 385.90,306.76 363.24,285.96 340.59,228.77 317.94,202.78 295.28,223.57 272.63,311.96 249.98,265.17 227.32,296.36 204.67,358.75 182.01,218.38 159.36,426.33 136.71,301.56 114.05,358.75 91.40,285.96 68.75,296.36" style="stroke-width: 0.00;stroke: none;stroke-linecap: butt;fill: #00BFC4;fill-opacity: 0.10;" />
<polyline points="68.75,285.96 91.40,275.56 114.05,348.35 136.71,285.96 159.36,410.74 182.01,197.58 204.67,337.95 227.32,275.56 249.98,239.17 272.63,285.96 295.28,192.38 317.94,155.99 340.59,181.98 363.24,233.97 385.90,254.77 408.55,337.95 431.21,228.77 453.86,285.96 476.51,223.57 499.17,67.61 521.82,207.98 544.47,218.38 567.13,124.79 589.78,202.78 612.43,181.98 635.09,104.00 657.74,72.81 680.40,57.21" style="stroke-width: 0.43;stroke: #00BFC4;stroke-linecap: butt;"/>
<polyline points="680.40,436.73 657.74,426.33 635.09,395.14 612.43,389.94 589.78,363.95 567.13,265.17 544.47,353.55 521.82,327.55 499.17,181.98 476.51,322.35 453.86,363.95 431.21,291.16 408.55,395.14 385.90,306.76 363.24,285.96 340.59,228.77 317.94,202.78 295.28,223.57 272.63,311.96 249.98,265.17 227.32,296.36 204.67,358.75 182.01,218.38 159.36,426.33 136.71,301.56 114.05,358.75 91.40,285.96 68.75,296.36" style="stroke-width: 0.43;stroke: #00BFC4;stroke-linecap: butt;"/>
<polygon points="68.75,296.36 91.40,285.96 114.05,358.75 136.71,296.36 159.36,426.33 182.01,202.78 204.67,353.55 227.32,280.76 249.98,249.57 272.63,291.16 295.28,218.38 317.94,181.98 340.59,207.98 363.24,265.17 385.90,280.76 408.55,369.14 431.21,239.17 453.86,337.95 476.51,280.76 499.17,114.40 521.82,249.57 544.47,265.17 567.13,104.00 589.78,228.77 612.43,270.36 635.09,228.77 657.74,109.20 680.40,88.40 680.40,207.98 657.74,187.18 635.09,291.16 612.43,327.55 589.78,275.56 567.13,145.59 544.47,306.76 521.82,285.96 499.17,145.59 476.51,306.76 453.86,358.75 431.21,259.97 408.55,389.94 385.90,301.56 363.24,280.76 340.59,223.57 317.94,192.38 295.28,228.77 272.63,301.56 249.98,259.97 227.32,285.96 204.67,358.75 182.01,207.98 159.36,426.33 136.71,296.36 114.05,358.75 91.40,285.96 68.75,296.36" style="stroke-width: 0.00;stroke: none;stroke-linecap: butt;fill: #F8766D;fill-opacity: 0.10;" />
<polyline points="68.75,296.36 91.40,285.96 114.05,358.75 136.71,296.36 159.36,426.33 182.01,202.78 204.67,353.55 227.32,280.76 249.98,249.57 272.63,291.16 295.28,218.38 317.94,181.98 340.59,207.98 363.24,265.17 385.90,280.76 408.55,369.14 431.21,239.17 453.86,337.95 476.51,280.76 499.17,114.40 521.82,249.57 544.47,265.17 567.13,104.00 589.78,228.77 612.43,270.36 635.09,228.77 657.74,109.20 680.40,88.40" style="stroke-width: 1.07;stroke: none;stroke-linecap: butt;"/>
<polyline points="680.40,207.98 657.74,187.18 635.09,291.16 612.43,327.55 589.78,275.56 567.13,145.59 544.47,306.76 521.82,285.96 499.17,145.59 476.51,306.76 453.86,358.75 431.21,259.97 408.55,389.94 385.90,301.56 363.24,280.76 340.59,223.57 317.94,192.38 295.28,228.77 272.63,301.56 249.98,259.97 227.32,285.96 204.67,358.75 182.01,207.98 159.36,426.33 136.71,296.36 114.05,358.75 91.40,285.96 68.75,296.36" style="stroke-width: 1.07;stroke: none;stroke-linecap: butt;"/>
<polygon points="68.75,291.16 91.40,280.76 114.05,353.55 136.71,296.36 159.36,415.93 182.01,207.98 204.67,343.15 227.32,280.76 249.98,249.57 272.63,291.16 295.28,202.78 317.94,171.59 340.59,192.38 363.24,249.57 385.90,270.36 408.55,358.75 431.21,249.57 453.86,311.96 476.51,254.77 499.17,98.80 521.82,244.37 544.47,259.97 567.13,166.39 589.78,249.57 612.43,244.37 635.09,192.38 657.74,181.98 680.40,181.98 680.40,363.95 657.74,358.75 635.09,343.15 612.43,348.35 589.78,332.75 567.13,235.01 544.47,327.55 521.82,306.76 499.17,161.19 476.51,306.76 453.86,348.35 431.21,280.76 408.55,384.74 385.90,296.36 363.24,275.56 340.59,218.38 317.94,192.38 295.28,218.38 272.63,306.76 249.98,259.97 227.32,291.16 204.67,358.75 182.01,218.38 159.36,426.33 136.71,301.56 114.05,358.75 91.40,285.96 68.75,296.36" style="stroke-width: 0.00;stroke: none;stroke-linecap: butt;fill: #00BFC4;fill-opacity: 0.10;" />
<polyline points="68.75,291.16 91.40,280.76 114.05,353.55 136.71,296.36 159.36,415.93 182.01,207.98 204.67,343.15 227.32,280.76 249.98,249.57 272.63,291.16 295.28,202.78 317.94,171.59 340.59,192.38 363.24,249.57 385.90,270.36 408.55,358.75 431.21,249.57 453.86,311.96 476.51,254.77 499.17,98.80 521.82,244.37 544.47,259.97 567.13,166.39 589.78,249.57 612.43,244.37 635.09,192.38 657.74,181.98 680.40,181.98" style="stroke-width: 1.07;stroke: none;stroke-linecap: butt;"/>
<polyline points="680.40,363.95 657.74,358.75 635.09,343.15 612.43,348.35 589.78,332.75 567.13,235.01 544.47,327.55 521.82,306.76 499.17,161.19 476.51,306.76 453.86,348.35 431.21,280.76 408.55,384.74 385.90,296.36 363.24,275.56 340.59,218.38 317.94,192.38 295.28,218.38 272.63,306.76 249.98,259.97 227.32,291.16 204.67,358.75 182.01,218.38 159.36,426.33 136.71,301.56 114.05,358.75 91.40,285.96 68.75,296.36" style="stroke-width: 1.07;stroke: none;stroke-linecap: butt;"/>
<polyline points="68.75,296.36 91.40,285.91 114.05,358.57 136.71,295.97 159.36,425.62 182.01,206.62 204.67,356.46 227.32,282.38 249.98,255.49 272.63,296.32 295.28,221.38 317.94,187.71 340.59,215.35 363.24,272.35 385.90,292.36 408.55,378.96 431.21,251.32 453.86,347.57 476.51,291.29 499.17,131.40 521.82,265.19 544.47,287.51 567.13,125.42 589.78,249.69 612.43,299.18 635.09,260.11 657.74,147.91 680.40,147.49" style="stroke-width: 1.07;stroke: #F8766D; stroke-dasharray: 5.69, 5.69;stroke-linecap: butt;"/>
<polyline points="68.75,294.15 91.40,283.47 114.05,355.64 136.71,297.31 159.36,420.09 182.01,210.49 204.67,350.48 227.32,287.07 249.98,254.78 272.63,299.23 295.28,210.49 317.94,181.02 340.59,206.39 363.24,261.58 385.90,285.03 408.55,370.20 431.21,263.44 453.86,330.89 476.51,278.10 499.17,129.25 521.82,275.06 544.47,291.78 567.13,201.38 589.78,289.86 612.43,295.59 635.09,263.32 657.74,267.74 680.40,270.97" style="stroke-width: 1.07;stroke: #00BFC4; stroke-dasharray: 5.69, 5.69;stroke-linecap: butt;"/>
<polyline points="68.75,296.36 91.40,285.96 114.05,358.75 136.71,296.36 159.36,426.33 182.01,207.98 204.67,358.75 227.32,285.96 249.98,254.77 272.63,296.36 295.28,223.57 317.94,187.18 340.59,218.38 363.24,275.56 385.90,291.16 408.55,379.54 431.21,254.77 453.86,348.35 476.51,291.16 499.17,129.99 521.82,265.17 544.47,291.16 567.13,124.79 589.78,249.57 612.43,301.56 635.09,259.97 657.74,150.79 680.40,150.79" style="stroke-width: 1.07;stroke: #F8766D;stroke-linecap: butt;"/>
<polyline points="68.75,296.36 91.40,285.96 114.05,358.75 136.71,296.36 159.36,421.13 182.01,213.18 204.67,353.55 227.32,285.96 249.98,254.77 272.63,301.56 295.28,213.18 317.94,181.98 340.59,207.98 363.24,265.17 385.90,285.96 408.55,369.14 431.21,265.17 453.86,332.75 476.51,280.76 499.17,129.99 521.82,275.56 544.47,296.36 567.13,207.98 589.78,296.36 612.43,301.56 635.09,270.36 657.74,275.56 680.40,280.76" style="stroke-width: 1.07;stroke: #00BFC4;stroke-linecap: butt;"/>
<polygon points="68.75,296.36 91.40,285.96 114.05,358.75 136.71,291.16 159.36,421.13 182.01,202.78 204.67,348.35 227.32,275.56 249.98,244.37 272.63,285.96 295.28,207.98 317.94,176.78 340.59,202.78 363.24,254.77 385.90,270.36 408.55,358.75 431.21,228.77 453.86,322.35 476.51,265.17 499.17,98.80 521.82,228.77 544.47,244.37 567.13,83.20 589.78,202.78 612.43,244.37 635.09,192.38 657.74,62.41 680.40,26.02 680.40,254.77 657.74,223.57 635.09,322.35 612.43,348.35 589.78,291.16 567.13,166.39 544.47,327.55 521.82,296.36 499.17,161.19 476.51,317.16 453.86,369.14 431.21,270.36 408.55,395.14 385.90,311.96 363.24,285.96 340.59,228.77 317.94,197.58 295.28,228.77 272.63,301.56 249.98,259.97 227.32,285.96 204.67,358.75 182.01,207.98 159.36,426.33 136.71,296.36 114.05,358.75 91.40,285.96 68.75,296.36" style="stroke-width: 0.00;stroke: none;stroke-linecap: butt;fill: #F8766D;fill-opacity: 0.10;" />
<polyline points="68.75,296.36 91.40,285.96 114.05,358.75 136.71,291.16 159.36,421.13 182.01,202.78 204.67,348.35 227.32,275.56 249.98,244.37 272.63,285.96 295.28,207.98 317.94,176.78 340.59,202.78 363.24,254.77 385.90,270.36 408.55,358.75 431.21,228.77 453.86,322.35 476.51,265.17 499.17,98.80 521.82,228.77 544.47,244.37 567.13,83.20 589.78,202.78 612.43,244.37 635.09,192.38 657.74,62.41 680.40,26.02" style="stroke-width: 0.43;stroke: #F8766D;stroke-linecap: butt;"/>
<polyline points="680.40,254.77 657.74,223.57 635.09,322.35 612.43,348.35 589.78,291.16 567.13,166.39 544.47,327.55 521.82,296.36 499.17,161.19 476.51,317.16 453.86,369.14 431.21,270.36 408.55,395.14 385.90,311.96 363.24,285.96 340.59,228.77 317.94,197.58 295.28,228.77 272.63,301.56 249.98,259.97 227.32,285.96 204.67,358.75 182.01,207.98 159.36,426.33 136.71,296.36 114.05,358.75 91.40,285.96 68.75,296.36" style="stroke-width: 0.43;stroke: #F8766D;stroke-linecap: butt;"/>
<polygon points="68.75,285.96 91.40,275.56 114.05,348.35 136.71,285.96 159.36,410.74 182.01,197.58 204.67,337.95 227.32,275.56 249.98,239.17 272.63,285.96 295.28,192.38 317.94,155.99 340.59,181.98 363.24,233.97 385.90,254.77 408.55,337.95 431.21,228.77 453.86,285.96 476.51,223.57 499.17,67.61 521.82,207.98 544.47,218.38 567.13,124.79 589.78,202.78 612.43,181.98 635.09,104.00 657.74,72.81 680.40,57.21 680.40,436.73 657.74,426.33 635.09,395.14 612.43,389.94 589.78,363.95 567.13,265.17 544.47,353.55 521.82,327.55 499.17,181.98 476.51,322.35 453.86,363.95 431.21,291.16 408.55,395.14 385.90,306.76 363.24,285.96 340.59,228.77 317.94,202.78 295.28,223.57 272.63,311.96 249.98,265.17 227.32,296.36 204.67,358.75 182.01,218.38 159.36,426.33 136.71,301.56 114.05,358.75 91.40,285.96 68.75,296.36" style="stroke-width: 0.00;stroke: none;stroke-linecap: butt;fill: #00BFC4;fill-opacity: 0.10;" />
<polyline points="68.75,285.96 91.40,275.56 114.05,348.35 136.71,285.96 159.36,410.74 182.01,197.58 204.67,337.95 227.32,275.56 249.98,239.17 272.63,285.96 295.28,192.38 317.94,155.99 340.59,181.98 363.24,233.97 385.90,254.77 408.55,337.95 431.21,228.77 453.86,285.96 476.51,223.57 499.17,67.61 521.82,207.98 544.47,218.38 567.13,124.79 589.78,202.78 612.43,181.98 635.09,104.00 657.74,72.81 680.40,57.21" style="stroke-width: 0.43;stroke: #00BFC4;stroke-linecap: butt;"/>
<polyline points="680.40,436.73 657.74,426.33 635.09,395.14 612.43,389.94 589.78,363.95 567.13,265.17 544.47,353.55 521.82,327.55 499.17,181.98 476.51,322.35 453.86,363.95 431.21,291.16 408.55,395.14 385.90,306.76 363.24,285.96 340.59,228.77 317.94,202.78 295.28,223.57 272.63,311.96 249.98,265.17 227.32,296.36 204.67,358.75 182.01,218.38 159.36,426.33 136.71,301.56 114.05,358.75 91.40,285.96 68.75,296.36" style="stroke-width: 0.43;stroke: #00BFC4;stroke-linecap: butt;"/>
<polygon points="68.75,296.36 91.40,285.96 114.05,358.75 136.71,296.36 159.36,426.33 182.01,202.78 204.67,353.55 227.32,280.76 249.98,249.57 272.63,291.16 295.28,218.38 317.94,181.98 340.59,207.98 363.24,265.17 385.90,280.76 408.55,369.14 431.21,239.17 453.86,337.95 476.51,280.76 499.17,114.40 521.82,249.57 544.47,265.17 567.13,104.00 589.78,228.77 612.43,270.36 635.09,228.77 657.74,109.20 680.40,88.40 680.40,207.98 657.74,187.18 635.09,291.16 612.43,327.55 589.78,275.56 567.13,145.59 544.47,306.76 521.82,285.96 499.17,145.59 476.51,306.76 453.86,358.75 431.21,259.97 408.55,389.94 385.90,301.56 363.24,280.76 340.59,223.57 317.94,192.38 295.28,228.77 272.63,301.56 249.98,259.97 227.32,285.96 204.67,358.75 182.01,207.98 159.36,426.33 136.71,296.36 114.05,358.75 91.40,285.96 68.75,296.36" style="stroke-width: 0.00;stroke: none;stroke-linecap: butt;fill: #F8766D;fill-opacity: 0.10;" />
<polyline points="68.75,296.36 91.40,285.96 114.05,358.75 136.71,296.36 159.36,426.33 182.01,202.78 204.67,353.55 227.32,280.76 249.98,249.57 272.63,291.16 295.28,218.38 317.94,181.98 340.59,207.98 363.24,265.17 385.90,280.76 408.55,369.14 431.21,239.17 453.86,337.95 476.51,280.76 499.17,114.40 521.82,249.57 544.47,265.17 567.13,104.00 589.78,228.77 612.43,270.36 635.09,228.77 657.74,109.20 680.40,88.40" style="stroke-width: 1.07;stroke: none;stroke-linecap: butt;"/>
<polyline points="680.40,207.98 657.74,187.18 635.09,291.16 612.43,327.55 589.78,275.56 567.13,145.59 544.47,306.76 521.82,285.96 499.17,145.59 476.51,306.76 453.86,358.75 431.21,259.97 408.55,389.94 385.90,301.56 363.24,280.76 340.59,223.57 317.94,192.38 295.28,228.77 272.63,301.56 249.98,259.97 227.32,285.96 204.67,358.75 182.01,207.98 159.36,426.33 136.71,296.36 114.05,358.75 91.40,285.96 68.75,296.36" style="stroke-width: 1.07;stroke: none;stroke-linecap: butt;"/>
<polygon points="68.75,291.16 91.40,280.76 114.05,353.55 136.71,296.36 159.36,415.93 182.01,207.98 204.67,343.15 227.32,280.76 249.98,249.57 272.63,291.16 295.28,202.78 317.94,171.59 340.59,192.38 363.24,249.57 385.90,270.36 408.55,358.75 431.21,249.57 453.86,311.96 476.51,254.77 499.17,98.80 521.82,244.37 544.47,259.97 567.13,166.39 589.78,249.57 612.43,244.37 635.09,192.38 657.74,181.98 680.40,181.98 680.40,363.95 657.74,358.75 635.09,343.15 612.43,348.35 589.78,332.75 567.13,235.01 544.47,327.55 521.82,306.76 499.17,161.19 476.51,306.76 453.86,348.35 431.21,280.76 408.55,384.74 385.90,296.36 363.24,275.56 340.59,218.38 317.94,192.38 295.28,218.38 272.63,306.76 249.98,259.97 227.32,291.16 204.67,358.75 182.01,218.38 159.36,426.33 136.71,301.56 114.05,358.75 91.40,285.96 68.75,296.36" style="stroke-width: 0.00;stroke: none;stroke-linecap: butt;fill: #00BFC4;fill-opacity: 0.10;" />
<polyline points="68.75,291.16 91.40,280.76 114.05,353.55 136.71,296.36 159.36,415.93 182.01,207.98 204.67,343.15 227.32,280.76 249.98,249.57 272.63,291.16 295.28,202.78 317.94,171.59 340.59,192.38 363.24,249.57 385.90,270.36 408.55,358.75 431.21,249.57 453.86,311.96 476.51,254.77 499.17,98.80 521.82,244.37 544.47,259.97 567.13,166.39 589.78,249.57 612.43,244.37 635.09,192.38 657.74,181.98 680.40,181.98" style="stroke-width: 1.07;stroke: none;stroke-linecap: butt;"/>
<polyline points="680.40,363.95 657.74,358.75 635.09,343.15 612.43,348.35 589.78,332.75 567.13,235.01 544.47,327.55 521.82,306.76 499.17,161.19 476.51,306.76 453.86,348.35 431.21,280.76 408.55,384.74 385.90,296.36 363.24,275.56 340.59,218.38 317.94,192.38 295.28,218.38 272.63,306.76 249.98,259.97 227.32,291.16 204.67,358.75 182.01,218.38 159.36,426.33 136.71,301.56 114.05,358.75 91.40,285.96 68.75,296.36" style="stroke-width: 1.07;stroke: none;stroke-linecap: butt;"/>
<polygon points="68.75,293.32 71.38,297.88 66.11,297.88" style="stroke-width: 0.71;" />
<polygon points="91.40,282.92 94.03,287.48 88.77,287.48" style="stroke-width: 0.71;" />
<polygon points="114.05,355.71 116.69,360.27 111.42,360.27" style="stroke-width: 0.71;" />
<polygon points="136.71,298.52 139.34,303.08 134.07,303.08" style="stroke-width: 0.71;" />
<polygon points="159.36,418.09 161.99,422.65 156.73,422.65" style="stroke-width: 0.71;" />
<polygon points="182.01,204.94 184.65,209.50 179.38,209.50" style="stroke-width: 0.71;" />
<polygon points="204.67,355.71 207.30,360.27 202.04,360.27" style="stroke-width: 0.71;" />
<polygon points="227.32,282.92 229.95,287.48 224.69,287.48" style="stroke-width: 0.71;" />
<polygon points="249.98,256.93 252.61,261.49 247.34,261.49" style="stroke-width: 0.71;" />
<polygon points="272.63,293.32 275.26,297.88 270.00,297.88" style="stroke-width: 0.71;" />
<polygon points="295.28,210.14 297.92,214.70 292.65,214.70" style="stroke-width: 0.71;" />
<polygon points="317.94,184.14 320.57,188.70 315.30,188.70" style="stroke-width: 0.71;" />
<polygon points="340.59,215.34 343.22,219.90 337.96,219.90" style="stroke-width: 0.71;" />
<polygon points="363.24,277.72 365.88,282.28 360.61,282.28" style="stroke-width: 0.71;" />
<polygon points="385.90,303.72 388.53,308.28 383.27,308.28" style="stroke-width: 0.71;" />
<polygon points="408.55,386.90 411.18,391.46 405.92,391.46" style="stroke-width: 0.71;" />
<polygon points="431.21,256.93 433.84,261.49 428.57,261.49" style="stroke-width: 0.71;" />
<polygon points="453.86,345.31 456.49,349.87 451.23,349.87" style="stroke-width: 0.71;" />
<polygon points="476.51,272.52 479.15,277.08 473.88,277.08" style="stroke-width: 0.71;" />
<polygon points="499.17,147.75 501.80,152.31 496.53,152.31" style="stroke-width: 0.71;" />
<polygon points="521.82,241.33 524.45,245.89 519.19,245.89" style="stroke-width: 0.71;" />
<polygon points="544.47,277.72 547.11,282.28 541.84,282.28" style="stroke-width: 0.71;" />
<polygon points="567.13,126.95 569.76,131.51 564.49,131.51" style="stroke-width: 0.71;" />
<polygon points="589.78,220.53 592.41,225.09 587.15,225.09" style="stroke-width: 0.71;" />
<polygon points="612.43,324.51 615.07,329.07 609.80,329.07" style="stroke-width: 0.71;" />
<polygon points="635.09,288.12 637.72,292.68 632.46,292.68" style="stroke-width: 0.71;" />
<polygon points="657.74,142.55 660.37,147.11 655.11,147.11" style="stroke-width: 0.71;" />
<polygon points="680.40,246.53 683.03,251.09 677.76,251.09" style="stroke-width: 0.71;" />
<rect x="38.16" y="5.48" width="672.82" height="451.79" style="stroke-width: 1.07;stroke: #333333;"/>
</g><g clip-path="url(#c2)">
<g><text x="33.23" y="356.70" text-anchor="end" style="font-family: Arial;font-size: 8.80px;fill: #4D4D4D;" textLength="9.79px" lengthAdjust="spacingAndGlyphs">60</text></g>
<g><text x="33.23" y="252.72" text-anchor="end" style="font-family: Arial;font-size: 8.80px;fill: #4D4D4D;" textLength="9.79px" lengthAdjust="spacingAndGlyphs">80</text></g>
<g><text x="33.23" y="148.74" text-anchor="end" style="font-family: Arial;font-size: 8.80px;fill: #4D4D4D;" textLength="14.69px" lengthAdjust="spacingAndGlyphs">100</text></g>
<g><text x="33.23" y="44.77" text-anchor="end" style="font-family: Arial;font-size: 8.80px;fill: #4D4D4D;" textLength="14.69px" lengthAdjust="spacingAndGlyphs">120</text></g>
<polyline points="35.42,353.55 38.16,353.55" style="stroke-width: 1.07;stroke: #333333;stroke-linecap: butt;"/>
<polyline points="35.42,249.57 38.16,249.57" style="stroke-width: 1.07;stroke: #333333;stroke-linecap: butt;"/>
<polyline points="35.42,145.59 38.16,145.59" style="stroke-width: 1.07;stroke: #333333;stroke-linecap: butt;"/>
<polyline points="35.42,41.61 38.16,41.61" style="stroke-width: 1.07;stroke: #333333;stroke-linecap: butt;"/>
<polyline points="114.05,460.01 114.05,457.27" style="stroke-width: 1.07;stroke: #333333;stroke-linecap: butt;"/>
<polyline points="272.63,460.01 272.63,457.27" style="stroke-width: 1.07;stroke: #333333;stroke-linecap: butt;"/>
<polyline points="431.21,460.01 431.21,457.27" style="stroke-width: 1.07;stroke: #333333;stroke-linecap: butt;"/>
<polyline points="589.78,460.01 589.78,457.27" style="stroke-width: 1.07;stroke: #333333;stroke-linecap: butt;"/>
<g><text x="114.05" y="468.50" text-anchor="middle" style="font-family: Arial;font-size: 8.80px;fill: #4D4D4D;" textLength="25.93px" lengthAdjust="spacingAndGlyphs">Apr 01</text></g>
<g><text x="272.63" y="468.50" text-anchor="middle" style="font-family: Arial;font-size: 8.80px;fill: #4D4D4D;" textLength="25.93px" lengthAdjust="spacingAndGlyphs">Apr 08</text></g>
<g><text x="431.21" y="468.50" text-anchor="middle" style="font-family: Arial;font-size: 8.80px;fill: #4D4D4D;" textLength="25.93px" lengthAdjust="spacingAndGlyphs">Apr 15</text></g>
<g><text x="589.78" y="468.50" text-anchor="middle" style="font-family: Arial;font-size: 8.80px;fill: #4D4D4D;" textLength="25.93px" lengthAdjust="spacingAndGlyphs">Apr 22</text></g>
<g><text x="374.57" y="481.09" text-anchor="middle" style="font-family: Arial;font-size: 11.00px;" textLength="23.23px" lengthAdjust="spacingAndGlyphs">Date</text></g>
<g><text transform="translate(13.37,231.37) rotate(-90.00)" text-anchor="middle" style="font-family: Arial;font-size: 11.00px;" textLength="99.04px" lengthAdjust="spacingAndGlyphs">Hospital Admissions</text></g>
<rect x="721.94" y="200.71" width="107.58" height="61.32" style="stroke-width: 1.07;stroke: none;fill: #FFFFFF;"/>
<g><text x="727.42" y="215.30" style="font-family: Arial;font-size: 11.00px;" textLength="29.97px" lengthAdjust="spacingAndGlyphs">Model</text></g>
<rect x="727.42" y="221.99" width="17.28" height="17.28" style="stroke-width: 1.07;stroke: none;fill: #FFFFFF;"/>
<line x1="729.14" y1="230.63" x2="742.97" y2="230.63" style="stroke-width: 1.07;stroke: #F8766D; stroke-dasharray: 5.69, 5.69;stroke-linecap: butt;"/>
<line x1="729.14" y1="230.63" x2="742.97" y2="230.63" style="stroke-width: 1.07;stroke: #F8766D;stroke-linecap: butt;"/>
<rect x="727.70" y="222.28" width="16.71" height="16.71" style="stroke-width: 0.43;stroke: #F8766D;stroke-linecap: butt;stroke-linejoin: miter;fill: #F8766D;fill-opacity: 0.10;"/>
<rect x="728.13" y="222.70" width="15.86" height="15.86" style="stroke-width: 1.07;stroke: none;stroke-linecap: butt;stroke-linejoin: miter;fill: #F8766D;fill-opacity: 0.10;"/>
<line x1="729.14" y1="230.63" x2="742.97" y2="230.63" style="stroke-width: 1.07;stroke: #F8766D; stroke-dasharray: 5.69, 5.69;stroke-linecap: butt;"/>
<line x1="729.14" y1="230.63" x2="742.97" y2="230.63" style="stroke-width: 1.07;stroke: #F8766D;stroke-linecap: butt;"/>
<rect x="727.70" y="222.28" width="16.71" height="16.71" style="stroke-width: 0.43;stroke: #F8766D;stroke-linecap: butt;stroke-linejoin: miter;fill: #F8766D;fill-opacity: 0.10;"/>
<rect x="728.13" y="222.70" width="15.86" height="15.86" style="stroke-width: 1.07;stroke: none;stroke-linecap: butt;stroke-linejoin: miter;fill: #F8766D;fill-opacity: 0.10;"/>
<rect x="727.42" y="239.27" width="17.28" height="17.28" style="stroke-width: 1.07;stroke: none;fill: #FFFFFF;"/>
<line x1="729.14" y1="247.91" x2="742.97" y2="247.91" style="stroke-width: 1.07;stroke: #00BFC4; stroke-dasharray: 5.69, 5.69;stroke-linecap: butt;"/>
<line x1="729.14" y1="247.91" x2="742.97" y2="247.91" style="stroke-width: 1.07;stroke: #00BFC4;stroke-linecap: butt;"/>
<rect x="727.70" y="239.56" width="16.71" height="16.71" style="stroke-width: 0.43;stroke: #00BFC4;stroke-linecap: butt;stroke-linejoin: miter;fill: #00BFC4;fill-opacity: 0.10;"/>
<rect x="728.13" y="239.98" width="15.86" height="15.86" style="stroke-width: 1.07;stroke: none;stroke-linecap: butt;stroke-linejoin: miter;fill: #00BFC4;fill-opacity: 0.10;"/>
<line x1="729.14" y1="247.91" x2="742.97" y2="247.91" style="stroke-width: 1.07;stroke: #00BFC4; stroke-dasharray: 5.69, 5.69;stroke-linecap: butt;"/>
<line x1="729.14" y1="247.91" x2="742.97" y2="247.91" style="stroke-width: 1.07;stroke: #00BFC4;stroke-linecap: butt;"/>
<rect x="727.70" y="239.56" width="16.71" height="16.71" style="stroke-width: 0.43;stroke: #00BFC4;stroke-linecap: butt;stroke-linejoin: miter;fill: #00BFC4;fill-opacity: 0.10;"/>
<rect x="728.13" y="239.98" width="15.86" height="15.86" style="stroke-width: 1.07;stroke: none;stroke-linecap: butt;stroke-linejoin: miter;fill: #00BFC4;fill-opacity: 0.10;"/>
<g><text x="750.18" y="233.79" style="font-family: Arial;font-size: 8.80px;" textLength="41.54px" lengthAdjust="spacingAndGlyphs">Daily/Daily</text></g>
<g><text x="750.18" y="251.07" style="font-family: Arial;font-size: 8.80px;" textLength="73.86px" lengthAdjust="spacingAndGlyphs">Hardcoded Hazard</text></g>
</g>
</svg>