<svg xmlns="http://www.w3.org/2000/svg" xmlns:xlink="http://www.w3.org/1999/xlink" class="httpgd" width="851.00" height="580.00" viewBox="0 0 851.00 580.00">
<defs>
  <style type='text/css'><![CDATA[
    .httpgd line, .httpgd polyline, .httpgd polygon, .httpgd path, .httpgd rect, .httpgd circle {
      fill: none;
      stroke: #000000;
      stroke-linecap: round;
      stroke-linejoin: round;
      stroke-miterlimit: 10.00;
    }
  ]]></style>
<clipPath id="c0"><rect x="0.00" y="0.00" width="851.00" height="580.00"/></clipPath>
<clipPath id="c1"><rect x="38.16" y="5.48" width="721.14" height="542.79"/></clipPath>
<clipPath id="c2"><rect x="0.00" y="0.00" width="851.00" height="580.00"/></clipPath>
</defs>
<rect width="100%" height="100%" style="stroke: none;fill: #FFFFFF;"/>
<g clip-path="url(#c0)">
<rect x="0.00" y="0.00" width="851.00" height="580.00" style="stroke-width: 1.07;stroke: #FFFFFF;fill: #FFFFFF;"/>
</g><g clip-path="url(#c1)">
<rect x="38.16" y="5.48" width="721.14" height="542.79" style="stroke-width: 1.07;stroke: none;fill: #FFFFFF;"/>
<polyline points="38.16,497.96 759.31,497.96" style="stroke-width: 0.53;stroke: #EBEBEB;stroke-linecap: butt;"/>
<polyline points="38.16,369.79 759.31,369.79" style="stroke-width: 0.53;stroke: #EBEBEB;stroke-linecap: butt;"/>
<polyline points="38.16,241.63 759.31,241.63" style="stroke-width: 0.53;stroke: #EBEBEB;stroke-linecap: butt;"/>
<polyline points="38.16,113.46 759.31,113.46" style="stroke-width: 0.53;stroke: #EBEBEB;stroke-linecap: butt;"/>
<polyline points="204.49,548.27 204.49,5.48" style="stroke-width: 0.53;stroke: #EBEBEB;stroke-linecap: butt;"/>
<polyline points="374.45,548.27 374.45,5.48" style="stroke-width: 0.53;stroke: #EBEBEB;stroke-linecap: butt;"/>
<polyline points="544.42,548.27 544.42,5.48" style="stroke-width: 0.53;stroke: #EBEBEB;stroke-linecap: butt;"/>
<polyline points="714.39,548.27 714.39,5.48" style="stroke-width: 0.53;stroke: #EBEBEB;stroke-linecap: butt;"/>
<polyline points="38.16,433.88 759.31,433.88" style="stroke-width: 1.07;stroke: #EBEBEB;stroke-linecap: butt;"/>
<polyline points="38.16,305.71 759.31,305.71" style="stroke-width: 1.07;stroke: #EBEBEB;stroke-linecap: butt;"/>
<polyline points="38.16,177.54 759.31,177.54" style="stroke-width: 1.07;stroke: #EBEBEB;stroke-linecap: butt;"/>
<polyline points="38.16,49.38 759.31,49.38" style="stroke-width: 1.07;stroke: #EBEBEB;stroke-linecap: butt;"/>
<polyline points="119.50,548.27 119.50,5.48" style="stroke-width: 1.07;stroke: #EBEBEB;stroke-linecap: butt;"/>
<polyline points="289.47,548.27 289.47,5.48" style="stroke-width: 1.07;stroke: #EBEBEB;stroke-linecap: butt;"/>
<polyline points="459.44,548.27 459.44,5.48" style="stroke-width: 1.07;stroke: #EBEBEB;stroke-linecap: butt;"/>
<polyline points="629.40,548.27 629.40,5.48" style="stroke-width: 1.07;stroke: #EBEBEB;stroke-linecap: butt;"/>
<polyline points="70.94,363.39 95.22,350.51 119.50,440.07 143.79,362.90 168.07,522.71 192.35,252.77 216.63,437.47 240.91,346.15 265.19,313.01 289.47,363.34 313.75,270.97 338.03,229.47 362.31,263.54 386.59,333.79 410.88,358.45 435.16,465.20 459.44,307.87 483.72,426.51 508.00,357.14 532.28,160.05 556.56,324.97 580.84,352.48 605.12,152.68 629.40,305.86 653.68,366.86 677.97,318.70 702.25,180.40 726.53,179.89" style="stroke-width: 1.07;stroke: #F8766D; stroke-dasharray: 5.69, 5.69;stroke-linecap: butt;"/>
<polyline points="70.94,363.39 95.22,350.52 119.50,440.16 143.79,369.50 168.07,522.94 192.35,266.04 216.63,438.42 240.91,360.62 265.19,321.08 289.47,376.96 313.75,271.38 338.03,239.74 362.31,271.84 386.59,337.44 410.88,363.49 435.16,464.28 459.44,330.87 483.72,420.73 508.00,359.33 532.28,165.20 556.56,334.09 580.84,344.44 605.12,222.34 629.40,326.07 653.68,353.36 677.97,324.65 702.25,323.60 726.53,320.81" style="stroke-width: 1.07;stroke: #00BFC4; stroke-dasharray: 5.69, 5.69;stroke-linecap: butt;"/>
<polyline points="70.94,363.39 95.22,350.57 119.50,440.29 143.79,363.39 168.07,523.59 192.35,254.44 216.63,440.29 240.91,350.57 265.19,312.12 289.47,363.39 313.75,273.67 338.03,228.81 362.31,267.26 386.59,337.75 410.88,356.98 435.16,465.92 459.44,312.12 483.72,427.47 508.00,356.98 532.28,158.32 556.56,324.94 580.84,356.98 605.12,151.91 629.40,305.71 653.68,369.79 677.97,318.53 702.25,183.95 726.53,183.95" style="stroke-width: 1.07;stroke: #F8766D;stroke-linecap: butt;"/>
<polyline points="70.94,363.39 95.22,350.57 119.50,440.29 143.79,369.79 168.07,523.59 192.35,267.26 216.63,440.29 240.91,363.39 265.19,324.94 289.47,376.20 313.75,273.67 338.03,241.63 362.31,273.67 386.59,337.75 410.88,363.39 435.16,465.92 459.44,331.34 483.72,421.06 508.00,363.39 532.28,164.73 556.56,337.75 580.84,344.16 605.12,228.81 629.40,331.34 653.68,356.98 677.97,331.34 702.25,331.34 726.53,331.34" style="stroke-width: 1.07;stroke: #00BFC4;stroke-linecap: butt;"/>
<polygon points="70.94,363.39 95.22,350.57 119.50,440.29 143.79,356.98 168.07,517.19 192.35,248.04 216.63,427.47 240.91,337.75 265.19,299.30 289.47,350.57 313.75,254.44 338.03,215.99 362.31,248.04 386.59,312.12 410.88,331.34 435.16,440.29 459.44,280.08 483.72,395.43 508.00,324.94 532.28,119.87 556.56,280.08 580.84,299.30 605.12,100.64 629.40,248.04 653.68,299.30 677.97,235.22 702.25,75.01 726.53,30.15 726.53,312.12 702.25,273.67 677.97,395.43 653.68,427.47 629.40,356.98 605.12,203.18 580.84,401.84 556.56,363.39 532.28,196.77 508.00,389.02 483.72,453.10 459.44,331.34 435.16,485.14 410.88,382.61 386.59,350.57 362.31,280.08 338.03,241.63 313.75,280.08 289.47,369.79 265.19,318.53 240.91,350.57 216.63,440.29 192.35,254.44 168.07,523.59 143.79,363.39 119.50,440.29 95.22,350.57 70.94,363.39" style="stroke-width: 0.00;stroke: none;stroke-linecap: butt;fill: #F8766D;fill-opacity: 0.10;" />
<polyline points="70.94,363.39 95.22,350.57 119.50,440.29 143.79,356.98 168.07,517.19 192.35,248.04 216.63,427.47 240.91,337.75 265.19,299.30 289.47,350.57 313.75,254.44 338.03,215.99 362.31,248.04 386.59,312.12 410.88,331.34 435.16,440.29 459.44,280.08 483.72,395.43 508.00,324.94 532.28,119.87 556.56,280.08 580.84,299.30 605.12,100.64 629.40,248.04 653.68,299.30 677.97,235.22 702.25,75.01 726.53,30.15" style="stroke-width: 0.43;stroke: #F8766D;stroke-linecap: butt;"/>
<polyline points="726.53,312.12 702.25,273.67 677.97,395.43 653.68,427.47 629.40,356.98 605.12,203.18 580.84,401.84 556.56,363.39 532.28,196.77 508.00,389.02 483.72,453.10 459.44,331.34 435.16,485.14 410.88,382.61 386.59,350.57 362.31,280.08 338.03,241.63 313.75,280.08 289.47,369.79 265.19,318.53 240.91,350.57 216.63,440.29 192.35,254.44 168.07,523.59 143.79,363.39 119.50,440.29 95.22,350.57 70.94,363.39" style="stroke-width: 0.43;stroke: #F8766D;stroke-linecap: butt;"/>
<polygon points="70.94,363.39 95.22,350.57 119.50,440.29 143.79,369.79 168.07,517.19 192.35,260.85 216.63,433.88 240.91,350.57 265.19,312.12 289.47,363.39 313.75,260.85 338.03,222.40 362.31,248.04 386.59,312.12 410.88,337.75 435.16,433.88 459.44,292.89 483.72,376.20 508.00,305.71 532.28,100.64 556.56,267.26 580.84,267.26 605.12,139.09 629.40,228.81 653.68,235.22 677.97,164.73 702.25,132.69 726.53,113.46 726.53,491.55 702.25,485.14 677.97,459.51 653.68,453.10 629.40,408.24 605.12,299.30 580.84,408.24 556.56,395.43 532.28,222.40 508.00,408.24 483.72,453.42 459.44,363.39 435.16,491.55 410.88,389.02 386.59,356.98 362.31,286.49 338.03,254.44 313.75,280.08 289.47,382.61 265.19,324.94 240.91,363.39 216.63,440.29 192.35,267.26 168.07,523.59 143.79,369.79 119.50,440.29 95.22,350.57 70.94,363.39" style="stroke-width: 0.00;stroke: none;stroke-linecap: butt;fill: #00BFC4;fill-opacity: 0.10;" />
<polyline points="70.94,363.39 95.22,350.57 119.50,440.29 143.79,369.79 168.07,517.19 192.35,260.85 216.63,433.88 240.91,350.57 265.19,312.12 289.47,363.39 313.75,260.85 338.03,222.40 362.31,248.04 386.59,312.12 410.88,337.75 435.16,433.88 459.44,292.89 483.72,376.20 508.00,305.71 532.28,100.64 556.56,267.26 580.84,267.26 605.12,139.09 629.40,228.81 653.68,235.22 677.97,164.73 702.25,132.69 726.53,113.46" style="stroke-width: 0.43;stroke: #00BFC4;stroke-linecap: butt;"/>
<polyline points="726.53,491.55 702.25,485.14 677.97,459.51 653.68,453.10 629.40,408.24 605.12,299.30 580.84,408.24 556.56,395.43 532.28,222.40 508.00,408.24 483.72,453.42 459.44,363.39 435.16,491.55 410.88,389.02 386.59,356.98 362.31,286.49 338.03,254.44 313.75,280.08 289.47,382.61 265.19,324.94 240.91,363.39 216.63,440.29 192.35,267.26 168.07,523.59 143.79,369.79 119.50,440.29 95.22,350.57 70.94,363.39" style="stroke-width: 0.43;stroke: #00BFC4;stroke-linecap: butt;"/>
<polygon points="70.94,363.39 95.22,350.57 119.50,440.29 143.79,363.39 168.07,523.59 192.35,248.04 216.63,433.88 240.91,344.16 265.19,305.71 289.47,356.98 313.75,267.26 338.03,222.40 362.31,254.44 386.59,324.94 410.88,344.16 435.16,453.10 459.44,292.89 483.72,414.65 508.00,344.16 532.28,139.09 556.56,305.71 580.84,324.94 605.12,126.28 629.40,280.08 653.68,331.34 677.97,280.08 702.25,132.69 726.53,107.05 726.53,254.44 702.25,228.81 677.97,356.98 653.68,401.84 629.40,337.75 605.12,177.54 580.84,376.20 556.56,350.57 532.28,177.54 508.00,376.20 483.72,440.29 459.44,318.53 435.16,478.74 410.88,369.79 386.59,344.16 362.31,273.67 338.03,235.22 313.75,280.08 289.47,369.79 265.19,318.53 240.91,350.57 216.63,440.29 192.35,254.44 168.07,523.59 143.79,363.39 119.50,440.29 95.22,350.57 70.94,363.39" style="stroke-width: 0.00;stroke: none;stroke-linecap: butt;fill: #F8766D;fill-opacity: 0.10;" />
<polyline points="70.94,363.39 95.22,350.57 119.50,440.29 143.79,363.39 168.07,523.59 192.35,248.04 216.63,433.88 240.91,344.16 265.19,305.71 289.47,356.98 313.75,267.26 338.03,222.40 362.31,254.44 386.59,324.94 410.88,344.16 435.16,453.10 459.44,292.89 483.72,414.65 508.00,344.16 532.28,139.09 556.56,305.71 580.84,324.94 605.12,126.28 629.40,280.08 653.68,331.34 677.97,280.08 702.25,132.69 726.53,107.05" style="stroke-width: 1.07;stroke: none;stroke-linecap: butt;"/>
<polyline points="726.53,254.44 702.25,228.81 677.97,356.98 653.68,401.84 629.40,337.75 605.12,177.54 580.84,376.20 556.56,350.57 532.28,177.54 508.00,376.20 483.72,440.29 459.44,318.53 435.16,478.74 410.88,369.79 386.59,344.16 362.31,273.67 338.03,235.22 313.75,280.08 289.47,369.79 265.19,318.53 240.91,350.57 216.63,440.29 192.35,254.44 168.07,523.59 143.79,363.39 119.50,440.29 95.22,350.57 70.94,363.39" style="stroke-width: 1.07;stroke: none;stroke-linecap: butt;"/>
<polygon points="70.94,363.39 95.22,350.57 119.50,440.29 143.79,369.79 168.07,523.59 192.35,267.26 216.63,433.88 240.91,356.98 265.19,318.53 289.47,369.79 313.75,267.26 338.03,228.81 362.31,260.85 386.59,324.94 410.88,350.57 435.16,453.10 459.44,312.12 483.72,401.84 508.00,331.34 532.28,132.69 556.56,305.71 580.84,312.12 605.12,183.95 629.40,280.08 653.68,299.30 677.97,254.44 702.25,241.63 726.53,228.81 726.53,414.65 702.25,414.65 677.97,401.84 653.68,408.24 629.40,376.20 605.12,260.85 580.84,382.61 556.56,369.79 532.28,196.77 508.00,382.61 483.72,440.29 459.44,350.57 435.16,478.74 410.88,376.20 386.59,350.57 362.31,280.08 338.03,248.04 313.75,280.08 289.47,382.61 265.19,324.94 240.91,363.39 216.63,440.29 192.35,267.26 168.07,523.59 143.79,369.79 119.50,440.29 95.22,350.57 70.94,363.39" style="stroke-width: 0.00;stroke: none;stroke-linecap: butt;fill: #00BFC4;fill-opacity: 0.10;" />
<polyline points="70.94,363.39 95.22,350.57 119.50,440.29 143.79,369.79 168.07,523.59 192.35,267.26 216.63,433.88 240.91,356.98 265.19,318.53 289.47,369.79 313.75,267.26 338.03,228.81 362.31,260.85 386.59,324.94 410.88,350.57 435.16,453.10 459.44,312.12 483.72,401.84 508.00,331.34 532.28,132.69 556.56,305.71 580.84,312.12 605.12,183.95 629.40,280.08 653.68,299.30 677.97,254.44 702.25,241.63 726.53,228.81" style="stroke-width: 1.07;stroke: none;stroke-linecap: butt;"/>
<polyline points="726.53,414.65 702.25,414.65 677.97,401.84 653.68,408.24 629.40,376.20 605.12,260.85 580.84,382.61 556.56,369.79 532.28,196.77 508.00,382.61 483.72,440.29 459.44,350.57 435.16,478.74 410.88,376.20 386.59,350.57 362.31,280.08 338.03,248.04 313.75,280.08 289.47,382.61 265.19,324.94 240.91,363.39 216.63,440.29 192.35,267.26 168.07,523.59 143.79,369.79 119.50,440.29 95.22,350.57 70.94,363.39" style="stroke-width: 1.07;stroke: none;stroke-linecap: butt;"/>
<polyline points="70.94,363.39 95.22,350.51 119.50,440.07 143.79,362.90 168.07,522.71 192.35,252.77 216.63,437.47 240.91,346.15 265.19,313.01 289.47,363.34 313.75,270.97 338.03,229.47 362.31,263.54 386.59,333.79 410.88,358.45 435.16,465.20 459.44,307.87 483.72,426.51 508.00,357.14 532.28,160.05 556.56,324.97 580.84,352.48 605.12,152.68 629.40,305.86 653.68,366.86 677.97,318.70 702.25,180.40 726.53,179.89" style="stroke-width: 1.07;stroke: #F8766D; stroke-dasharray: 5.69, 5.69;stroke-linecap: butt;"/>
<polyline points="70.94,363.39 95.22,350.52 119.50,440.16 143.79,369.50 168.07,522.94 192.35,266.04 216.63,438.42 240.91,360.62 265.19,321.08 289.47,376.96 313.75,271.38 338.03,239.74 362.31,271.84 386.59,337.44 410.88,363.49 435.16,464.28 459.44,330.87 483.72,420.73 508.00,359.33 532.28,165.20 556.56,334.09 580.84,344.44 605.12,222.34 629.40,326.07 653.68,353.36 677.97,324.65 702.25,323.60 726.53,320.81" style="stroke-width: 1.07;stroke: #00BFC4; stroke-dasharray: 5.69, 5.69;stroke-linecap: butt;"/>
<polyline points="70.94,363.39 95.22,350.57 119.50,440.29 143.79,363.39 168.07,523.59 192.35,254.44 216.63,440.29 240.91,350.57 265.19,312.12 289.47,363.39 313.75,273.67 338.03,228.81 362.31,267.26 386.59,337.75 410.88,356.98 435.16,465.92 459.44,312.12 483.72,427.47 508.00,356.98 532.28,158.32 556.56,324.94 580.84,356.98 605.12,151.91 629.40,305.71 653.68,369.79 677.97,318.53 702.25,183.95 726.53,183.95" style="stroke-width: 1.07;stroke: #F8766D;stroke-linecap: butt;"/>
<polyline points="70.94,363.39 95.22,350.57 119.50,440.29 143.79,369.79 168.07,523.59 192.35,267.26 216.63,440.29 240.91,363.39 265.19,324.94 289.47,376.20 313.75,273.67 338.03,241.63 362.31,273.67 386.59,337.75 410.88,363.39 435.16,465.92 459.44,331.34 483.72,421.06 508.00,363.39 532.28,164.73 556.56,337.75 580.84,344.16 605.12,228.81 629.40,331.34 653.68,356.98 677.97,331.34 702.25,331.34 726.53,331.34" style="stroke-width: 1.07;stroke: #00BFC4;stroke-linecap: butt;"/>
<polygon points="70.94,363.39 95.22,350.57 119.50,440.29 143.79,356.98 168.07,517.19 192.35,248.04 216.63,427.47 240.91,337.75 265.19,299.30 289.47,350.57 313.75,254.44 338.03,215.99 362.31,248.04 386.59,312.12 410.88,331.34 435.16,440.29 459.44,280.08 483.72,395.43 508.00,324.94 532.28,119.87 556.56,280.08 580.84,299.30 605.12,100.64 629.40,248.04 653.68,299.30 677.97,235.22 702.25,75.01 726.53,30.15 726.53,312.12 702.25,273.67 677.97,395.43 653.68,427.47 629.40,356.98 605.12,203.18 580.84,401.84 556.56,363.39 532.28,196.77 508.00,389.02 483.72,453.10 459.44,331.34 435.16,485.14 410.88,382.61 386.59,350.57 362.31,280.08 338.03,241.63 313.75,280.08 289.47,369.79 265.19,318.53 240.91,350.57 216.63,440.29 192.35,254.44 168.07,523.59 143.79,363.39 119.50,440.29 95.22,350.57 70.94,363.39" style="stroke-width: 0.00;stroke: none;stroke-linecap: butt;fill: #F8766D;fill-opacity: 0.10;" />
<polyline points="70.94,363.39 95.22,350.57 119.50,440.29 143.79,356.98 168.07,517.19 192.35,248.04 216.63,427.47 240.91,337.75 265.19,299.30 289.47,350.57 313.75,254.44 338.03,215.99 362.31,248.04 386.59,312.12 410.88,331.34 435.16,440.29 459.44,280.08 483.72,395.43 508.00,324.94 532.28,119.87 556.56,280.08 580.84,299.30 605.12,100.64 629.40,248.04 653.68,299.30 677.97,235.22 702.25,75.01 726.53,30.15" style="stroke-width: 0.43;stroke: #F8766D;stroke-linecap: butt;"/>
<polyline points="726.53,312.12 702.25,273.67 677.97,395.43 653.68,427.47 629.40,356.98 605.12,203.18 580.84,401.84 556.56,363.39 532.28,196.77 508.00,389.02 483.72,453.10 459.44,331.34 435.16,485.14 410.88,382.61 386.59,350.57 362.31,280.08 338.03,241.63 313.75,280.08 289.47,369.79 265.19,318.53 240.91,350.57 216.63,440.29 192.35,254.44 168.07,523.59 143.79,363.39 119.50,440.29 95.22,350.57 70.94,363.39" style="stroke-width: 0.43;stroke: #F8766D;stroke-linecap: butt;"/>
<polygon points="70.94,363.39 95.22,350.57 119.50,440.29 143.79,369.79 168.07,517.19 192.35,260.85 216.63,433.88 240.91,350.57 265.19,312.12 289.47,363.39 313.75,260.85 338.03,222.40 362.31,248.04 386.59,312.12 410.88,337.75 435.16,433.88 459.44,292.89 483.72,376.20 508.00,305.71 532.28,100.64 556.56,267.26 580.84,267.26 605.12,139.09 629.40,228.81 653.68,235.22 677.97,164.73 702.25,132.69 726.53,113.46 726.53,491.55 702.25,485.14 677.97,459.51 653.68,453.10 629.40,408.24 605.12,299.30 580.84,408.24 556.56,395.43 532.28,222.40 508.00,408.24 483.72,453.42 459.44,363.39 435.16,491.55 410.88,389.02 386.59,356.98 362.31,286.49 338.03,254.44 313.75,280.08 289.47,382.61 265.19,324.94 240.91,363.39 216.63,440.29 192.35,267.26 168.07,523.59 143.79,369.79 119.50,440.29 95.22,350.57 70.94,363.39" style="stroke-width: 0.00;stroke: none;stroke-linecap: butt;fill: #00BFC4;fill-opacity: 0.10;" />
<polyline points="70.94,363.39 95.22,350.57 119.50,440.29 143.79,369.79 168.07,517.19 192.35,260.85 216.63,433.88 240.91,350.57 265.19,312.12 289.47,363.39 313.75,260.85 338.03,222.40 362.31,248.04 386.59,312.12 410.88,337.75 435.16,433.88 459.44,292.89 483.72,376.20 508.00,305.71 532.28,100.64 556.56,267.26 580.84,267.26 605.12,139.09 629.40,228.81 653.68,235.22 677.97,164.73 702.25,132.69 726.53,113.46" style="stroke-width: 0.43;stroke: #00BFC4;stroke-linecap: butt;"/>
<polyline points="726.53,491.55 702.25,485.14 677.97,459.51 653.68,453.10 629.40,408.24 605.12,299.30 580.84,408.24 556.56,395.43 532.28,222.40 508.00,408.24 483.72,453.42 459.44,363.39 435.16,491.55 410.88,389.02 386.59,356.98 362.31,286.49 338.03,254.44 313.75,280.08 289.47,382.61 265.19,324.94 240.91,363.39 216.63,440.29 192.35,267.26 168.07,523.59 143.79,369.79 119.50,440.29 95.22,350.57 70.94,363.39" style="stroke-width: 0.43;stroke: #00BFC4;stroke-linecap: butt;"/>
<polygon points="70.94,363.39 95.22,350.57 119.50,440.29 143.79,363.39 168.07,523.59 192.35,248.04 216.63,433.88 240.91,344.16 265.19,305.71 289.47,356.98 313.75,267.26 338.03,222.40 362.31,254.44 386.59,324.94 410.88,344.16 435.16,453.10 459.44,292.89 483.72,414.65 508.00,344.16 532.28,139.09 556.56,305.71 580.84,324.94 605.12,126.28 629.40,280.08 653.68,331.34 677.97,280.08 702.25,132.69 726.53,107.05 726.53,254.44 702.25,228.81 677.97,356.98 653.68,401.84 629.40,337.75 605.12,177.54 580.84,376.20 556.56,350.57 532.28,177.54 508.00,376.20 483.72,440.29 459.44,318.53 435.16,478.74 410.88,369.79 386.59,344.16 362.31,273.67 338.03,235.22 313.75,280.08 289.47,369.79 265.19,318.53 240.91,350.57 216.63,440.29 192.35,254.44 168.07,523.59 143.79,363.39 119.50,440.29 95.22,350.57 70.94,363.39" style="stroke-width: 0.00;stroke: none;stroke-linecap: butt;fill: #F8766D;fill-opacity: 0.10;" />
<polyline points="70.94,363.39 95.22,350.57 119.50,440.29 143.79,363.39 168.07,523.59 192.35,248.04 216.63,433.88 240.91,344.16 265.19,305.71 289.47,356.98 313.75,267.26 338.03,222.40 362.31,254.44 386.59,324.94 410.88,344.16 435.16,453.10 459.44,292.89 483.72,414.65 508.00,344.16 532.28,139.09 556.56,305.71 580.84,324.94 605.12,126.28 629.40,280.08 653.68,331.34 677.97,280.08 702.25,132.69 726.53,107.05" style="stroke-width: 1.07;stroke: none;stroke-linecap: butt;"/>
<polyline points="726.53,254.44 702.25,228.81 677.97,356.98 653.68,401.84 629.40,337.75 605.12,177.54 580.84,376.20 556.56,350.57 532.28,177.54 508.00,376.20 483.72,440.29 459.44,318.53 435.16,478.74 410.88,369.79 386.59,344.16 362.31,273.67 338.03,235.22 313.75,280.08 289.47,369.79 265.19,318.53 240.91,350.57 216.63,440.29 192.35,254.44 168.07,523.59 143.79,363.39 119.50,440.29 95.22,350.57 70.94,363.39" style="stroke-width: 1.07;stroke: none;stroke-linecap: butt;"/>
<polygon points="70.94,363.39 95.22,350.57 119.50,440.29 143.79,369.79 168.07,523.59 192.35,267.26 216.63,433.88 240.91,356.98 265.19,318.53 289.47,369.79 313.75,267.26 338.03,228.81 362.31,260.85 386.59,324.94 410.88,350.57 435.16,453.10 459.44,312.12 483.72,401.84 508.00,331.34 532.28,132.69 556.56,305.71 580.84,312.12 605.12,183.95 629.40,280.08 653.68,299.30 677.97,254.44 702.25,241.63 726.53,228.81 726.53,414.65 702.25,414.65 677.97,401.84 653.68,408.24 629.40,376.20 605.12,260.85 580.84,382.61 556.56,369.79 532.28,196.77 508.00,382.61 483.72,440.29 459.44,350.57 435.16,478.74 410.88,376.20 386.59,350.57 362.31,280.08 338.03,248.04 313.75,280.08 289.47,382.61 265.19,324.94 240.91,363.39 216.63,440.29 192.35,267.26 168.07,523.59 143.79,369.79 119.50,440.29 95.22,350.57 70.94,363.39" style="stroke-width: 0.00;stroke: none;stroke-linecap: butt;fill: #00BFC4;fill-opacity: 0.10;" />
<polyline points="70.94,363.39 95.22,350.57 119.50,440.29 143.79,369.79 168.07,523.59 192.35,267.26 216.63,433.88 240.91,356.98 265.19,318.53 289.47,369.79 313.75,267.26 338.03,228.81 362.31,260.85 386.59,324.94 410.88,350.57 435.16,453.10 459.44,312.12 483.72,401.84 508.00,331.34 532.28,132.69 556.56,305.71 580.84,312.12 605.12,183.95 629.40,280.08 653.68,299.30 677.97,254.44 702.25,241.63 726.53,228.81" style="stroke-width: 1.07;stroke: none;stroke-linecap: butt;"/>
<polyline points="726.53,414.65 702.25,414.65 677.97,401.84 653.68,408.24 629.40,376.20 605.12,260.85 580.84,382.61 556.56,369.79 532.28,196.77 508.00,382.61 483.72,440.29 459.44,350.57 435.16,478.74 410.88,376.20 386.59,350.57 362.31,280.08 338.03,248.04 313.75,280.08 289.47,382.61 265.19,324.94 240.91,363.39 216.63,440.29 192.35,267.26 168.07,523.59 143.79,369.79 119.50,440.29 95.22,350.57 70.94,363.39" style="stroke-width: 1.07;stroke: none;stroke-linecap: butt;"/>
<polygon points="70.94,360.35 73.58,364.91 68.31,364.91" style="stroke-width: 0.71;" />
<polygon points="95.22,347.53 97.86,352.09 92.59,352.09" style="stroke-width: 0.71;" />
<polygon points="119.50,437.25 122.14,441.81 116.87,441.81" style="stroke-width: 0.71;" />
<polygon points="143.79,366.75 146.42,371.31 141.15,371.31" style="stroke-width: 0.71;" />
<polygon points="168.07,514.15 170.70,518.71 165.43,518.71" style="stroke-width: 0.71;" />
<polygon points="192.35,251.40 194.98,255.96 189.71,255.96" style="stroke-width: 0.71;" />
<polygon points="216.63,437.25 219.26,441.81 214.00,441.81" style="stroke-width: 0.71;" />
<polygon points="240.91,347.53 243.54,352.09 238.28,352.09" style="stroke-width: 0.71;" />
<polygon points="265.19,315.49 267.82,320.05 262.56,320.05" style="stroke-width: 0.71;" />
<polygon points="289.47,360.35 292.10,364.91 286.84,364.91" style="stroke-width: 0.71;" />
<polygon points="313.75,257.81 316.38,262.37 311.12,262.37" style="stroke-width: 0.71;" />
<polygon points="338.03,225.77 340.67,230.33 335.40,230.33" style="stroke-width: 0.71;" />
<polygon points="362.31,264.22 364.95,268.78 359.68,268.78" style="stroke-width: 0.71;" />
<polygon points="386.59,341.12 389.23,345.68 383.96,345.68" style="stroke-width: 0.71;" />
<polygon points="410.88,373.16 413.51,377.72 408.24,377.72" style="stroke-width: 0.71;" />
<polygon points="435.16,475.70 437.79,480.26 432.52,480.26" style="stroke-width: 0.71;" />
<polygon points="459.44,315.49 462.07,320.05 456.80,320.05" style="stroke-width: 0.71;" />
<polygon points="483.72,424.43 486.35,428.99 481.09,428.99" style="stroke-width: 0.71;" />
<polygon points="508.00,334.71 510.63,339.27 505.37,339.27" style="stroke-width: 0.71;" />
<polygon points="532.28,180.91 534.91,185.47 529.65,185.47" style="stroke-width: 0.71;" />
<polygon points="556.56,296.26 559.19,300.82 553.93,300.82" style="stroke-width: 0.71;" />
<polygon points="580.84,341.12 583.47,345.68 578.21,345.68" style="stroke-width: 0.71;" />
<polygon points="605.12,155.28 607.76,159.84 602.49,159.84" style="stroke-width: 0.71;" />
<polygon points="629.40,270.63 632.04,275.19 626.77,275.19" style="stroke-width: 0.71;" />
<polygon points="653.68,398.80 656.32,403.36 651.05,403.36" style="stroke-width: 0.71;" />
<polygon points="677.97,353.94 680.60,358.50 675.33,358.50" style="stroke-width: 0.71;" />
<polygon points="702.25,174.50 704.88,179.06 699.61,179.06" style="stroke-width: 0.71;" />
<polygon points="726.53,302.67 729.16,307.23 723.89,307.23" style="stroke-width: 0.71;" />
<rect x="38.16" y="5.48" width="721.14" height="542.79" style="stroke-width: 1.07;stroke: #333333;"/>
</g><g clip-path="url(#c2)">
<g><text x="33.23" y="437.03" text-anchor="end" style="font-family: Arial;font-size: 8.80px;fill: #4D4D4D;" textLength="9.79px" lengthAdjust="spacingAndGlyphs">60</text></g>
<g><text x="33.23" y="308.86" text-anchor="end" style="font-family: Arial;font-size: 8.80px;fill: #4D4D4D;" textLength="9.79px" lengthAdjust="spacingAndGlyphs">80</text></g>
<g><text x="33.23" y="180.70" text-anchor="end" style="font-family: Arial;font-size: 8.80px;fill: #4D4D4D;" textLength="14.69px" lengthAdjust="spacingAndGlyphs">100</text></g>
<g><text x="33.23" y="52.53" text-anchor="end" style="font-family: Arial;font-size: 8.80px;fill: #4D4D4D;" textLength="14.69px" lengthAdjust="spacingAndGlyphs">120</text></g>
<polyline points="35.42,433.88 38.16,433.88" style="stroke-width: 1.07;stroke: #333333;stroke-linecap: butt;"/>
<polyline points="35.42,305.71 38.16,305.71" style="stroke-width: 1.07;stroke: #333333;stroke-linecap: butt;"/>
<polyline points="35.42,177.54 38.16,177.54" style="stroke-width: 1.07;stroke: #333333;stroke-linecap: butt;"/>
<polyline points="35.42,49.38 38.16,49.38" style="stroke-width: 1.07;stroke: #333333;stroke-linecap: butt;"/>
<polyline points="119.50,551.01 119.50,548.27" style="stroke-width: 1.07;stroke: #333333;stroke-linecap: butt;"/>
<polyline points="289.47,551.01 289.47,548.27" style="stroke-width: 1.07;stroke: #333333;stroke-linecap: butt;"/>
<polyline points="459.44,551.01 459.44,548.27" style="stroke-width: 1.07;stroke: #333333;stroke-linecap: butt;"/>
<polyline points="629.40,551.01 629.40,548.27" style="stroke-width: 1.07;stroke: #333333;stroke-linecap: butt;"/>
<g><text x="119.50" y="559.50" text-anchor="middle" style="font-family: Arial;font-size: 8.80px;fill: #4D4D4D;" textLength="25.93px" lengthAdjust="spacingAndGlyphs">Apr 01</text></g>
<g><text x="289.47" y="559.50" text-anchor="middle" style="font-family: Arial;font-size: 8.80px;fill: #4D4D4D;" textLength="25.93px" lengthAdjust="spacingAndGlyphs">Apr 08</text></g>
<g><text x="459.44" y="559.50" text-anchor="middle" style="font-family: Arial;font-size: 8.80px;fill: #4D4D4D;" textLength="25.93px" lengthAdjust="spacingAndGlyphs">Apr 15</text></g>
<g><text x="629.40" y="559.50" text-anchor="middle" style="font-family: Arial;font-size: 8.80px;fill: #4D4D4D;" textLength="25.93px" lengthAdjust="spacingAndGlyphs">Apr 22</text></g>
<g><text x="398.73" y="572.09" text-anchor="middle" style="font-family: Arial;font-size: 11.00px;" textLength="23.23px" lengthAdjust="spacingAndGlyphs">Date</text></g>
<g><text transform="translate(13.37,276.87) rotate(-90.00)" text-anchor="middle" style="font-family: Arial;font-size: 11.00px;" textLength="99.04px" lengthAdjust="spacingAndGlyphs">Hospital Admissions</text></g>
<rect x="770.27" y="246.21" width="75.26" height="61.32" style="stroke-width: 1.07;stroke: none;fill: #FFFFFF;"/>
<g><text x="775.74" y="260.80" style="font-family: Arial;font-size: 11.00px;" textLength="29.97px" lengthAdjust="spacingAndGlyphs">Model</text></g>
<rect x="775.74" y="267.49" width="17.28" height="17.28" style="stroke-width: 1.07;stroke: none;fill: #FFFFFF;"/>
<line x1="777.47" y1="276.13" x2="791.30" y2="276.13" style="stroke-width: 1.07;stroke: #F8766D; stroke-dasharray: 5.69, 5.69;stroke-linecap: butt;"/>
<line x1="777.47" y1="276.13" x2="791.30" y2="276.13" style="stroke-width: 1.07;stroke: #F8766D;stroke-linecap: butt;"/>
<rect x="776.03" y="267.78" width="16.71" height="16.71" style="stroke-width: 0.43;stroke: #F8766D;stroke-linecap: butt;stroke-linejoin: miter;fill: #F8766D;fill-opacity: 0.10;"/>
<rect x="776.45" y="268.20" width="15.86" height="15.86" style="stroke-width: 1.07;stroke: none;stroke-linecap: butt;stroke-linejoin: miter;fill: #F8766D;fill-opacity: 0.10;"/>
<line x1="777.47" y1="276.13" x2="791.30" y2="276.13" style="stroke-width: 1.07;stroke: #F8766D; stroke-dasharray: 5.69, 5.69;stroke-linecap: butt;"/>
<line x1="777.47" y1="276.13" x2="791.30" y2="276.13" style="stroke-width: 1.07;stroke: #F8766D;stroke-linecap: butt;"/>
<rect x="776.03" y="267.78" width="16.71" height="16.71" style="stroke-width: 0.43;stroke: #F8766D;stroke-linecap: butt;stroke-linejoin: miter;fill: #F8766D;fill-opacity: 0.10;"/>
<rect x="776.45" y="268.20" width="15.86" height="15.86" style="stroke-width: 1.07;stroke: none;stroke-linecap: butt;stroke-linejoin: miter;fill: #F8766D;fill-opacity: 0.10;"/>
<rect x="775.74" y="284.77" width="17.28" height="17.28" style="stroke-width: 1.07;stroke: none;fill: #FFFFFF;"/>
<line x1="777.47" y1="293.41" x2="791.30" y2="293.41" style="stroke-width: 1.07;stroke: #00BFC4; stroke-dasharray: 5.69, 5.69;stroke-linecap: butt;"/>
<line x1="777.47" y1="293.41" x2="791.30" y2="293.41" style="stroke-width: 1.07;stroke: #00BFC4;stroke-linecap: butt;"/>
<rect x="776.03" y="285.06" width="16.71" height="16.71" style="stroke-width: 0.43;stroke: #00BFC4;stroke-linecap: butt;stroke-linejoin: miter;fill: #00BFC4;fill-opacity: 0.10;"/>
<rect x="776.45" y="285.48" width="15.86" height="15.86" style="stroke-width: 1.07;stroke: none;stroke-linecap: butt;stroke-linejoin: miter;fill: #00BFC4;fill-opacity: 0.10;"/>
<line x1="777.47" y1="293.41" x2="791.30" y2="293.41" style="stroke-width: 1.07;stroke: #00BFC4; stroke-dasharray: 5.69, 5.69;stroke-linecap: butt;"/>
<line x1="777.47" y1="293.41" x2="791.30" y2="293.41" style="stroke-width: 1.07;stroke: #00BFC4;stroke-linecap: butt;"/>
<rect x="776.03" y="285.06" width="16.71" height="16.71" style="stroke-width: 0.43;stroke: #00BFC4;stroke-linecap: butt;stroke-linejoin: miter;fill: #00BFC4;fill-opacity: 0.10;"/>
<rect x="776.45" y="285.48" width="15.86" height="15.86" style="stroke-width: 1.07;stroke: none;stroke-linecap: butt;stroke-linejoin: miter;fill: #00BFC4;fill-opacity: 0.10;"/>
<g><text x="798.50" y="279.29" style="font-family: Arial;font-size: 8.80px;" textLength="41.54px" lengthAdjust="spacingAndGlyphs">Daily/Daily</text></g>
<g><text x="798.50" y="296.57" style="font-family: Arial;font-size: 8.80px;" textLength="34.68px" lengthAdjust="spacingAndGlyphs">DOW Eff</text></g>
</g>
</svg>