<svg xmlns="http://www.w3.org/2000/svg" xmlns:xlink="http://www.w3.org/1999/xlink" class="httpgd" width="846.00" height="446.00" viewBox="0 0 846.00 446.00">
<defs>
  <style type='text/css'><![CDATA[
    .httpgd line, .httpgd polyline, .httpgd polygon, .httpgd path, .httpgd rect, .httpgd circle {
      fill: none;
      stroke: #000000;
      stroke-linecap: round;
      stroke-linejoin: round;
      stroke-miterlimit: 10.00;
    }
  ]]></style>
<clipPath id="c0"><rect x="0.00" y="0.00" width="846.00" height="446.00"/></clipPath>
<clipPath id="c1"><rect x="38.16" y="5.48" width="709.27" height="408.79"/></clipPath>
<clipPath id="c2"><rect x="0.00" y="0.00" width="846.00" height="446.00"/></clipPath>
</defs>
<rect width="100%" height="100%" style="stroke: none;fill: #FFFFFF;"/>
<g clip-path="url(#c0)">
<rect x="0.00" y="0.00" width="846.00" height="446.00" style="stroke-width: 1.07;stroke: #FFFFFF;fill: #FFFFFF;"/>
</g><g clip-path="url(#c1)">
<rect x="38.16" y="5.48" width="709.27" height="408.79" style="stroke-width: 1.07;stroke: none;fill: #FFFFFF;"/>
<polyline points="38.16,393.74 747.43,393.74" style="stroke-width: 0.53;stroke: #EBEBEB;stroke-linecap: butt;"/>
<polyline points="38.16,296.46 747.43,296.46" style="stroke-width: 0.53;stroke: #EBEBEB;stroke-linecap: butt;"/>
<polyline points="38.16,199.17 747.43,199.17" style="stroke-width: 0.53;stroke: #EBEBEB;stroke-linecap: butt;"/>
<polyline points="38.16,101.89 747.43,101.89" style="stroke-width: 0.53;stroke: #EBEBEB;stroke-linecap: butt;"/>
<polyline points="188.61,414.27 188.61,5.48" style="stroke-width: 0.53;stroke: #EBEBEB;stroke-linecap: butt;"/>
<polyline points="355.18,414.27 355.18,5.48" style="stroke-width: 0.53;stroke: #EBEBEB;stroke-linecap: butt;"/>
<polyline points="521.75,414.27 521.75,5.48" style="stroke-width: 0.53;stroke: #EBEBEB;stroke-linecap: butt;"/>
<polyline points="682.95,414.27 682.95,5.48" style="stroke-width: 0.53;stroke: #EBEBEB;stroke-linecap: butt;"/>
<polyline points="38.16,345.10 747.43,345.10" style="stroke-width: 1.07;stroke: #EBEBEB;stroke-linecap: butt;"/>
<polyline points="38.16,247.81 747.43,247.81" style="stroke-width: 1.07;stroke: #EBEBEB;stroke-linecap: butt;"/>
<polyline points="38.16,150.53 747.43,150.53" style="stroke-width: 1.07;stroke: #EBEBEB;stroke-linecap: butt;"/>
<polyline points="38.16,53.25 747.43,53.25" style="stroke-width: 1.07;stroke: #EBEBEB;stroke-linecap: butt;"/>
<polyline points="113.39,414.27 113.39,5.48" style="stroke-width: 1.07;stroke: #EBEBEB;stroke-linecap: butt;"/>
<polyline points="263.84,414.27 263.84,5.48" style="stroke-width: 1.07;stroke: #EBEBEB;stroke-linecap: butt;"/>
<polyline points="446.53,414.27 446.53,5.48" style="stroke-width: 1.07;stroke: #EBEBEB;stroke-linecap: butt;"/>
<polyline points="596.98,414.27 596.98,5.48" style="stroke-width: 1.07;stroke: #EBEBEB;stroke-linecap: butt;"/>
<circle cx="70.40" cy="24.06" r="1.95" style="stroke-width: 0.71;stroke: #F8766D;fill: #F8766D;"/>
<circle cx="81.15" cy="72.70" r="1.95" style="stroke-width: 0.71;stroke: #F8766D;fill: #F8766D;"/>
<circle cx="91.90" cy="41.57" r="1.95" style="stroke-width: 0.71;stroke: #F8766D;fill: #F8766D;"/>
<circle cx="102.64" cy="131.07" r="1.95" style="stroke-width: 0.71;stroke: #F8766D;fill: #F8766D;"/>
<circle cx="113.39" cy="117.45" r="1.95" style="stroke-width: 0.71;stroke: #F8766D;fill: #F8766D;"/>
<circle cx="124.14" cy="183.61" r="1.95" style="stroke-width: 0.71;stroke: #F8766D;fill: #F8766D;"/>
<circle cx="134.88" cy="156.37" r="1.95" style="stroke-width: 0.71;stroke: #F8766D;fill: #F8766D;"/>
<circle cx="145.63" cy="158.31" r="1.95" style="stroke-width: 0.71;stroke: #F8766D;fill: #F8766D;"/>
<circle cx="156.37" cy="121.34" r="1.95" style="stroke-width: 0.71;stroke: #F8766D;fill: #F8766D;"/>
<circle cx="167.12" cy="210.85" r="1.95" style="stroke-width: 0.71;stroke: #F8766D;fill: #F8766D;"/>
<circle cx="177.87" cy="224.47" r="1.95" style="stroke-width: 0.71;stroke: #F8766D;fill: #F8766D;"/>
<circle cx="188.61" cy="197.23" r="1.95" style="stroke-width: 0.71;stroke: #F8766D;fill: #F8766D;"/>
<circle cx="199.36" cy="251.70" r="1.95" style="stroke-width: 0.71;stroke: #F8766D;fill: #F8766D;"/>
<circle cx="210.11" cy="265.32" r="1.95" style="stroke-width: 0.71;stroke: #F8766D;fill: #F8766D;"/>
<circle cx="220.85" cy="238.09" r="1.95" style="stroke-width: 0.71;stroke: #F8766D;fill: #F8766D;"/>
<circle cx="231.60" cy="300.35" r="1.95" style="stroke-width: 0.71;stroke: #F8766D;fill: #F8766D;"/>
<circle cx="242.35" cy="257.54" r="1.95" style="stroke-width: 0.71;stroke: #F8766D;fill: #F8766D;"/>
<circle cx="253.09" cy="313.97" r="1.95" style="stroke-width: 0.71;stroke: #F8766D;fill: #F8766D;"/>
<circle cx="263.84" cy="304.24" r="1.95" style="stroke-width: 0.71;stroke: #F8766D;fill: #F8766D;"/>
<circle cx="274.59" cy="286.73" r="1.95" style="stroke-width: 0.71;stroke: #F8766D;fill: #F8766D;"/>
<circle cx="285.33" cy="292.56" r="1.95" style="stroke-width: 0.71;stroke: #F8766D;fill: #F8766D;"/>
<circle cx="296.08" cy="267.27" r="1.95" style="stroke-width: 0.71;stroke: #F8766D;fill: #F8766D;"/>
<circle cx="306.83" cy="249.76" r="1.95" style="stroke-width: 0.71;stroke: #F8766D;fill: #F8766D;"/>
<circle cx="317.57" cy="310.08" r="1.95" style="stroke-width: 0.71;stroke: #F8766D;fill: #F8766D;"/>
<circle cx="328.32" cy="288.67" r="1.95" style="stroke-width: 0.71;stroke: #F8766D;fill: #F8766D;"/>
<circle cx="339.06" cy="304.24" r="1.95" style="stroke-width: 0.71;stroke: #F8766D;fill: #F8766D;"/>
<circle cx="349.81" cy="257.54" r="1.95" style="stroke-width: 0.71;stroke: #F8766D;fill: #F8766D;"/>
<circle cx="360.56" cy="312.02" r="1.95" style="stroke-width: 0.71;stroke: #F8766D;fill: #F8766D;"/>
<circle cx="371.30" cy="306.18" r="1.95" style="stroke-width: 0.71;stroke: #F8766D;fill: #F8766D;"/>
<circle cx="382.05" cy="333.42" r="1.95" style="stroke-width: 0.71;stroke: #F8766D;fill: #F8766D;"/>
<circle cx="392.80" cy="298.40" r="1.95" style="stroke-width: 0.71;stroke: #F8766D;fill: #F8766D;"/>
<circle cx="403.54" cy="312.02" r="1.95" style="stroke-width: 0.71;stroke: #F8766D;fill: #F8766D;"/>
<circle cx="414.29" cy="300.35" r="1.95" style="stroke-width: 0.71;stroke: #F8766D;fill: #F8766D;"/>
<circle cx="425.04" cy="304.24" r="1.95" style="stroke-width: 0.71;stroke: #F8766D;fill: #F8766D;"/>
<circle cx="435.78" cy="300.35" r="1.95" style="stroke-width: 0.71;stroke: #F8766D;fill: #F8766D;"/>
<circle cx="446.53" cy="327.59" r="1.95" style="stroke-width: 0.71;stroke: #F8766D;fill: #F8766D;"/>
<circle cx="457.28" cy="304.24" r="1.95" style="stroke-width: 0.71;stroke: #F8766D;fill: #F8766D;"/>
<circle cx="468.02" cy="352.88" r="1.95" style="stroke-width: 0.71;stroke: #F8766D;fill: #F8766D;"/>
<circle cx="478.77" cy="271.16" r="1.95" style="stroke-width: 0.71;stroke: #F8766D;fill: #F8766D;"/>
<circle cx="489.52" cy="327.59" r="1.95" style="stroke-width: 0.71;stroke: #F8766D;fill: #F8766D;"/>
<circle cx="500.26" cy="300.35" r="1.95" style="stroke-width: 0.71;stroke: #F8766D;fill: #F8766D;"/>
<circle cx="511.01" cy="290.62" r="1.95" style="stroke-width: 0.71;stroke: #F8766D;fill: #F8766D;"/>
<circle cx="521.75" cy="306.18" r="1.95" style="stroke-width: 0.71;stroke: #F8766D;fill: #F8766D;"/>
<circle cx="532.50" cy="278.94" r="1.95" style="stroke-width: 0.71;stroke: #F8766D;fill: #F8766D;"/>
<circle cx="543.25" cy="267.27" r="1.95" style="stroke-width: 0.71;stroke: #F8766D;fill: #F8766D;"/>
<circle cx="553.99" cy="278.94" r="1.95" style="stroke-width: 0.71;stroke: #F8766D;fill: #F8766D;"/>
<circle cx="564.74" cy="302.29" r="1.95" style="stroke-width: 0.71;stroke: #F8766D;fill: #F8766D;"/>
<circle cx="575.49" cy="312.02" r="1.95" style="stroke-width: 0.71;stroke: #F8766D;fill: #F8766D;"/>
<circle cx="586.23" cy="345.10" r="1.95" style="stroke-width: 0.71;stroke: #F8766D;fill: #F8766D;"/>
<circle cx="596.98" cy="298.40" r="1.95" style="stroke-width: 0.71;stroke: #F8766D;fill: #F8766D;"/>
<circle cx="607.73" cy="337.31" r="1.95" style="stroke-width: 0.71;stroke: #F8766D;fill: #F8766D;"/>
<circle cx="618.47" cy="319.80" r="1.95" style="stroke-width: 0.71;stroke: #F8766D;fill: #F8766D;"/>
<circle cx="629.22" cy="265.32" r="1.95" style="stroke-width: 0.71;stroke: #F8766D;fill: #F8766D;"/>
<circle cx="639.97" cy="323.69" r="1.95" style="stroke-width: 0.71;stroke: #F8766D;fill: #F8766D;"/>
<circle cx="650.71" cy="341.21" r="1.95" style="stroke-width: 0.71;stroke: #F8766D;fill: #F8766D;"/>
<circle cx="661.46" cy="282.84" r="1.95" style="stroke-width: 0.71;stroke: #F8766D;fill: #F8766D;"/>
<circle cx="672.21" cy="333.42" r="1.95" style="stroke-width: 0.71;stroke: #F8766D;fill: #F8766D;"/>
<circle cx="682.95" cy="364.55" r="1.95" style="stroke-width: 0.71;stroke: #F8766D;fill: #F8766D;"/>
<circle cx="693.70" cy="366.50" r="1.95" style="stroke-width: 0.71;stroke: #F8766D;fill: #F8766D;"/>
<circle cx="704.44" cy="348.99" r="1.95" style="stroke-width: 0.71;stroke: #F8766D;fill: #F8766D;"/>
<circle cx="715.19" cy="395.68" r="1.95" style="stroke-width: 0.71;stroke: #F8766D;fill: #F8766D;"/>
<circle cx="70.40" cy="24.06" r="1.95" style="stroke-width: 0.71;stroke: #00BFC4;fill: #00BFC4;"/>
<circle cx="81.15" cy="72.70" r="1.95" style="stroke-width: 0.71;stroke: #00BFC4;fill: #00BFC4;"/>
<circle cx="91.90" cy="41.57" r="1.95" style="stroke-width: 0.71;stroke: #00BFC4;fill: #00BFC4;"/>
<circle cx="102.64" cy="131.07" r="1.95" style="stroke-width: 0.71;stroke: #00BFC4;fill: #00BFC4;"/>
<circle cx="113.39" cy="117.45" r="1.95" style="stroke-width: 0.71;stroke: #00BFC4;fill: #00BFC4;"/>
<circle cx="124.14" cy="183.61" r="1.95" style="stroke-width: 0.71;stroke: #00BFC4;fill: #00BFC4;"/>
<circle cx="134.88" cy="156.37" r="1.95" style="stroke-width: 0.71;stroke: #00BFC4;fill: #00BFC4;"/>
<circle cx="145.63" cy="158.31" r="1.95" style="stroke-width: 0.71;stroke: #00BFC4;fill: #00BFC4;"/>
<circle cx="156.37" cy="121.34" r="1.95" style="stroke-width: 0.71;stroke: #00BFC4;fill: #00BFC4;"/>
<circle cx="167.12" cy="210.85" r="1.95" style="stroke-width: 0.71;stroke: #00BFC4;fill: #00BFC4;"/>
<circle cx="177.87" cy="224.47" r="1.95" style="stroke-width: 0.71;stroke: #00BFC4;fill: #00BFC4;"/>
<circle cx="188.61" cy="199.17" r="1.95" style="stroke-width: 0.71;stroke: #00BFC4;fill: #00BFC4;"/>
<circle cx="199.36" cy="253.65" r="1.95" style="stroke-width: 0.71;stroke: #00BFC4;fill: #00BFC4;"/>
<circle cx="210.11" cy="265.32" r="1.95" style="stroke-width: 0.71;stroke: #00BFC4;fill: #00BFC4;"/>
<circle cx="220.85" cy="240.03" r="1.95" style="stroke-width: 0.71;stroke: #00BFC4;fill: #00BFC4;"/>
<circle cx="231.60" cy="300.35" r="1.95" style="stroke-width: 0.71;stroke: #00BFC4;fill: #00BFC4;"/>
<circle cx="242.35" cy="255.60" r="1.95" style="stroke-width: 0.71;stroke: #00BFC4;fill: #00BFC4;"/>
<circle cx="253.09" cy="313.97" r="1.95" style="stroke-width: 0.71;stroke: #00BFC4;fill: #00BFC4;"/>
<circle cx="263.84" cy="304.24" r="1.95" style="stroke-width: 0.71;stroke: #00BFC4;fill: #00BFC4;"/>
<circle cx="274.59" cy="286.73" r="1.95" style="stroke-width: 0.71;stroke: #00BFC4;fill: #00BFC4;"/>
<circle cx="285.33" cy="296.46" r="1.95" style="stroke-width: 0.71;stroke: #00BFC4;fill: #00BFC4;"/>
<circle cx="296.08" cy="267.27" r="1.95" style="stroke-width: 0.71;stroke: #00BFC4;fill: #00BFC4;"/>
<circle cx="306.83" cy="251.70" r="1.95" style="stroke-width: 0.71;stroke: #00BFC4;fill: #00BFC4;"/>
<circle cx="317.57" cy="310.08" r="1.95" style="stroke-width: 0.71;stroke: #00BFC4;fill: #00BFC4;"/>
<circle cx="328.32" cy="288.67" r="1.95" style="stroke-width: 0.71;stroke: #00BFC4;fill: #00BFC4;"/>
<circle cx="339.06" cy="304.24" r="1.95" style="stroke-width: 0.71;stroke: #00BFC4;fill: #00BFC4;"/>
<circle cx="349.81" cy="259.49" r="1.95" style="stroke-width: 0.71;stroke: #00BFC4;fill: #00BFC4;"/>
<circle cx="360.56" cy="313.97" r="1.95" style="stroke-width: 0.71;stroke: #00BFC4;fill: #00BFC4;"/>
<circle cx="371.30" cy="306.18" r="1.95" style="stroke-width: 0.71;stroke: #00BFC4;fill: #00BFC4;"/>
<circle cx="382.05" cy="333.42" r="1.95" style="stroke-width: 0.71;stroke: #00BFC4;fill: #00BFC4;"/>
<circle cx="392.80" cy="298.40" r="1.95" style="stroke-width: 0.71;stroke: #00BFC4;fill: #00BFC4;"/>
<circle cx="403.54" cy="312.02" r="1.95" style="stroke-width: 0.71;stroke: #00BFC4;fill: #00BFC4;"/>
<circle cx="414.29" cy="300.35" r="1.95" style="stroke-width: 0.71;stroke: #00BFC4;fill: #00BFC4;"/>
<circle cx="425.04" cy="304.24" r="1.95" style="stroke-width: 0.71;stroke: #00BFC4;fill: #00BFC4;"/>
<circle cx="435.78" cy="300.35" r="1.95" style="stroke-width: 0.71;stroke: #00BFC4;fill: #00BFC4;"/>
<circle cx="446.53" cy="327.59" r="1.95" style="stroke-width: 0.71;stroke: #00BFC4;fill: #00BFC4;"/>
<circle cx="457.28" cy="306.18" r="1.95" style="stroke-width: 0.71;stroke: #00BFC4;fill: #00BFC4;"/>
<circle cx="468.02" cy="350.93" r="1.95" style="stroke-width: 0.71;stroke: #00BFC4;fill: #00BFC4;"/>
<circle cx="478.77" cy="271.16" r="1.95" style="stroke-width: 0.71;stroke: #00BFC4;fill: #00BFC4;"/>
<circle cx="489.52" cy="327.59" r="1.95" style="stroke-width: 0.71;stroke: #00BFC4;fill: #00BFC4;"/>
<circle cx="500.26" cy="300.35" r="1.95" style="stroke-width: 0.71;stroke: #00BFC4;fill: #00BFC4;"/>
<circle cx="511.01" cy="290.62" r="1.95" style="stroke-width: 0.71;stroke: #00BFC4;fill: #00BFC4;"/>
<circle cx="521.75" cy="304.24" r="1.95" style="stroke-width: 0.71;stroke: #00BFC4;fill: #00BFC4;"/>
<circle cx="532.50" cy="273.11" r="1.95" style="stroke-width: 0.71;stroke: #00BFC4;fill: #00BFC4;"/>
<circle cx="543.25" cy="263.38" r="1.95" style="stroke-width: 0.71;stroke: #00BFC4;fill: #00BFC4;"/>
<circle cx="553.99" cy="275.05" r="1.95" style="stroke-width: 0.71;stroke: #00BFC4;fill: #00BFC4;"/>
<circle cx="564.74" cy="298.40" r="1.95" style="stroke-width: 0.71;stroke: #00BFC4;fill: #00BFC4;"/>
<circle cx="575.49" cy="308.13" r="1.95" style="stroke-width: 0.71;stroke: #00BFC4;fill: #00BFC4;"/>
<circle cx="586.23" cy="339.26" r="1.95" style="stroke-width: 0.71;stroke: #00BFC4;fill: #00BFC4;"/>
<circle cx="596.98" cy="290.62" r="1.95" style="stroke-width: 0.71;stroke: #00BFC4;fill: #00BFC4;"/>
<circle cx="607.73" cy="323.69" r="1.95" style="stroke-width: 0.71;stroke: #00BFC4;fill: #00BFC4;"/>
<circle cx="618.47" cy="296.46" r="1.95" style="stroke-width: 0.71;stroke: #00BFC4;fill: #00BFC4;"/>
<circle cx="629.22" cy="249.76" r="1.95" style="stroke-width: 0.71;stroke: #00BFC4;fill: #00BFC4;"/>
<circle cx="639.97" cy="284.78" r="1.95" style="stroke-width: 0.71;stroke: #00BFC4;fill: #00BFC4;"/>
<circle cx="650.71" cy="298.40" r="1.95" style="stroke-width: 0.71;stroke: #00BFC4;fill: #00BFC4;"/>
<circle cx="661.46" cy="241.98" r="1.95" style="stroke-width: 0.71;stroke: #00BFC4;fill: #00BFC4;"/>
<circle cx="672.21" cy="277.00" r="1.95" style="stroke-width: 0.71;stroke: #00BFC4;fill: #00BFC4;"/>
<circle cx="682.95" cy="315.91" r="1.95" style="stroke-width: 0.71;stroke: #00BFC4;fill: #00BFC4;"/>
<circle cx="693.70" cy="302.29" r="1.95" style="stroke-width: 0.71;stroke: #00BFC4;fill: #00BFC4;"/>
<circle cx="704.44" cy="247.81" r="1.95" style="stroke-width: 0.71;stroke: #00BFC4;fill: #00BFC4;"/>
<circle cx="715.19" cy="286.73" r="1.95" style="stroke-width: 0.71;stroke: #00BFC4;fill: #00BFC4;"/>
<polyline points="70.40,24.06 81.15,72.70 91.90,41.57 102.64,131.07 113.39,117.45 124.14,183.61 134.88,156.37 145.63,158.31 156.37,121.34 167.12,210.85 177.87,224.47 188.61,197.23 199.36,251.70 210.11,265.32 220.85,238.09 231.60,300.35 242.35,257.54 253.09,313.97 263.84,304.24 274.59,286.73 285.33,292.56 296.08,267.27 306.83,249.76 317.57,310.08 328.32,288.67 339.06,304.24 349.81,257.54 360.56,312.02 371.30,306.18 382.05,333.42 392.80,298.40 403.54,312.02 414.29,300.35 425.04,304.24 435.78,300.35 446.53,327.59 457.28,304.24 468.02,352.88 478.77,271.16 489.52,327.59 500.26,300.35 511.01,290.62 521.75,306.18 532.50,278.94 543.25,267.27 553.99,278.94 564.74,302.29 575.49,312.02 586.23,345.10 596.98,298.40 607.73,337.31 618.47,319.80 629.22,265.32 639.97,323.69 650.71,341.21 661.46,282.84 672.21,333.42 682.95,364.55 693.70,366.50 704.44,348.99 715.19,395.68" style="stroke-width: 1.07;stroke: #F8766D;stroke-linecap: butt;"/>
<polyline points="70.40,24.06 81.15,72.70 91.90,41.57 102.64,131.07 113.39,117.45 124.14,183.61 134.88,156.37 145.63,158.31 156.37,121.34 167.12,210.85 177.87,224.47 188.61,199.17 199.36,253.65 210.11,265.32 220.85,240.03 231.60,300.35 242.35,255.60 253.09,313.97 263.84,304.24 274.59,286.73 285.33,296.46 296.08,267.27 306.83,251.70 317.57,310.08 328.32,288.67 339.06,304.24 349.81,259.49 360.56,313.97 371.30,306.18 382.05,333.42 392.80,298.40 403.54,312.02 414.29,300.35 425.04,304.24 435.78,300.35 446.53,327.59 457.28,306.18 468.02,350.93 478.77,271.16 489.52,327.59 500.26,300.35 511.01,290.62 521.75,304.24 532.50,273.11 543.25,263.38 553.99,275.05 564.74,298.40 575.49,308.13 586.23,339.26 596.98,290.62 607.73,323.69 618.47,296.46 629.22,249.76 639.97,284.78 650.71,298.40 661.46,241.98 672.21,277.00 682.95,315.91 693.70,302.29 704.44,247.81 715.19,286.73" style="stroke-width: 1.07;stroke: #00BFC4;stroke-linecap: butt;"/>
<rect x="38.16" y="5.48" width="709.27" height="408.79" style="stroke-width: 1.07;stroke: #333333;"/>
</g><g clip-path="url(#c2)">
<g><text x="33.23" y="348.25" text-anchor="end" style="font-family: Arial;font-size: 8.80px;fill: #4D4D4D;" textLength="9.79px" lengthAdjust="spacingAndGlyphs">50</text></g>
<g><text x="33.23" y="250.97" text-anchor="end" style="font-family: Arial;font-size: 8.80px;fill: #4D4D4D;" textLength="14.69px" lengthAdjust="spacingAndGlyphs">100</text></g>
<g><text x="33.23" y="153.68" text-anchor="end" style="font-family: Arial;font-size: 8.80px;fill: #4D4D4D;" textLength="14.69px" lengthAdjust="spacingAndGlyphs">150</text></g>
<g><text x="33.23" y="56.40" text-anchor="end" style="font-family: Arial;font-size: 8.80px;fill: #4D4D4D;" textLength="14.69px" lengthAdjust="spacingAndGlyphs">200</text></g>
<polyline points="35.42,345.10 38.16,345.10" style="stroke-width: 1.07;stroke: #333333;stroke-linecap: butt;"/>
<polyline points="35.42,247.81 38.16,247.81" style="stroke-width: 1.07;stroke: #333333;stroke-linecap: butt;"/>
<polyline points="35.42,150.53 38.16,150.53" style="stroke-width: 1.07;stroke: #333333;stroke-linecap: butt;"/>
<polyline points="35.42,53.25 38.16,53.25" style="stroke-width: 1.07;stroke: #333333;stroke-linecap: butt;"/>
<polyline points="113.39,417.01 113.39,414.27" style="stroke-width: 1.07;stroke: #333333;stroke-linecap: butt;"/>
<polyline points="263.84,417.01 263.84,414.27" style="stroke-width: 1.07;stroke: #333333;stroke-linecap: butt;"/>
<polyline points="446.53,417.01 446.53,414.27" style="stroke-width: 1.07;stroke: #333333;stroke-linecap: butt;"/>
<polyline points="596.98,417.01 596.98,414.27" style="stroke-width: 1.07;stroke: #333333;stroke-linecap: butt;"/>
<g><text x="113.39" y="425.50" text-anchor="middle" style="font-family: Arial;font-size: 8.80px;fill: #4D4D4D;" textLength="27.39px" lengthAdjust="spacingAndGlyphs">Mar 01</text></g>
<g><text x="263.84" y="425.50" text-anchor="middle" style="font-family: Arial;font-size: 8.80px;fill: #4D4D4D;" textLength="27.39px" lengthAdjust="spacingAndGlyphs">Mar 15</text></g>
<g><text x="446.53" y="425.50" text-anchor="middle" style="font-family: Arial;font-size: 8.80px;fill: #4D4D4D;" textLength="25.93px" lengthAdjust="spacingAndGlyphs">Apr 01</text></g>
<g><text x="596.98" y="425.50" text-anchor="middle" style="font-family: Arial;font-size: 8.80px;fill: #4D4D4D;" textLength="25.93px" lengthAdjust="spacingAndGlyphs">Apr 15</text></g>
<g><text x="392.80" y="438.09" text-anchor="middle" style="font-family: Arial;font-size: 11.00px;" textLength="23.23px" lengthAdjust="spacingAndGlyphs">Date</text></g>
<g><text transform="translate(13.37,209.87) rotate(-90.00)" text-anchor="middle" style="font-family: Arial;font-size: 11.00px;" textLength="99.04px" lengthAdjust="spacingAndGlyphs">Hospital Admissions</text></g>
<rect x="758.39" y="179.21" width="82.13" height="61.32" style="stroke-width: 1.07;stroke: none;fill: #FFFFFF;"/>
<g><text x="763.87" y="193.80" style="font-family: Arial;font-size: 11.00px;" textLength="37.91px" lengthAdjust="spacingAndGlyphs">Dataset</text></g>
<rect x="763.87" y="200.49" width="17.28" height="17.28" style="stroke-width: 1.07;stroke: none;fill: #FFFFFF;"/>
<circle cx="772.51" cy="209.13" r="1.95" style="stroke-width: 0.71;stroke: #F8766D;fill: #F8766D;"/>
<line x1="765.60" y1="209.13" x2="779.42" y2="209.13" style="stroke-width: 1.07;stroke: #F8766D;stroke-linecap: butt;"/>
<rect x="763.87" y="217.77" width="17.28" height="17.28" style="stroke-width: 1.07;stroke: none;fill: #FFFFFF;"/>
<circle cx="772.51" cy="226.41" r="1.95" style="stroke-width: 0.71;stroke: #00BFC4;fill: #00BFC4;"/>
<line x1="765.60" y1="226.41" x2="779.42" y2="226.41" style="stroke-width: 1.07;stroke: #00BFC4;stroke-linecap: butt;"/>
<g><text x="786.63" y="212.29" style="font-family: Arial;font-size: 8.80px;" textLength="48.41px" lengthAdjust="spacingAndGlyphs">As of Apr 26</text></g>
<g><text x="786.63" y="229.57" style="font-family: Arial;font-size: 8.80px;" textLength="23.97px" lengthAdjust="spacingAndGlyphs">Latest</text></g>
</g>
</svg>