<svg xmlns="http://www.w3.org/2000/svg" xmlns:xlink="http://www.w3.org/1999/xlink" class="httpgd" width="1058.00" height="830.00" viewBox="0 0 1058.00 830.00">
<defs>
  <style type='text/css'><![CDATA[
    .httpgd line, .httpgd polyline, .httpgd polygon, .httpgd path, .httpgd rect, .httpgd circle {
      fill: none;
      stroke: #000000;
      stroke-linecap: round;
      stroke-linejoin: round;
      stroke-miterlimit: 10.00;
    }
  ]]></style>
<clipPath id="c0"><rect x="0.00" y="0.00" width="1058.00" height="830.00"/></clipPath>
<clipPath id="c1"><rect x="38.16" y="22.50" width="321.39" height="216.63"/></clipPath>
<clipPath id="c2"><rect x="0.00" y="0.00" width="1058.00" height="830.00"/></clipPath>
<clipPath id="c3"><rect x="38.16" y="293.96" width="321.39" height="216.63"/></clipPath>
<clipPath id="c4"><rect x="0.00" y="0.00" width="1058.00" height="830.00"/></clipPath>
<clipPath id="c5"><rect x="38.16" y="563.96" width="321.39" height="216.63"/></clipPath>
<clipPath id="c6"><rect x="0.00" y="0.00" width="1058.00" height="830.00"/></clipPath>
<clipPath id="c7"><rect x="384.65" y="22.50" width="321.39" height="216.63"/></clipPath>
<clipPath id="c8"><rect x="0.00" y="0.00" width="1058.00" height="830.00"/></clipPath>
<clipPath id="c9"><rect x="384.65" y="293.96" width="321.39" height="216.63"/></clipPath>
<clipPath id="c10"><rect x="0.00" y="0.00" width="1058.00" height="830.00"/></clipPath>
<clipPath id="c11"><rect x="384.65" y="563.96" width="321.39" height="216.63"/></clipPath>
<clipPath id="c12"><rect x="0.00" y="0.00" width="1058.00" height="830.00"/></clipPath>
<clipPath id="c13"><rect x="731.13" y="22.50" width="321.39" height="216.63"/></clipPath>
<clipPath id="c14"><rect x="0.00" y="0.00" width="1058.00" height="830.00"/></clipPath>
<clipPath id="c15"><rect x="731.13" y="293.96" width="321.39" height="216.63"/></clipPath>
<clipPath id="c16"><rect x="0.00" y="0.00" width="1058.00" height="830.00"/></clipPath>
<clipPath id="c17"><rect x="731.13" y="563.96" width="321.39" height="216.63"/></clipPath>
<clipPath id="c18"><rect x="0.00" y="0.00" width="1058.00" height="830.00"/></clipPath>
<clipPath id="c19"><rect x="38.16" y="546.94" width="321.39" height="17.03"/></clipPath>
<clipPath id="c20"><rect x="0.00" y="0.00" width="1058.00" height="830.00"/></clipPath>
<clipPath id="c21"><rect x="384.65" y="546.94" width="321.39" height="17.03"/></clipPath>
<clipPath id="c22"><rect x="0.00" y="0.00" width="1058.00" height="830.00"/></clipPath>
<clipPath id="c23"><rect x="731.13" y="546.94" width="321.39" height="17.03"/></clipPath>
<clipPath id="c24"><rect x="0.00" y="0.00" width="1058.00" height="830.00"/></clipPath>
<clipPath id="c25"><rect x="38.16" y="276.94" width="321.39" height="17.03"/></clipPath>
<clipPath id="c26"><rect x="0.00" y="0.00" width="1058.00" height="830.00"/></clipPath>
<clipPath id="c27"><rect x="384.65" y="276.94" width="321.39" height="17.03"/></clipPath>
<clipPath id="c28"><rect x="0.00" y="0.00" width="1058.00" height="830.00"/></clipPath>
<clipPath id="c29"><rect x="731.13" y="276.94" width="321.39" height="17.03"/></clipPath>
<clipPath id="c30"><rect x="0.00" y="0.00" width="1058.00" height="830.00"/></clipPath>
<clipPath id="c31"><rect x="38.16" y="5.48" width="321.39" height="17.03"/></clipPath>
<clipPath id="c32"><rect x="0.00" y="0.00" width="1058.00" height="830.00"/></clipPath>
<clipPath id="c33"><rect x="384.65" y="5.48" width="321.39" height="17.03"/></clipPath>
<clipPath id="c34"><rect x="0.00" y="0.00" width="1058.00" height="830.00"/></clipPath>
<clipPath id="c35"><rect x="731.13" y="5.48" width="321.39" height="17.03"/></clipPath>
<clipPath id="c36"><rect x="0.00" y="0.00" width="1058.00" height="830.00"/></clipPath>
</defs>
<rect width="100%" height="100%" style="stroke: none;fill: #FFFFFF;"/>
<g clip-path="url(#c0)">
<rect x="-0.00" y="0.00" width="1058.00" height="830.00" style="stroke-width: 1.07;stroke: #FFFFFF;fill: #FFFFFF;"/>
</g><g clip-path="url(#c1)">
<rect x="38.16" y="22.50" width="321.39" height="216.63" style="stroke-width: 1.07;stroke: none;fill: #FFFFFF;"/>
<polyline points="38.16,203.05 359.55,203.05" style="stroke-width: 0.53;stroke: #EBEBEB;stroke-linecap: butt;"/>
<polyline points="38.16,145.39 359.55,145.39" style="stroke-width: 0.53;stroke: #EBEBEB;stroke-linecap: butt;"/>
<polyline points="38.16,87.72 359.55,87.72" style="stroke-width: 0.53;stroke: #EBEBEB;stroke-linecap: butt;"/>
<polyline points="38.16,30.06 359.55,30.06" style="stroke-width: 0.53;stroke: #EBEBEB;stroke-linecap: butt;"/>
<polyline points="73.64,239.14 73.64,22.50" style="stroke-width: 0.53;stroke: #EBEBEB;stroke-linecap: butt;"/>
<polyline points="171.03,239.14 171.03,22.50" style="stroke-width: 0.53;stroke: #EBEBEB;stroke-linecap: butt;"/>
<polyline points="268.42,239.14 268.42,22.50" style="stroke-width: 0.53;stroke: #EBEBEB;stroke-linecap: butt;"/>
<polyline points="38.16,231.89 359.55,231.89" style="stroke-width: 1.07;stroke: #EBEBEB;stroke-linecap: butt;"/>
<polyline points="38.16,174.22 359.55,174.22" style="stroke-width: 1.07;stroke: #EBEBEB;stroke-linecap: butt;"/>
<polyline points="38.16,116.56 359.55,116.56" style="stroke-width: 1.07;stroke: #EBEBEB;stroke-linecap: butt;"/>
<polyline points="38.16,58.89 359.55,58.89" style="stroke-width: 1.07;stroke: #EBEBEB;stroke-linecap: butt;"/>
<polyline points="122.34,239.14 122.34,22.50" style="stroke-width: 1.07;stroke: #EBEBEB;stroke-linecap: butt;"/>
<polyline points="219.73,239.14 219.73,22.50" style="stroke-width: 1.07;stroke: #EBEBEB;stroke-linecap: butt;"/>
<polyline points="317.12,239.14 317.12,22.50" style="stroke-width: 1.07;stroke: #EBEBEB;stroke-linecap: butt;"/>
<circle cx="52.77" cy="75.90" r="1.53" style="stroke-width: 0.71;stroke: #000000;stroke-opacity: 0.70;fill: #000000;fill-opacity: 0.70;"/>
<circle cx="150.16" cy="119.15" r="1.53" style="stroke-width: 0.71;stroke: #000000;stroke-opacity: 0.70;fill: #000000;fill-opacity: 0.70;"/>
<circle cx="247.55" cy="208.24" r="1.53" style="stroke-width: 0.71;stroke: #000000;stroke-opacity: 0.70;fill: #000000;fill-opacity: 0.70;"/>
<circle cx="344.94" cy="225.54" r="1.53" style="stroke-width: 0.71;stroke: #000000;stroke-opacity: 0.70;fill: #000000;fill-opacity: 0.70;"/>
<polyline points="52.77,126.65 150.16,108.48 247.55,209.97 344.94,226.12" style="stroke-width: 2.13;stroke: #000000;stroke-opacity: 0.60;stroke-linecap: butt;"/>
<polyline points="52.77,123.18 150.16,104.43 247.55,208.92 344.94,225.77" style="stroke-width: 1.07; stroke-dasharray: 5.69, 5.69;stroke-linecap: butt;"/>
<polygon points="52.77,60.90 150.16,32.35 247.55,193.83 344.94,221.22 344.94,229.29 247.55,220.35 150.16,163.57 52.77,173.93" style="stroke-width: 0.00;stroke: none;stroke-linecap: butt;fill: #333333;fill-opacity: 0.20;" />
<polyline points="52.77,60.90 150.16,32.35 247.55,193.83 344.94,221.22" style="stroke-width: 0.43;stroke: none;stroke-linecap: butt;"/>
<polyline points="344.94,229.29 247.55,220.35 150.16,163.57 52.77,173.93" style="stroke-width: 0.43;stroke: none;stroke-linecap: butt;"/>
<polygon points="52.77,95.51 150.16,74.46 247.55,203.05 344.94,223.81 344.94,227.85 247.55,215.74 150.16,138.18 52.77,152.60" style="stroke-width: 0.00;stroke: none;stroke-linecap: butt;fill: #333333;fill-opacity: 0.20;" />
<polyline points="52.77,95.51 150.16,74.46 247.55,203.05 344.94,223.81" style="stroke-width: 1.07;stroke: none;stroke-linecap: butt;"/>
<polyline points="344.94,227.85 247.55,215.74 150.16,138.18 52.77,152.60" style="stroke-width: 1.07;stroke: none;stroke-linecap: butt;"/>
<rect x="38.16" y="22.50" width="321.39" height="216.63" style="stroke-width: 1.07;stroke: #333333;"/>
</g><g clip-path="url(#c3)">
<rect x="38.16" y="293.96" width="321.39" height="216.63" style="stroke-width: 1.07;stroke: none;fill: #FFFFFF;"/>
<polyline points="38.16,478.92 359.55,478.92" style="stroke-width: 0.53;stroke: #EBEBEB;stroke-linecap: butt;"/>
<polyline points="38.16,430.42 359.55,430.42" style="stroke-width: 0.53;stroke: #EBEBEB;stroke-linecap: butt;"/>
<polyline points="38.16,381.91 359.55,381.91" style="stroke-width: 0.53;stroke: #EBEBEB;stroke-linecap: butt;"/>
<polyline points="38.16,333.40 359.55,333.40" style="stroke-width: 0.53;stroke: #EBEBEB;stroke-linecap: butt;"/>
<polyline points="73.64,510.60 73.64,293.96" style="stroke-width: 0.53;stroke: #EBEBEB;stroke-linecap: butt;"/>
<polyline points="171.03,510.60 171.03,293.96" style="stroke-width: 0.53;stroke: #EBEBEB;stroke-linecap: butt;"/>
<polyline points="268.42,510.60 268.42,293.96" style="stroke-width: 0.53;stroke: #EBEBEB;stroke-linecap: butt;"/>
<polyline points="38.16,503.18 359.55,503.18" style="stroke-width: 1.07;stroke: #EBEBEB;stroke-linecap: butt;"/>
<polyline points="38.16,454.67 359.55,454.67" style="stroke-width: 1.07;stroke: #EBEBEB;stroke-linecap: butt;"/>
<polyline points="38.16,406.16 359.55,406.16" style="stroke-width: 1.07;stroke: #EBEBEB;stroke-linecap: butt;"/>
<polyline points="38.16,357.66 359.55,357.66" style="stroke-width: 1.07;stroke: #EBEBEB;stroke-linecap: butt;"/>
<polyline points="38.16,309.15 359.55,309.15" style="stroke-width: 1.07;stroke: #EBEBEB;stroke-linecap: butt;"/>
<polyline points="122.34,510.60 122.34,293.96" style="stroke-width: 1.07;stroke: #EBEBEB;stroke-linecap: butt;"/>
<polyline points="219.73,510.60 219.73,293.96" style="stroke-width: 1.07;stroke: #EBEBEB;stroke-linecap: butt;"/>
<polyline points="317.12,510.60 317.12,293.96" style="stroke-width: 1.07;stroke: #EBEBEB;stroke-linecap: butt;"/>
<circle cx="52.77" cy="367.36" r="1.53" style="stroke-width: 0.71;stroke: #000000;stroke-opacity: 0.70;fill: #000000;fill-opacity: 0.70;"/>
<circle cx="150.16" cy="419.74" r="1.53" style="stroke-width: 0.71;stroke: #000000;stroke-opacity: 0.70;fill: #000000;fill-opacity: 0.70;"/>
<circle cx="247.55" cy="481.83" r="1.53" style="stroke-width: 0.71;stroke: #000000;stroke-opacity: 0.70;fill: #000000;fill-opacity: 0.70;"/>
<circle cx="344.94" cy="496.39" r="1.53" style="stroke-width: 0.71;stroke: #000000;stroke-opacity: 0.70;fill: #000000;fill-opacity: 0.70;"/>
<polyline points="52.77,398.89 150.16,380.94 247.55,481.35 344.94,497.36" style="stroke-width: 2.13;stroke: #000000;stroke-opacity: 0.60;stroke-linecap: butt;"/>
<polyline points="52.77,394.73 150.16,376.72 247.55,480.21 344.94,496.99" style="stroke-width: 1.07; stroke-dasharray: 5.69, 5.69;stroke-linecap: butt;"/>
<polygon points="52.77,329.52 150.16,303.81 247.55,464.86 344.94,492.02 344.94,500.75 247.55,492.02 150.16,434.30 52.77,444.48" style="stroke-width: 0.00;stroke: none;stroke-linecap: butt;fill: #333333;fill-opacity: 0.20;" />
<polyline points="52.77,329.52 150.16,303.81 247.55,464.86 344.94,492.02" style="stroke-width: 0.43;stroke: none;stroke-linecap: butt;"/>
<polyline points="344.94,500.75 247.55,492.02 150.16,434.30 52.77,444.48" style="stroke-width: 0.43;stroke: none;stroke-linecap: butt;"/>
<polygon points="52.77,367.84 150.16,346.89 247.55,474.07 344.94,494.93 344.94,499.30 247.55,487.17 150.16,410.04 52.77,424.60" style="stroke-width: 0.00;stroke: none;stroke-linecap: butt;fill: #333333;fill-opacity: 0.20;" />
<polyline points="52.77,367.84 150.16,346.89 247.55,474.07 344.94,494.93" style="stroke-width: 1.07;stroke: none;stroke-linecap: butt;"/>
<polyline points="344.94,499.30 247.55,487.17 150.16,410.04 52.77,424.60" style="stroke-width: 1.07;stroke: none;stroke-linecap: butt;"/>
<rect x="38.16" y="293.96" width="321.39" height="216.63" style="stroke-width: 1.07;stroke: #333333;"/>
</g><g clip-path="url(#c5)">
<rect x="38.16" y="563.96" width="321.39" height="216.63" style="stroke-width: 1.07;stroke: none;fill: #FFFFFF;"/>
<polyline points="38.16,754.49 359.55,754.49" style="stroke-width: 0.53;stroke: #EBEBEB;stroke-linecap: butt;"/>
<polyline points="38.16,691.97 359.55,691.97" style="stroke-width: 0.53;stroke: #EBEBEB;stroke-linecap: butt;"/>
<polyline points="38.16,629.45 359.55,629.45" style="stroke-width: 0.53;stroke: #EBEBEB;stroke-linecap: butt;"/>
<polyline points="38.16,566.93 359.55,566.93" style="stroke-width: 0.53;stroke: #EBEBEB;stroke-linecap: butt;"/>
<polyline points="115.38,780.60 115.38,563.96" style="stroke-width: 0.53;stroke: #EBEBEB;stroke-linecap: butt;"/>
<polyline points="38.16,723.23 359.55,723.23" style="stroke-width: 1.07;stroke: #EBEBEB;stroke-linecap: butt;"/>
<polyline points="38.16,660.71 359.55,660.71" style="stroke-width: 1.07;stroke: #EBEBEB;stroke-linecap: butt;"/>
<polyline points="38.16,598.19 359.55,598.19" style="stroke-width: 1.07;stroke: #EBEBEB;stroke-linecap: butt;"/>
<polyline points="261.46,780.60 261.46,563.96" style="stroke-width: 1.07;stroke: #EBEBEB;stroke-linecap: butt;"/>
<circle cx="52.77" cy="685.10" r="1.53" style="stroke-width: 0.71;stroke: #000000;stroke-opacity: 0.70;fill: #000000;fill-opacity: 0.70;"/>
<circle cx="344.94" cy="735.11" r="1.53" style="stroke-width: 0.71;stroke: #000000;stroke-opacity: 0.70;fill: #000000;fill-opacity: 0.70;"/>
<polyline points="52.77,704.48 344.94,681.97" style="stroke-width: 2.13;stroke: #000000;stroke-opacity: 0.60;stroke-linecap: butt;"/>
<polyline points="52.77,699.17 344.94,675.45" style="stroke-width: 1.07; stroke-dasharray: 5.69, 5.69;stroke-linecap: butt;"/>
<polygon points="52.77,608.20 344.94,573.81 344.94,754.49 52.77,770.75" style="stroke-width: 0.00;stroke: none;stroke-linecap: butt;fill: #333333;fill-opacity: 0.20;" />
<polyline points="52.77,608.20 344.94,573.81" style="stroke-width: 0.43;stroke: none;stroke-linecap: butt;"/>
<polyline points="344.94,754.49 52.77,770.75" style="stroke-width: 0.43;stroke: none;stroke-linecap: butt;"/>
<polygon points="52.77,662.59 344.94,634.46 344.94,721.98 52.77,740.87" style="stroke-width: 0.00;stroke: none;stroke-linecap: butt;fill: #333333;fill-opacity: 0.20;" />
<polyline points="52.77,662.59 344.94,634.46" style="stroke-width: 1.07;stroke: none;stroke-linecap: butt;"/>
<polyline points="344.94,721.98 52.77,740.87" style="stroke-width: 1.07;stroke: none;stroke-linecap: butt;"/>
<rect x="38.16" y="563.96" width="321.39" height="216.63" style="stroke-width: 1.07;stroke: #333333;"/>
</g><g clip-path="url(#c7)">
<rect x="384.65" y="22.50" width="321.39" height="216.63" style="stroke-width: 1.07;stroke: none;fill: #FFFFFF;"/>
<polyline points="384.65,196.76 706.04,196.76" style="stroke-width: 0.53;stroke: #EBEBEB;stroke-linecap: butt;"/>
<polyline points="384.65,126.80 706.04,126.80" style="stroke-width: 0.53;stroke: #EBEBEB;stroke-linecap: butt;"/>
<polyline points="384.65,56.84 706.04,56.84" style="stroke-width: 0.53;stroke: #EBEBEB;stroke-linecap: butt;"/>
<polyline points="420.13,239.14 420.13,22.50" style="stroke-width: 0.53;stroke: #EBEBEB;stroke-linecap: butt;"/>
<polyline points="517.52,239.14 517.52,22.50" style="stroke-width: 0.53;stroke: #EBEBEB;stroke-linecap: butt;"/>
<polyline points="614.91,239.14 614.91,22.50" style="stroke-width: 0.53;stroke: #EBEBEB;stroke-linecap: butt;"/>
<polyline points="384.65,231.74 706.04,231.74" style="stroke-width: 1.07;stroke: #EBEBEB;stroke-linecap: butt;"/>
<polyline points="384.65,161.78 706.04,161.78" style="stroke-width: 1.07;stroke: #EBEBEB;stroke-linecap: butt;"/>
<polyline points="384.65,91.82 706.04,91.82" style="stroke-width: 1.07;stroke: #EBEBEB;stroke-linecap: butt;"/>
<polyline points="468.82,239.14 468.82,22.50" style="stroke-width: 1.07;stroke: #EBEBEB;stroke-linecap: butt;"/>
<polyline points="566.21,239.14 566.21,22.50" style="stroke-width: 1.07;stroke: #EBEBEB;stroke-linecap: butt;"/>
<polyline points="663.60,239.14 663.60,22.50" style="stroke-width: 1.07;stroke: #EBEBEB;stroke-linecap: butt;"/>
<circle cx="399.26" cy="94.97" r="1.53" style="stroke-width: 0.71;stroke: #000000;stroke-opacity: 0.70;fill: #000000;fill-opacity: 0.70;"/>
<circle cx="496.65" cy="153.03" r="1.53" style="stroke-width: 0.71;stroke: #000000;stroke-opacity: 0.70;fill: #000000;fill-opacity: 0.70;"/>
<circle cx="594.04" cy="209.00" r="1.53" style="stroke-width: 0.71;stroke: #000000;stroke-opacity: 0.70;fill: #000000;fill-opacity: 0.70;"/>
<circle cx="691.43" cy="226.14" r="1.53" style="stroke-width: 0.71;stroke: #000000;stroke-opacity: 0.70;fill: #000000;fill-opacity: 0.70;"/>
<polyline points="399.26,127.50 496.65,108.61 594.04,209.70 691.43,225.79" style="stroke-width: 2.13;stroke: #000000;stroke-opacity: 0.60;stroke-linecap: butt;"/>
<polyline points="399.26,122.88 496.65,104.62 594.04,208.62 691.43,225.62" style="stroke-width: 1.07; stroke-dasharray: 5.69, 5.69;stroke-linecap: butt;"/>
<polygon points="399.26,57.89 496.65,32.35 594.04,193.94 691.43,220.90 691.43,229.29 594.04,219.85 496.65,161.43 399.26,172.62" style="stroke-width: 0.00;stroke: none;stroke-linecap: butt;fill: #333333;fill-opacity: 0.20;" />
<polyline points="399.26,57.89 496.65,32.35 594.04,193.94 691.43,220.90" style="stroke-width: 0.43;stroke: none;stroke-linecap: butt;"/>
<polyline points="691.43,229.29 594.04,219.85 496.65,161.43 399.26,172.62" style="stroke-width: 0.43;stroke: none;stroke-linecap: butt;"/>
<polygon points="399.26,97.77 496.65,75.38 594.04,202.36 691.43,223.70 691.43,227.89 594.04,215.30 496.65,137.99 399.26,151.64" style="stroke-width: 0.00;stroke: none;stroke-linecap: butt;fill: #333333;fill-opacity: 0.20;" />
<polyline points="399.26,97.77 496.65,75.38 594.04,202.36 691.43,223.70" style="stroke-width: 1.07;stroke: none;stroke-linecap: butt;"/>
<polyline points="691.43,227.89 594.04,215.30 496.65,137.99 399.26,151.64" style="stroke-width: 1.07;stroke: none;stroke-linecap: butt;"/>
<rect x="384.65" y="22.50" width="321.39" height="216.63" style="stroke-width: 1.07;stroke: #333333;"/>
</g><g clip-path="url(#c9)">
<rect x="384.65" y="293.96" width="321.39" height="216.63" style="stroke-width: 1.07;stroke: none;fill: #FFFFFF;"/>
<polyline points="384.65,477.88 706.04,477.88" style="stroke-width: 0.53;stroke: #EBEBEB;stroke-linecap: butt;"/>
<polyline points="384.65,428.15 706.04,428.15" style="stroke-width: 0.53;stroke: #EBEBEB;stroke-linecap: butt;"/>
<polyline points="384.65,378.43 706.04,378.43" style="stroke-width: 0.53;stroke: #EBEBEB;stroke-linecap: butt;"/>
<polyline points="384.65,328.70 706.04,328.70" style="stroke-width: 0.53;stroke: #EBEBEB;stroke-linecap: butt;"/>
<polyline points="420.13,510.60 420.13,293.96" style="stroke-width: 0.53;stroke: #EBEBEB;stroke-linecap: butt;"/>
<polyline points="517.52,510.60 517.52,293.96" style="stroke-width: 0.53;stroke: #EBEBEB;stroke-linecap: butt;"/>
<polyline points="614.91,510.60 614.91,293.96" style="stroke-width: 0.53;stroke: #EBEBEB;stroke-linecap: butt;"/>
<polyline points="384.65,502.74 706.04,502.74" style="stroke-width: 1.07;stroke: #EBEBEB;stroke-linecap: butt;"/>
<polyline points="384.65,453.02 706.04,453.02" style="stroke-width: 1.07;stroke: #EBEBEB;stroke-linecap: butt;"/>
<polyline points="384.65,403.29 706.04,403.29" style="stroke-width: 1.07;stroke: #EBEBEB;stroke-linecap: butt;"/>
<polyline points="384.65,353.56 706.04,353.56" style="stroke-width: 1.07;stroke: #EBEBEB;stroke-linecap: butt;"/>
<polyline points="384.65,303.84 706.04,303.84" style="stroke-width: 1.07;stroke: #EBEBEB;stroke-linecap: butt;"/>
<polyline points="468.82,510.60 468.82,293.96" style="stroke-width: 1.07;stroke: #EBEBEB;stroke-linecap: butt;"/>
<polyline points="566.21,510.60 566.21,293.96" style="stroke-width: 1.07;stroke: #EBEBEB;stroke-linecap: butt;"/>
<polyline points="663.60,510.60 663.60,293.96" style="stroke-width: 1.07;stroke: #EBEBEB;stroke-linecap: butt;"/>
<circle cx="399.26" cy="375.44" r="1.53" style="stroke-width: 0.71;stroke: #000000;stroke-opacity: 0.70;fill: #000000;fill-opacity: 0.70;"/>
<circle cx="496.65" cy="428.15" r="1.53" style="stroke-width: 0.71;stroke: #000000;stroke-opacity: 0.70;fill: #000000;fill-opacity: 0.70;"/>
<circle cx="594.04" cy="481.86" r="1.53" style="stroke-width: 0.71;stroke: #000000;stroke-opacity: 0.70;fill: #000000;fill-opacity: 0.70;"/>
<circle cx="691.43" cy="497.27" r="1.53" style="stroke-width: 0.71;stroke: #000000;stroke-opacity: 0.70;fill: #000000;fill-opacity: 0.70;"/>
<polyline points="399.26,400.80 496.65,383.15 594.04,481.36 691.43,497.27" style="stroke-width: 2.13;stroke: #000000;stroke-opacity: 0.60;stroke-linecap: butt;"/>
<polyline points="399.26,396.78 496.65,378.11 594.04,480.27 691.43,496.71" style="stroke-width: 1.07; stroke-dasharray: 5.69, 5.69;stroke-linecap: butt;"/>
<polygon points="399.26,333.18 496.65,303.81 594.04,464.95 691.43,491.80 691.43,500.75 594.04,491.80 496.65,435.61 399.26,445.06" style="stroke-width: 0.00;stroke: none;stroke-linecap: butt;fill: #333333;fill-opacity: 0.20;" />
<polyline points="399.26,333.18 496.65,303.81 594.04,464.95 691.43,491.80" style="stroke-width: 0.43;stroke: none;stroke-linecap: butt;"/>
<polyline points="691.43,500.75 594.04,491.80 496.65,435.61 399.26,445.06" style="stroke-width: 0.43;stroke: none;stroke-linecap: butt;"/>
<polygon points="399.26,371.46 496.65,347.10 594.04,473.90 691.43,494.79 691.43,499.26 594.04,487.33 496.65,411.74 399.26,425.67" style="stroke-width: 0.00;stroke: none;stroke-linecap: butt;fill: #333333;fill-opacity: 0.20;" />
<polyline points="399.26,371.46 496.65,347.10 594.04,473.90 691.43,494.79" style="stroke-width: 1.07;stroke: none;stroke-linecap: butt;"/>
<polyline points="691.43,499.26 594.04,487.33 496.65,411.74 399.26,425.67" style="stroke-width: 1.07;stroke: none;stroke-linecap: butt;"/>
<rect x="384.65" y="293.96" width="321.39" height="216.63" style="stroke-width: 1.07;stroke: #333333;"/>
</g><g clip-path="url(#c11)">
<rect x="384.65" y="563.96" width="321.39" height="216.63" style="stroke-width: 1.07;stroke: none;fill: #FFFFFF;"/>
<polyline points="384.65,761.34 706.04,761.34" style="stroke-width: 0.53;stroke: #EBEBEB;stroke-linecap: butt;"/>
<polyline points="384.65,702.56 706.04,702.56" style="stroke-width: 0.53;stroke: #EBEBEB;stroke-linecap: butt;"/>
<polyline points="384.65,643.77 706.04,643.77" style="stroke-width: 0.53;stroke: #EBEBEB;stroke-linecap: butt;"/>
<polyline points="384.65,584.98 706.04,584.98" style="stroke-width: 0.53;stroke: #EBEBEB;stroke-linecap: butt;"/>
<polyline points="384.65,731.95 706.04,731.95" style="stroke-width: 1.07;stroke: #EBEBEB;stroke-linecap: butt;"/>
<polyline points="384.65,673.16 706.04,673.16" style="stroke-width: 1.07;stroke: #EBEBEB;stroke-linecap: butt;"/>
<polyline points="384.65,614.37 706.04,614.37" style="stroke-width: 1.07;stroke: #EBEBEB;stroke-linecap: butt;"/>
<circle cx="545.34" cy="664.93" r="1.53" style="stroke-width: 0.71;stroke: #000000;stroke-opacity: 0.70;fill: #000000;fill-opacity: 0.70;"/>
<polygon points="545.34,573.81 545.34,770.75" style="stroke-width: 0.00;stroke: none;stroke-linecap: butt;fill: #333333;fill-opacity: 0.20;" />
<polygon points="545.34,643.65 545.34,739.59" style="stroke-width: 0.00;stroke: none;stroke-linecap: butt;fill: #333333;fill-opacity: 0.20;" />
<rect x="384.65" y="563.96" width="321.39" height="216.63" style="stroke-width: 1.07;stroke: #333333;"/>
</g><g clip-path="url(#c13)">
<rect x="731.13" y="22.50" width="321.39" height="216.63" style="stroke-width: 1.07;stroke: none;fill: #FFFFFF;"/>
<polyline points="731.13,210.62 1052.52,210.62" style="stroke-width: 0.53;stroke: #EBEBEB;stroke-linecap: butt;"/>
<polyline points="731.13,168.17 1052.52,168.17" style="stroke-width: 0.53;stroke: #EBEBEB;stroke-linecap: butt;"/>
<polyline points="731.13,125.73 1052.52,125.73" style="stroke-width: 0.53;stroke: #EBEBEB;stroke-linecap: butt;"/>
<polyline points="731.13,83.28 1052.52,83.28" style="stroke-width: 0.53;stroke: #EBEBEB;stroke-linecap: butt;"/>
<polyline points="731.13,40.84 1052.52,40.84" style="stroke-width: 0.53;stroke: #EBEBEB;stroke-linecap: butt;"/>
<polyline points="766.61,239.14 766.61,22.50" style="stroke-width: 0.53;stroke: #EBEBEB;stroke-linecap: butt;"/>
<polyline points="864.00,239.14 864.00,22.50" style="stroke-width: 0.53;stroke: #EBEBEB;stroke-linecap: butt;"/>
<polyline points="961.39,239.14 961.39,22.50" style="stroke-width: 0.53;stroke: #EBEBEB;stroke-linecap: butt;"/>
<polyline points="731.13,231.84 1052.52,231.84" style="stroke-width: 1.07;stroke: #EBEBEB;stroke-linecap: butt;"/>
<polyline points="731.13,189.40 1052.52,189.40" style="stroke-width: 1.07;stroke: #EBEBEB;stroke-linecap: butt;"/>
<polyline points="731.13,146.95 1052.52,146.95" style="stroke-width: 1.07;stroke: #EBEBEB;stroke-linecap: butt;"/>
<polyline points="731.13,104.51 1052.52,104.51" style="stroke-width: 1.07;stroke: #EBEBEB;stroke-linecap: butt;"/>
<polyline points="731.13,62.06 1052.52,62.06" style="stroke-width: 1.07;stroke: #EBEBEB;stroke-linecap: butt;"/>
<polyline points="815.31,239.14 815.31,22.50" style="stroke-width: 1.07;stroke: #EBEBEB;stroke-linecap: butt;"/>
<polyline points="912.70,239.14 912.70,22.50" style="stroke-width: 1.07;stroke: #EBEBEB;stroke-linecap: butt;"/>
<polyline points="1010.09,239.14 1010.09,22.50" style="stroke-width: 1.07;stroke: #EBEBEB;stroke-linecap: butt;"/>
<circle cx="745.74" cy="116.82" r="1.53" style="stroke-width: 0.71;stroke: #000000;stroke-opacity: 0.70;fill: #000000;fill-opacity: 0.70;"/>
<circle cx="843.13" cy="142.71" r="1.53" style="stroke-width: 0.71;stroke: #000000;stroke-opacity: 0.70;fill: #000000;fill-opacity: 0.70;"/>
<circle cx="940.52" cy="208.92" r="1.53" style="stroke-width: 0.71;stroke: #000000;stroke-opacity: 0.70;fill: #000000;fill-opacity: 0.70;"/>
<circle cx="1037.91" cy="226.32" r="1.53" style="stroke-width: 0.71;stroke: #000000;stroke-opacity: 0.70;fill: #000000;fill-opacity: 0.70;"/>
<polyline points="745.74,127.00 843.13,110.24 940.52,210.19 1037.91,226.32" style="stroke-width: 2.13;stroke: #000000;stroke-opacity: 0.60;stroke-linecap: butt;"/>
<polyline points="745.74,122.98 843.13,106.14 940.52,209.09 1037.91,225.74" style="stroke-width: 1.07; stroke-dasharray: 5.69, 5.69;stroke-linecap: butt;"/>
<polygon points="745.74,59.52 843.13,32.35 940.52,194.91 1037.91,220.80 1037.91,229.29 940.52,220.38 843.13,163.08 745.74,173.69" style="stroke-width: 0.00;stroke: none;stroke-linecap: butt;fill: #333333;fill-opacity: 0.20;" />
<polyline points="745.74,59.52 843.13,32.35 940.52,194.91 1037.91,220.80" style="stroke-width: 0.43;stroke: none;stroke-linecap: butt;"/>
<polyline points="1037.91,229.29 940.52,220.38 843.13,163.08 745.74,173.69" style="stroke-width: 0.43;stroke: none;stroke-linecap: butt;"/>
<polygon points="745.74,96.44 843.13,75.64 940.52,202.98 1037.91,223.77 1037.91,228.02 940.52,216.13 843.13,140.16 745.74,152.04" style="stroke-width: 0.00;stroke: none;stroke-linecap: butt;fill: #333333;fill-opacity: 0.20;" />
<polyline points="745.74,96.44 843.13,75.64 940.52,202.98 1037.91,223.77" style="stroke-width: 1.07;stroke: none;stroke-linecap: butt;"/>
<polyline points="1037.91,228.02 940.52,216.13 843.13,140.16 745.74,152.04" style="stroke-width: 1.07;stroke: none;stroke-linecap: butt;"/>
<rect x="731.13" y="22.50" width="321.39" height="216.63" style="stroke-width: 1.07;stroke: #333333;"/>
</g><g clip-path="url(#c15)">
<rect x="731.13" y="293.96" width="321.39" height="216.63" style="stroke-width: 1.07;stroke: none;fill: #FFFFFF;"/>
<polyline points="731.13,487.05 1052.52,487.05" style="stroke-width: 0.53;stroke: #EBEBEB;stroke-linecap: butt;"/>
<polyline points="731.13,436.30 1052.52,436.30" style="stroke-width: 0.53;stroke: #EBEBEB;stroke-linecap: butt;"/>
<polyline points="731.13,385.55 1052.52,385.55" style="stroke-width: 0.53;stroke: #EBEBEB;stroke-linecap: butt;"/>
<polyline points="731.13,334.80 1052.52,334.80" style="stroke-width: 0.53;stroke: #EBEBEB;stroke-linecap: butt;"/>
<polyline points="777.05,510.60 777.05,293.96" style="stroke-width: 0.53;stroke: #EBEBEB;stroke-linecap: butt;"/>
<polyline points="923.13,510.60 923.13,293.96" style="stroke-width: 0.53;stroke: #EBEBEB;stroke-linecap: butt;"/>
<polyline points="731.13,461.67 1052.52,461.67" style="stroke-width: 1.07;stroke: #EBEBEB;stroke-linecap: butt;"/>
<polyline points="731.13,410.92 1052.52,410.92" style="stroke-width: 1.07;stroke: #EBEBEB;stroke-linecap: butt;"/>
<polyline points="731.13,360.17 1052.52,360.17" style="stroke-width: 1.07;stroke: #EBEBEB;stroke-linecap: butt;"/>
<polyline points="731.13,309.42 1052.52,309.42" style="stroke-width: 1.07;stroke: #EBEBEB;stroke-linecap: butt;"/>
<polyline points="850.09,510.60 850.09,293.96" style="stroke-width: 1.07;stroke: #EBEBEB;stroke-linecap: butt;"/>
<polyline points="996.17,510.60 996.17,293.96" style="stroke-width: 1.07;stroke: #EBEBEB;stroke-linecap: butt;"/>
<circle cx="745.74" cy="372.35" r="1.53" style="stroke-width: 0.71;stroke: #000000;stroke-opacity: 0.70;fill: #000000;fill-opacity: 0.70;"/>
<circle cx="891.83" cy="412.95" r="1.53" style="stroke-width: 0.71;stroke: #000000;stroke-opacity: 0.70;fill: #000000;fill-opacity: 0.70;"/>
<circle cx="1037.91" cy="481.47" r="1.53" style="stroke-width: 0.71;stroke: #000000;stroke-opacity: 0.70;fill: #000000;fill-opacity: 0.70;"/>
<polyline points="745.74,403.06 891.83,385.29 1037.91,489.08" style="stroke-width: 2.13;stroke: #000000;stroke-opacity: 0.60;stroke-linecap: butt;"/>
<polyline points="745.74,398.99 891.83,380.22 1037.91,488.19" style="stroke-width: 1.07; stroke-dasharray: 5.69, 5.69;stroke-linecap: butt;"/>
<polygon points="745.74,331.22 891.83,303.81 1037.91,472.33 1037.91,500.75 891.83,440.87 745.74,451.52" style="stroke-width: 0.00;stroke: none;stroke-linecap: butt;fill: #333333;fill-opacity: 0.20;" />
<polyline points="745.74,331.22 891.83,303.81 1037.91,472.33" style="stroke-width: 0.43;stroke: none;stroke-linecap: butt;"/>
<polyline points="1037.91,500.75 891.83,440.87 745.74,451.52" style="stroke-width: 0.43;stroke: none;stroke-linecap: butt;"/>
<polygon points="745.74,371.84 891.83,348.50 1037.91,481.47 1037.91,495.68 891.83,415.49 745.74,429.19" style="stroke-width: 0.00;stroke: none;stroke-linecap: butt;fill: #333333;fill-opacity: 0.20;" />
<polyline points="745.74,371.84 891.83,348.50 1037.91,481.47" style="stroke-width: 1.07;stroke: none;stroke-linecap: butt;"/>
<polyline points="1037.91,495.68 891.83,415.49 745.74,429.19" style="stroke-width: 1.07;stroke: none;stroke-linecap: butt;"/>
<rect x="731.13" y="293.96" width="321.39" height="216.63" style="stroke-width: 1.07;stroke: #333333;"/>
</g><g clip-path="url(#c19)">
<rect x="38.16" y="546.94" width="321.39" height="17.03" style="stroke-width: 1.07;stroke: #333333;fill: #D9D9D9;"/>
<g><text x="198.86" y="558.60" text-anchor="middle" style="font-family: Arial;font-size: 8.80px;fill: #1A1A1A;" textLength="45.03px" lengthAdjust="spacingAndGlyphs">2024-04-17</text></g>
</g><g clip-path="url(#c21)">
<rect x="384.65" y="546.94" width="321.39" height="17.03" style="stroke-width: 1.07;stroke: #333333;fill: #D9D9D9;"/>
<g><text x="545.34" y="558.60" text-anchor="middle" style="font-family: Arial;font-size: 8.80px;fill: #1A1A1A;" textLength="45.03px" lengthAdjust="spacingAndGlyphs">2024-04-24</text></g>
</g><g clip-path="url(#c25)">
<rect x="38.16" y="276.94" width="321.39" height="17.03" style="stroke-width: 1.07;stroke: #333333;fill: #D9D9D9;"/>
<g><text x="198.86" y="288.61" text-anchor="middle" style="font-family: Arial;font-size: 8.80px;fill: #1A1A1A;" textLength="45.03px" lengthAdjust="spacingAndGlyphs">2024-03-27</text></g>
</g><g clip-path="url(#c27)">
<rect x="384.65" y="276.94" width="321.39" height="17.03" style="stroke-width: 1.07;stroke: #333333;fill: #D9D9D9;"/>
<g><text x="545.34" y="288.61" text-anchor="middle" style="font-family: Arial;font-size: 8.80px;fill: #1A1A1A;" textLength="45.03px" lengthAdjust="spacingAndGlyphs">2024-04-03</text></g>
</g><g clip-path="url(#c29)">
<rect x="731.13" y="276.94" width="321.39" height="17.03" style="stroke-width: 1.07;stroke: #333333;fill: #D9D9D9;"/>
<g><text x="891.83" y="288.61" text-anchor="middle" style="font-family: Arial;font-size: 8.80px;fill: #1A1A1A;" textLength="45.03px" lengthAdjust="spacingAndGlyphs">2024-04-10</text></g>
</g><g clip-path="url(#c31)">
<rect x="38.16" y="5.48" width="321.39" height="17.03" style="stroke-width: 1.07;stroke: #333333;fill: #D9D9D9;"/>
<g><text x="198.86" y="17.15" text-anchor="middle" style="font-family: Arial;font-size: 8.80px;fill: #1A1A1A;" textLength="45.03px" lengthAdjust="spacingAndGlyphs">2024-03-06</text></g>
</g><g clip-path="url(#c33)">
<rect x="384.65" y="5.48" width="321.39" height="17.03" style="stroke-width: 1.07;stroke: #333333;fill: #D9D9D9;"/>
<g><text x="545.34" y="17.15" text-anchor="middle" style="font-family: Arial;font-size: 8.80px;fill: #1A1A1A;" textLength="45.03px" lengthAdjust="spacingAndGlyphs">2024-03-13</text></g>
</g><g clip-path="url(#c35)">
<rect x="731.13" y="5.48" width="321.39" height="17.03" style="stroke-width: 1.07;stroke: #333333;fill: #D9D9D9;"/>
<g><text x="891.83" y="17.15" text-anchor="middle" style="font-family: Arial;font-size: 8.80px;fill: #1A1A1A;" textLength="45.03px" lengthAdjust="spacingAndGlyphs">2024-03-20</text></g>
</g><g clip-path="url(#c36)">
<polyline points="261.46,783.34 261.46,780.60" style="stroke-width: 1.07;stroke: #333333;stroke-linecap: butt;"/>
<g><text transform="translate(267.77,798.49) rotate(-90.00)" text-anchor="middle" style="font-family: Arial;font-size: 8.80px;fill: #4D4D4D;" textLength="25.93px" lengthAdjust="spacingAndGlyphs">Apr 22</text></g>
<polyline points="122.34,513.34 122.34,510.60" style="stroke-width: 1.07;stroke: #333333;stroke-linecap: butt;"/>
<polyline points="219.73,513.34 219.73,510.60" style="stroke-width: 1.07;stroke: #333333;stroke-linecap: butt;"/>
<polyline points="317.12,513.34 317.12,510.60" style="stroke-width: 1.07;stroke: #333333;stroke-linecap: butt;"/>
<g><text transform="translate(128.64,528.49) rotate(-90.00)" text-anchor="middle" style="font-family: Arial;font-size: 8.80px;fill: #4D4D4D;" textLength="25.93px" lengthAdjust="spacingAndGlyphs">Apr 01</text></g>
<g><text transform="translate(226.03,528.49) rotate(-90.00)" text-anchor="middle" style="font-family: Arial;font-size: 8.80px;fill: #4D4D4D;" textLength="25.93px" lengthAdjust="spacingAndGlyphs">Apr 08</text></g>
<g><text transform="translate(323.42,528.49) rotate(-90.00)" text-anchor="middle" style="font-family: Arial;font-size: 8.80px;fill: #4D4D4D;" textLength="25.93px" lengthAdjust="spacingAndGlyphs">Apr 15</text></g>
<polyline points="468.82,513.34 468.82,510.60" style="stroke-width: 1.07;stroke: #333333;stroke-linecap: butt;"/>
<polyline points="566.21,513.34 566.21,510.60" style="stroke-width: 1.07;stroke: #333333;stroke-linecap: butt;"/>
<polyline points="663.60,513.34 663.60,510.60" style="stroke-width: 1.07;stroke: #333333;stroke-linecap: butt;"/>
<g><text transform="translate(475.13,528.49) rotate(-90.00)" text-anchor="middle" style="font-family: Arial;font-size: 8.80px;fill: #4D4D4D;" textLength="25.93px" lengthAdjust="spacingAndGlyphs">Apr 08</text></g>
<g><text transform="translate(572.52,528.49) rotate(-90.00)" text-anchor="middle" style="font-family: Arial;font-size: 8.80px;fill: #4D4D4D;" textLength="25.93px" lengthAdjust="spacingAndGlyphs">Apr 15</text></g>
<g><text transform="translate(669.91,528.49) rotate(-90.00)" text-anchor="middle" style="font-family: Arial;font-size: 8.80px;fill: #4D4D4D;" textLength="25.93px" lengthAdjust="spacingAndGlyphs">Apr 22</text></g>
<polyline points="850.09,513.34 850.09,510.60" style="stroke-width: 1.07;stroke: #333333;stroke-linecap: butt;"/>
<polyline points="996.17,513.34 996.17,510.60" style="stroke-width: 1.07;stroke: #333333;stroke-linecap: butt;"/>
<g><text transform="translate(856.40,528.49) rotate(-90.00)" text-anchor="middle" style="font-family: Arial;font-size: 8.80px;fill: #4D4D4D;" textLength="25.93px" lengthAdjust="spacingAndGlyphs">Apr 15</text></g>
<g><text transform="translate(1002.48,528.49) rotate(-90.00)" text-anchor="middle" style="font-family: Arial;font-size: 8.80px;fill: #4D4D4D;" textLength="25.93px" lengthAdjust="spacingAndGlyphs">Apr 22</text></g>
<polyline points="122.34,241.88 122.34,239.14" style="stroke-width: 1.07;stroke: #333333;stroke-linecap: butt;"/>
<polyline points="219.73,241.88 219.73,239.14" style="stroke-width: 1.07;stroke: #333333;stroke-linecap: butt;"/>
<polyline points="317.12,241.88 317.12,239.14" style="stroke-width: 1.07;stroke: #333333;stroke-linecap: butt;"/>
<g><text transform="translate(128.64,257.77) rotate(-90.00)" text-anchor="middle" style="font-family: Arial;font-size: 8.80px;fill: #4D4D4D;" textLength="27.39px" lengthAdjust="spacingAndGlyphs">Mar 11</text></g>
<g><text transform="translate(226.03,257.77) rotate(-90.00)" text-anchor="middle" style="font-family: Arial;font-size: 8.80px;fill: #4D4D4D;" textLength="27.39px" lengthAdjust="spacingAndGlyphs">Mar 18</text></g>
<g><text transform="translate(323.42,257.77) rotate(-90.00)" text-anchor="middle" style="font-family: Arial;font-size: 8.80px;fill: #4D4D4D;" textLength="27.39px" lengthAdjust="spacingAndGlyphs">Mar 25</text></g>
<polyline points="468.82,241.88 468.82,239.14" style="stroke-width: 1.07;stroke: #333333;stroke-linecap: butt;"/>
<polyline points="566.21,241.88 566.21,239.14" style="stroke-width: 1.07;stroke: #333333;stroke-linecap: butt;"/>
<polyline points="663.60,241.88 663.60,239.14" style="stroke-width: 1.07;stroke: #333333;stroke-linecap: butt;"/>
<g><text transform="translate(475.13,257.77) rotate(-90.00)" text-anchor="middle" style="font-family: Arial;font-size: 8.80px;fill: #4D4D4D;" textLength="27.39px" lengthAdjust="spacingAndGlyphs">Mar 18</text></g>
<g><text transform="translate(572.52,257.77) rotate(-90.00)" text-anchor="middle" style="font-family: Arial;font-size: 8.80px;fill: #4D4D4D;" textLength="27.39px" lengthAdjust="spacingAndGlyphs">Mar 25</text></g>
<g><text transform="translate(669.91,257.77) rotate(-90.00)" text-anchor="middle" style="font-family: Arial;font-size: 8.80px;fill: #4D4D4D;" textLength="25.93px" lengthAdjust="spacingAndGlyphs">Apr 01</text></g>
<polyline points="815.31,241.88 815.31,239.14" style="stroke-width: 1.07;stroke: #333333;stroke-linecap: butt;"/>
<polyline points="912.70,241.88 912.70,239.14" style="stroke-width: 1.07;stroke: #333333;stroke-linecap: butt;"/>
<polyline points="1010.09,241.88 1010.09,239.14" style="stroke-width: 1.07;stroke: #333333;stroke-linecap: butt;"/>
<g><text transform="translate(821.61,257.77) rotate(-90.00)" text-anchor="middle" style="font-family: Arial;font-size: 8.80px;fill: #4D4D4D;" textLength="27.39px" lengthAdjust="spacingAndGlyphs">Mar 25</text></g>
<g><text transform="translate(919.00,257.77) rotate(-90.00)" text-anchor="middle" style="font-family: Arial;font-size: 8.80px;fill: #4D4D4D;" textLength="25.93px" lengthAdjust="spacingAndGlyphs">Apr 01</text></g>
<g><text transform="translate(1016.39,257.77) rotate(-90.00)" text-anchor="middle" style="font-family: Arial;font-size: 8.80px;fill: #4D4D4D;" textLength="25.93px" lengthAdjust="spacingAndGlyphs">Apr 08</text></g>
<g><text x="726.20" y="234.99" text-anchor="end" style="font-family: Arial;font-size: 8.80px;fill: #4D4D4D;" textLength="4.90px" lengthAdjust="spacingAndGlyphs">0</text></g>
<g><text x="726.20" y="192.55" text-anchor="end" style="font-family: Arial;font-size: 8.80px;fill: #4D4D4D;" textLength="14.69px" lengthAdjust="spacingAndGlyphs">100</text></g>
<g><text x="726.20" y="150.10" text-anchor="end" style="font-family: Arial;font-size: 8.80px;fill: #4D4D4D;" textLength="14.69px" lengthAdjust="spacingAndGlyphs">200</text></g>
<g><text x="726.20" y="107.66" text-anchor="end" style="font-family: Arial;font-size: 8.80px;fill: #4D4D4D;" textLength="14.69px" lengthAdjust="spacingAndGlyphs">300</text></g>
<g><text x="726.20" y="65.22" text-anchor="end" style="font-family: Arial;font-size: 8.80px;fill: #4D4D4D;" textLength="14.69px" lengthAdjust="spacingAndGlyphs">400</text></g>
<polyline points="728.39,231.84 731.13,231.84" style="stroke-width: 1.07;stroke: #333333;stroke-linecap: butt;"/>
<polyline points="728.39,189.40 731.13,189.40" style="stroke-width: 1.07;stroke: #333333;stroke-linecap: butt;"/>
<polyline points="728.39,146.95 731.13,146.95" style="stroke-width: 1.07;stroke: #333333;stroke-linecap: butt;"/>
<polyline points="728.39,104.51 731.13,104.51" style="stroke-width: 1.07;stroke: #333333;stroke-linecap: butt;"/>
<polyline points="728.39,62.06 731.13,62.06" style="stroke-width: 1.07;stroke: #333333;stroke-linecap: butt;"/>
<g><text x="726.20" y="464.83" text-anchor="end" style="font-family: Arial;font-size: 8.80px;fill: #4D4D4D;" textLength="14.69px" lengthAdjust="spacingAndGlyphs">100</text></g>
<g><text x="726.20" y="414.08" text-anchor="end" style="font-family: Arial;font-size: 8.80px;fill: #4D4D4D;" textLength="14.69px" lengthAdjust="spacingAndGlyphs">200</text></g>
<g><text x="726.20" y="363.32" text-anchor="end" style="font-family: Arial;font-size: 8.80px;fill: #4D4D4D;" textLength="14.69px" lengthAdjust="spacingAndGlyphs">300</text></g>
<g><text x="726.20" y="312.57" text-anchor="end" style="font-family: Arial;font-size: 8.80px;fill: #4D4D4D;" textLength="14.69px" lengthAdjust="spacingAndGlyphs">400</text></g>
<polyline points="728.39,461.67 731.13,461.67" style="stroke-width: 1.07;stroke: #333333;stroke-linecap: butt;"/>
<polyline points="728.39,410.92 731.13,410.92" style="stroke-width: 1.07;stroke: #333333;stroke-linecap: butt;"/>
<polyline points="728.39,360.17 731.13,360.17" style="stroke-width: 1.07;stroke: #333333;stroke-linecap: butt;"/>
<polyline points="728.39,309.42 731.13,309.42" style="stroke-width: 1.07;stroke: #333333;stroke-linecap: butt;"/>
<g><text x="379.72" y="234.89" text-anchor="end" style="font-family: Arial;font-size: 8.80px;fill: #4D4D4D;" textLength="4.90px" lengthAdjust="spacingAndGlyphs">0</text></g>
<g><text x="379.72" y="164.93" text-anchor="end" style="font-family: Arial;font-size: 8.80px;fill: #4D4D4D;" textLength="14.69px" lengthAdjust="spacingAndGlyphs">200</text></g>
<g><text x="379.72" y="94.97" text-anchor="end" style="font-family: Arial;font-size: 8.80px;fill: #4D4D4D;" textLength="14.69px" lengthAdjust="spacingAndGlyphs">400</text></g>
<polyline points="381.91,231.74 384.65,231.74" style="stroke-width: 1.07;stroke: #333333;stroke-linecap: butt;"/>
<polyline points="381.91,161.78 384.65,161.78" style="stroke-width: 1.07;stroke: #333333;stroke-linecap: butt;"/>
<polyline points="381.91,91.82 384.65,91.82" style="stroke-width: 1.07;stroke: #333333;stroke-linecap: butt;"/>
<g><text x="379.72" y="505.89" text-anchor="end" style="font-family: Arial;font-size: 8.80px;fill: #4D4D4D;" textLength="4.90px" lengthAdjust="spacingAndGlyphs">0</text></g>
<g><text x="379.72" y="456.17" text-anchor="end" style="font-family: Arial;font-size: 8.80px;fill: #4D4D4D;" textLength="14.69px" lengthAdjust="spacingAndGlyphs">100</text></g>
<g><text x="379.72" y="406.44" text-anchor="end" style="font-family: Arial;font-size: 8.80px;fill: #4D4D4D;" textLength="14.69px" lengthAdjust="spacingAndGlyphs">200</text></g>
<g><text x="379.72" y="356.72" text-anchor="end" style="font-family: Arial;font-size: 8.80px;fill: #4D4D4D;" textLength="14.69px" lengthAdjust="spacingAndGlyphs">300</text></g>
<g><text x="379.72" y="306.99" text-anchor="end" style="font-family: Arial;font-size: 8.80px;fill: #4D4D4D;" textLength="14.69px" lengthAdjust="spacingAndGlyphs">400</text></g>
<polyline points="381.91,502.74 384.65,502.74" style="stroke-width: 1.07;stroke: #333333;stroke-linecap: butt;"/>
<polyline points="381.91,453.02 384.65,453.02" style="stroke-width: 1.07;stroke: #333333;stroke-linecap: butt;"/>
<polyline points="381.91,403.29 384.65,403.29" style="stroke-width: 1.07;stroke: #333333;stroke-linecap: butt;"/>
<polyline points="381.91,353.56 384.65,353.56" style="stroke-width: 1.07;stroke: #333333;stroke-linecap: butt;"/>
<polyline points="381.91,303.84 384.65,303.84" style="stroke-width: 1.07;stroke: #333333;stroke-linecap: butt;"/>
<g><text x="379.72" y="735.10" text-anchor="end" style="font-family: Arial;font-size: 8.80px;fill: #4D4D4D;" textLength="14.69px" lengthAdjust="spacingAndGlyphs">200</text></g>
<g><text x="379.72" y="676.32" text-anchor="end" style="font-family: Arial;font-size: 8.80px;fill: #4D4D4D;" textLength="14.69px" lengthAdjust="spacingAndGlyphs">300</text></g>
<g><text x="379.72" y="617.53" text-anchor="end" style="font-family: Arial;font-size: 8.80px;fill: #4D4D4D;" textLength="14.69px" lengthAdjust="spacingAndGlyphs">400</text></g>
<polyline points="381.91,731.95 384.65,731.95" style="stroke-width: 1.07;stroke: #333333;stroke-linecap: butt;"/>
<polyline points="381.91,673.16 384.65,673.16" style="stroke-width: 1.07;stroke: #333333;stroke-linecap: butt;"/>
<polyline points="381.91,614.37 384.65,614.37" style="stroke-width: 1.07;stroke: #333333;stroke-linecap: butt;"/>
<g><text x="33.23" y="235.04" text-anchor="end" style="font-family: Arial;font-size: 8.80px;fill: #4D4D4D;" textLength="4.90px" lengthAdjust="spacingAndGlyphs">0</text></g>
<g><text x="33.23" y="177.38" text-anchor="end" style="font-family: Arial;font-size: 8.80px;fill: #4D4D4D;" textLength="14.69px" lengthAdjust="spacingAndGlyphs">200</text></g>
<g><text x="33.23" y="119.71" text-anchor="end" style="font-family: Arial;font-size: 8.80px;fill: #4D4D4D;" textLength="14.69px" lengthAdjust="spacingAndGlyphs">400</text></g>
<g><text x="33.23" y="62.05" text-anchor="end" style="font-family: Arial;font-size: 8.80px;fill: #4D4D4D;" textLength="14.69px" lengthAdjust="spacingAndGlyphs">600</text></g>
<polyline points="35.42,231.89 38.16,231.89" style="stroke-width: 1.07;stroke: #333333;stroke-linecap: butt;"/>
<polyline points="35.42,174.22 38.16,174.22" style="stroke-width: 1.07;stroke: #333333;stroke-linecap: butt;"/>
<polyline points="35.42,116.56 38.16,116.56" style="stroke-width: 1.07;stroke: #333333;stroke-linecap: butt;"/>
<polyline points="35.42,58.89 38.16,58.89" style="stroke-width: 1.07;stroke: #333333;stroke-linecap: butt;"/>
<g><text x="33.23" y="506.33" text-anchor="end" style="font-family: Arial;font-size: 8.80px;fill: #4D4D4D;" textLength="4.90px" lengthAdjust="spacingAndGlyphs">0</text></g>
<g><text x="33.23" y="457.82" text-anchor="end" style="font-family: Arial;font-size: 8.80px;fill: #4D4D4D;" textLength="14.69px" lengthAdjust="spacingAndGlyphs">100</text></g>
<g><text x="33.23" y="409.32" text-anchor="end" style="font-family: Arial;font-size: 8.80px;fill: #4D4D4D;" textLength="14.69px" lengthAdjust="spacingAndGlyphs">200</text></g>
<g><text x="33.23" y="360.81" text-anchor="end" style="font-family: Arial;font-size: 8.80px;fill: #4D4D4D;" textLength="14.69px" lengthAdjust="spacingAndGlyphs">300</text></g>
<g><text x="33.23" y="312.30" text-anchor="end" style="font-family: Arial;font-size: 8.80px;fill: #4D4D4D;" textLength="14.69px" lengthAdjust="spacingAndGlyphs">400</text></g>
<polyline points="35.42,503.18 38.16,503.18" style="stroke-width: 1.07;stroke: #333333;stroke-linecap: butt;"/>
<polyline points="35.42,454.67 38.16,454.67" style="stroke-width: 1.07;stroke: #333333;stroke-linecap: butt;"/>
<polyline points="35.42,406.16 38.16,406.16" style="stroke-width: 1.07;stroke: #333333;stroke-linecap: butt;"/>
<polyline points="35.42,357.66 38.16,357.66" style="stroke-width: 1.07;stroke: #333333;stroke-linecap: butt;"/>
<polyline points="35.42,309.15 38.16,309.15" style="stroke-width: 1.07;stroke: #333333;stroke-linecap: butt;"/>
<g><text x="33.23" y="726.39" text-anchor="end" style="font-family: Arial;font-size: 8.80px;fill: #4D4D4D;" textLength="14.69px" lengthAdjust="spacingAndGlyphs">200</text></g>
<g><text x="33.23" y="663.87" text-anchor="end" style="font-family: Arial;font-size: 8.80px;fill: #4D4D4D;" textLength="14.69px" lengthAdjust="spacingAndGlyphs">300</text></g>
<g><text x="33.23" y="601.35" text-anchor="end" style="font-family: Arial;font-size: 8.80px;fill: #4D4D4D;" textLength="14.69px" lengthAdjust="spacingAndGlyphs">400</text></g>
<polyline points="35.42,723.23 38.16,723.23" style="stroke-width: 1.07;stroke: #333333;stroke-linecap: butt;"/>
<polyline points="35.42,660.71 38.16,660.71" style="stroke-width: 1.07;stroke: #333333;stroke-linecap: butt;"/>
<polyline points="35.42,598.19 38.16,598.19" style="stroke-width: 1.07;stroke: #333333;stroke-linecap: butt;"/>
<g><text x="545.34" y="822.09" text-anchor="middle" style="font-family: Arial;font-size: 11.00px;" textLength="57.48px" lengthAdjust="spacingAndGlyphs">Report date</text></g>
<g><text transform="translate(13.37,401.55) rotate(-90.00)" text-anchor="middle" style="font-family: Arial;font-size: 11.00px;" textLength="59.90px" lengthAdjust="spacingAndGlyphs">Notifications</text></g>
</g>
</svg>