<svg xmlns="http://www.w3.org/2000/svg" xmlns:xlink="http://www.w3.org/1999/xlink" class="httpgd" width="851.00" height="456.00" viewBox="0 0 851.00 456.00">
<defs>
  <style type='text/css'><![CDATA[
    .httpgd line, .httpgd polyline, .httpgd polygon, .httpgd path, .httpgd rect, .httpgd circle {
      fill: none;
      stroke: #000000;
      stroke-linecap: round;
      stroke-linejoin: round;
      stroke-miterlimit: 10.00;
    }
  ]]></style>
<clipPath id="c0"><rect x="0.00" y="0.00" width="851.00" height="456.00"/></clipPath>
<clipPath id="c1"><rect x="38.16" y="5.48" width="638.00" height="418.79"/></clipPath>
<clipPath id="c2"><rect x="0.00" y="0.00" width="851.00" height="456.00"/></clipPath>
</defs>
<rect width="100%" height="100%" style="stroke: none;fill: #FFFFFF;"/>
<g clip-path="url(#c0)">
<rect x="0.00" y="0.00" width="851.00" height="456.00" style="stroke-width: 1.07;stroke: #FFFFFF;fill: #FFFFFF;"/>
</g><g clip-path="url(#c1)">
<rect x="38.16" y="5.48" width="638.00" height="418.79" style="stroke-width: 1.07;stroke: none;fill: #FFFFFF;"/>
<polyline points="38.16,411.88 676.16,411.88" style="stroke-width: 0.53;stroke: #EBEBEB;stroke-linecap: butt;"/>
<polyline points="38.16,337.96 676.16,337.96" style="stroke-width: 0.53;stroke: #EBEBEB;stroke-linecap: butt;"/>
<polyline points="38.16,264.03 676.16,264.03" style="stroke-width: 0.53;stroke: #EBEBEB;stroke-linecap: butt;"/>
<polyline points="38.16,190.11 676.16,190.11" style="stroke-width: 0.53;stroke: #EBEBEB;stroke-linecap: butt;"/>
<polyline points="38.16,116.18 676.16,116.18" style="stroke-width: 0.53;stroke: #EBEBEB;stroke-linecap: butt;"/>
<polyline points="38.16,42.26 676.16,42.26" style="stroke-width: 0.53;stroke: #EBEBEB;stroke-linecap: butt;"/>
<polyline points="108.59,424.27 108.59,5.48" style="stroke-width: 0.53;stroke: #EBEBEB;stroke-linecap: butt;"/>
<polyline points="301.92,424.27 301.92,5.48" style="stroke-width: 0.53;stroke: #EBEBEB;stroke-linecap: butt;"/>
<polyline points="495.26,424.27 495.26,5.48" style="stroke-width: 0.53;stroke: #EBEBEB;stroke-linecap: butt;"/>
<polyline points="38.16,374.92 676.16,374.92" style="stroke-width: 1.07;stroke: #EBEBEB;stroke-linecap: butt;"/>
<polyline points="38.16,301.00 676.16,301.00" style="stroke-width: 1.07;stroke: #EBEBEB;stroke-linecap: butt;"/>
<polyline points="38.16,227.07 676.16,227.07" style="stroke-width: 1.07;stroke: #EBEBEB;stroke-linecap: butt;"/>
<polyline points="38.16,153.15 676.16,153.15" style="stroke-width: 1.07;stroke: #EBEBEB;stroke-linecap: butt;"/>
<polyline points="38.16,79.22 676.16,79.22" style="stroke-width: 1.07;stroke: #EBEBEB;stroke-linecap: butt;"/>
<polyline points="205.26,424.27 205.26,5.48" style="stroke-width: 1.07;stroke: #EBEBEB;stroke-linecap: butt;"/>
<polyline points="398.59,424.27 398.59,5.48" style="stroke-width: 1.07;stroke: #EBEBEB;stroke-linecap: butt;"/>
<polyline points="591.92,424.27 591.92,5.48" style="stroke-width: 1.07;stroke: #EBEBEB;stroke-linecap: butt;"/>
<polyline points="67.16,402.63 260.50,337.19 453.83,365.92 647.16,330.46" style="stroke-width: 1.07;stroke: #F8766D; stroke-dasharray: 5.69, 5.69;stroke-linecap: butt;"/>
<polyline points="67.16,405.23 260.50,341.11 453.83,370.28 647.16,218.32" style="stroke-width: 1.07;stroke: #00BFC4; stroke-dasharray: 5.69, 5.69;stroke-linecap: butt;"/>
<polyline points="67.16,403.01 260.50,337.22 453.83,366.05 647.16,332.04" style="stroke-width: 1.07;stroke: #F8766D;stroke-linecap: butt;"/>
<polyline points="67.16,405.23 260.50,341.65 453.83,371.96 647.16,235.20" style="stroke-width: 1.07;stroke: #00BFC4;stroke-linecap: butt;"/>
<polygon points="67.16,400.06 260.50,331.31 453.83,351.26 647.16,285.47 647.16,370.49 453.83,378.65 260.50,342.39 67.16,404.49" style="stroke-width: 0.00;stroke: none;stroke-linecap: butt;fill: #F8766D;fill-opacity: 0.10;" />
<polyline points="67.16,400.06 260.50,331.31 453.83,351.26 647.16,285.47" style="stroke-width: 0.43;stroke: #F8766D;stroke-linecap: butt;"/>
<polyline points="647.16,370.49 453.83,378.65 260.50,342.39 67.16,404.49" style="stroke-width: 0.43;stroke: #F8766D;stroke-linecap: butt;"/>
<polygon points="67.16,405.23 260.50,332.78 453.83,342.39 647.16,24.52 647.16,354.26 453.83,391.92 260.50,346.83 67.16,405.23" style="stroke-width: 0.00;stroke: none;stroke-linecap: butt;fill: #00BFC4;fill-opacity: 0.10;" />
<polyline points="67.16,405.23 260.50,332.78 453.83,342.39 647.16,24.52" style="stroke-width: 0.43;stroke: #00BFC4;stroke-linecap: butt;"/>
<polyline points="647.16,354.26 453.83,391.92 260.50,346.83 67.16,405.23" style="stroke-width: 0.43;stroke: #00BFC4;stroke-linecap: butt;"/>
<polygon points="67.16,401.53 260.50,334.26 453.83,358.66 647.16,309.13 647.16,352.74 453.83,372.70 260.50,340.18 67.16,403.75" style="stroke-width: 0.00;stroke: none;stroke-linecap: butt;fill: #F8766D;fill-opacity: 0.10;" />
<polyline points="67.16,401.53 260.50,334.26 453.83,358.66 647.16,309.13" style="stroke-width: 1.07;stroke: none;stroke-linecap: butt;"/>
<polyline points="647.16,352.74 453.83,372.70 260.50,340.18 67.16,403.75" style="stroke-width: 1.07;stroke: none;stroke-linecap: butt;"/>
<polygon points="67.16,405.23 260.50,337.96 453.83,358.66 647.16,144.27 647.16,303.21 453.83,383.05 260.50,344.61 67.16,405.23" style="stroke-width: 0.00;stroke: none;stroke-linecap: butt;fill: #00BFC4;fill-opacity: 0.10;" />
<polyline points="67.16,405.23 260.50,337.96 453.83,358.66 647.16,144.27" style="stroke-width: 1.07;stroke: none;stroke-linecap: butt;"/>
<polyline points="647.16,303.21 453.83,383.05 260.50,344.61 67.16,405.23" style="stroke-width: 1.07;stroke: none;stroke-linecap: butt;"/>
<polyline points="67.16,402.63 260.50,337.19 453.83,365.92 647.16,330.46" style="stroke-width: 1.07;stroke: #F8766D; stroke-dasharray: 5.69, 5.69;stroke-linecap: butt;"/>
<polyline points="67.16,405.23 260.50,341.11 453.83,370.28 647.16,218.32" style="stroke-width: 1.07;stroke: #00BFC4; stroke-dasharray: 5.69, 5.69;stroke-linecap: butt;"/>
<polyline points="67.16,403.01 260.50,337.22 453.83,366.05 647.16,332.04" style="stroke-width: 1.07;stroke: #F8766D;stroke-linecap: butt;"/>
<polyline points="67.16,405.23 260.50,341.65 453.83,371.96 647.16,235.20" style="stroke-width: 1.07;stroke: #00BFC4;stroke-linecap: butt;"/>
<polygon points="67.16,400.06 260.50,331.31 453.83,351.26 647.16,285.47 647.16,370.49 453.83,378.65 260.50,342.39 67.16,404.49" style="stroke-width: 0.00;stroke: none;stroke-linecap: butt;fill: #F8766D;fill-opacity: 0.10;" />
<polyline points="67.16,400.06 260.50,331.31 453.83,351.26 647.16,285.47" style="stroke-width: 0.43;stroke: #F8766D;stroke-linecap: butt;"/>
<polyline points="647.16,370.49 453.83,378.65 260.50,342.39 67.16,404.49" style="stroke-width: 0.43;stroke: #F8766D;stroke-linecap: butt;"/>
<polygon points="67.16,405.23 260.50,332.78 453.83,342.39 647.16,24.52 647.16,354.26 453.83,391.92 260.50,346.83 67.16,405.23" style="stroke-width: 0.00;stroke: none;stroke-linecap: butt;fill: #00BFC4;fill-opacity: 0.10;" />
<polyline points="67.16,405.23 260.50,332.78 453.83,342.39 647.16,24.52" style="stroke-width: 0.43;stroke: #00BFC4;stroke-linecap: butt;"/>
<polyline points="647.16,354.26 453.83,391.92 260.50,346.83 67.16,405.23" style="stroke-width: 0.43;stroke: #00BFC4;stroke-linecap: butt;"/>
<polygon points="67.16,401.53 260.50,334.26 453.83,358.66 647.16,309.13 647.16,352.74 453.83,372.70 260.50,340.18 67.16,403.75" style="stroke-width: 0.00;stroke: none;stroke-linecap: butt;fill: #F8766D;fill-opacity: 0.10;" />
<polyline points="67.16,401.53 260.50,334.26 453.83,358.66 647.16,309.13" style="stroke-width: 1.07;stroke: none;stroke-linecap: butt;"/>
<polyline points="647.16,352.74 453.83,372.70 260.50,340.18 67.16,403.75" style="stroke-width: 1.07;stroke: none;stroke-linecap: butt;"/>
<polygon points="67.16,405.23 260.50,337.96 453.83,358.66 647.16,144.27 647.16,303.21 453.83,383.05 260.50,344.61 67.16,405.23" style="stroke-width: 0.00;stroke: none;stroke-linecap: butt;fill: #00BFC4;fill-opacity: 0.10;" />
<polyline points="67.16,405.23 260.50,337.96 453.83,358.66 647.16,144.27" style="stroke-width: 1.07;stroke: none;stroke-linecap: butt;"/>
<polyline points="647.16,303.21 453.83,383.05 260.50,344.61 67.16,405.23" style="stroke-width: 1.07;stroke: none;stroke-linecap: butt;"/>
<polygon points="67.16,399.97 69.80,404.53 64.53,404.53" style="stroke-width: 0.71;" />
<polygon points="260.50,333.44 263.13,338.00 257.86,338.00" style="stroke-width: 0.71;" />
<polygon points="453.83,372.62 456.46,377.18 451.20,377.18" style="stroke-width: 0.71;" />
<polygon points="647.16,312.00 649.79,316.56 644.53,316.56" style="stroke-width: 0.71;" />
<rect x="38.16" y="5.48" width="638.00" height="418.79" style="stroke-width: 1.07;stroke: #333333;"/>
</g><g clip-path="url(#c2)">
<g><text x="33.23" y="378.07" text-anchor="end" style="font-family: Arial;font-size: 8.80px;fill: #4D4D4D;" textLength="14.69px" lengthAdjust="spacingAndGlyphs">500</text></g>
<g><text x="33.23" y="304.15" text-anchor="end" style="font-family: Arial;font-size: 8.80px;fill: #4D4D4D;" textLength="14.69px" lengthAdjust="spacingAndGlyphs">600</text></g>
<g><text x="33.23" y="230.22" text-anchor="end" style="font-family: Arial;font-size: 8.80px;fill: #4D4D4D;" textLength="14.69px" lengthAdjust="spacingAndGlyphs">700</text></g>
<g><text x="33.23" y="156.30" text-anchor="end" style="font-family: Arial;font-size: 8.80px;fill: #4D4D4D;" textLength="14.69px" lengthAdjust="spacingAndGlyphs">800</text></g>
<g><text x="33.23" y="82.37" text-anchor="end" style="font-family: Arial;font-size: 8.80px;fill: #4D4D4D;" textLength="14.69px" lengthAdjust="spacingAndGlyphs">900</text></g>
<polyline points="35.42,374.92 38.16,374.92" style="stroke-width: 1.07;stroke: #333333;stroke-linecap: butt;"/>
<polyline points="35.42,301.00 38.16,301.00" style="stroke-width: 1.07;stroke: #333333;stroke-linecap: butt;"/>
<polyline points="35.42,227.07 38.16,227.07" style="stroke-width: 1.07;stroke: #333333;stroke-linecap: butt;"/>
<polyline points="35.42,153.15 38.16,153.15" style="stroke-width: 1.07;stroke: #333333;stroke-linecap: butt;"/>
<polyline points="35.42,79.22 38.16,79.22" style="stroke-width: 1.07;stroke: #333333;stroke-linecap: butt;"/>
<polyline points="205.26,427.01 205.26,424.27" style="stroke-width: 1.07;stroke: #333333;stroke-linecap: butt;"/>
<polyline points="398.59,427.01 398.59,424.27" style="stroke-width: 1.07;stroke: #333333;stroke-linecap: butt;"/>
<polyline points="591.92,427.01 591.92,424.27" style="stroke-width: 1.07;stroke: #333333;stroke-linecap: butt;"/>
<g><text x="205.26" y="435.50" text-anchor="middle" style="font-family: Arial;font-size: 8.80px;fill: #4D4D4D;" textLength="25.93px" lengthAdjust="spacingAndGlyphs">Apr 08</text></g>
<g><text x="398.59" y="435.50" text-anchor="middle" style="font-family: Arial;font-size: 8.80px;fill: #4D4D4D;" textLength="25.93px" lengthAdjust="spacingAndGlyphs">Apr 15</text></g>
<g><text x="591.92" y="435.50" text-anchor="middle" style="font-family: Arial;font-size: 8.80px;fill: #4D4D4D;" textLength="25.93px" lengthAdjust="spacingAndGlyphs">Apr 22</text></g>
<g><text x="357.16" y="448.09" text-anchor="middle" style="font-family: Arial;font-size: 11.00px;" textLength="23.23px" lengthAdjust="spacingAndGlyphs">Date</text></g>
<g><text transform="translate(13.37,214.87) rotate(-90.00)" text-anchor="middle" style="font-family: Arial;font-size: 11.00px;" textLength="99.04px" lengthAdjust="spacingAndGlyphs">Hospital Admissions</text></g>
<rect x="687.12" y="184.21" width="158.40" height="61.32" style="stroke-width: 1.07;stroke: none;fill: #FFFFFF;"/>
<g><text x="692.60" y="198.80" style="font-family: Arial;font-size: 11.00px;" textLength="29.97px" lengthAdjust="spacingAndGlyphs">Model</text></g>
<rect x="692.60" y="205.49" width="17.28" height="17.28" style="stroke-width: 1.07;stroke: none;fill: #FFFFFF;"/>
<line x1="694.33" y1="214.13" x2="708.15" y2="214.13" style="stroke-width: 1.07;stroke: #F8766D; stroke-dasharray: 5.69, 5.69;stroke-linecap: butt;"/>
<line x1="694.33" y1="214.13" x2="708.15" y2="214.13" style="stroke-width: 1.07;stroke: #F8766D;stroke-linecap: butt;"/>
<rect x="692.88" y="205.78" width="16.71" height="16.71" style="stroke-width: 0.43;stroke: #F8766D;stroke-linecap: butt;stroke-linejoin: miter;fill: #F8766D;fill-opacity: 0.10;"/>
<rect x="693.31" y="206.20" width="15.86" height="15.86" style="stroke-width: 1.07;stroke: none;stroke-linecap: butt;stroke-linejoin: miter;fill: #F8766D;fill-opacity: 0.10;"/>
<line x1="694.33" y1="214.13" x2="708.15" y2="214.13" style="stroke-width: 1.07;stroke: #F8766D; stroke-dasharray: 5.69, 5.69;stroke-linecap: butt;"/>
<line x1="694.33" y1="214.13" x2="708.15" y2="214.13" style="stroke-width: 1.07;stroke: #F8766D;stroke-linecap: butt;"/>
<rect x="692.88" y="205.78" width="16.71" height="16.71" style="stroke-width: 0.43;stroke: #F8766D;stroke-linecap: butt;stroke-linejoin: miter;fill: #F8766D;fill-opacity: 0.10;"/>
<rect x="693.31" y="206.20" width="15.86" height="15.86" style="stroke-width: 1.07;stroke: none;stroke-linecap: butt;stroke-linejoin: miter;fill: #F8766D;fill-opacity: 0.10;"/>
<rect x="692.60" y="222.77" width="17.28" height="17.28" style="stroke-width: 1.07;stroke: none;fill: #FFFFFF;"/>
<line x1="694.33" y1="231.41" x2="708.15" y2="231.41" style="stroke-width: 1.07;stroke: #00BFC4; stroke-dasharray: 5.69, 5.69;stroke-linecap: butt;"/>
<line x1="694.33" y1="231.41" x2="708.15" y2="231.41" style="stroke-width: 1.07;stroke: #00BFC4;stroke-linecap: butt;"/>
<rect x="692.88" y="223.06" width="16.71" height="16.71" style="stroke-width: 0.43;stroke: #00BFC4;stroke-linecap: butt;stroke-linejoin: miter;fill: #00BFC4;fill-opacity: 0.10;"/>
<rect x="693.31" y="223.48" width="15.86" height="15.86" style="stroke-width: 1.07;stroke: none;stroke-linecap: butt;stroke-linejoin: miter;fill: #00BFC4;fill-opacity: 0.10;"/>
<line x1="694.33" y1="231.41" x2="708.15" y2="231.41" style="stroke-width: 1.07;stroke: #00BFC4; stroke-dasharray: 5.69, 5.69;stroke-linecap: butt;"/>
<line x1="694.33" y1="231.41" x2="708.15" y2="231.41" style="stroke-width: 1.07;stroke: #00BFC4;stroke-linecap: butt;"/>
<rect x="692.88" y="223.06" width="16.71" height="16.71" style="stroke-width: 0.43;stroke: #00BFC4;stroke-linecap: butt;stroke-linejoin: miter;fill: #00BFC4;fill-opacity: 0.10;"/>
<rect x="693.31" y="223.48" width="15.86" height="15.86" style="stroke-width: 1.07;stroke: none;stroke-linecap: butt;stroke-linejoin: miter;fill: #00BFC4;fill-opacity: 0.10;"/>
<g><text x="715.36" y="217.29" style="font-family: Arial;font-size: 8.80px;" textLength="124.68px" lengthAdjust="spacingAndGlyphs">Daily/Weekly, Hardcode Hazard</text></g>
<g><text x="715.36" y="234.57" style="font-family: Arial;font-size: 8.80px;" textLength="60.13px" lengthAdjust="spacingAndGlyphs">Weekly/Weekly</text></g>
</g>
</svg>