<svg xmlns="http://www.w3.org/2000/svg" xmlns:xlink="http://www.w3.org/1999/xlink" class="httpgd" width="851.00" height="456.00" viewBox="0 0 851.00 456.00">
<defs>
  <style type='text/css'><![CDATA[
    .httpgd line, .httpgd polyline, .httpgd polygon, .httpgd path, .httpgd rect, .httpgd circle {
      fill: none;
      stroke: #000000;
      stroke-linecap: round;
      stroke-linejoin: round;
      stroke-miterlimit: 10.00;
    }
  ]]></style>
<clipPath id="c0"><rect x="0.00" y="0.00" width="851.00" height="456.00"/></clipPath>
<clipPath id="c1"><rect x="38.16" y="5.48" width="672.28" height="418.79"/></clipPath>
<clipPath id="c2"><rect x="0.00" y="0.00" width="851.00" height="456.00"/></clipPath>
</defs>
<rect width="100%" height="100%" style="stroke: none;fill: #FFFFFF;"/>
<g clip-path="url(#c0)">
<rect x="0.00" y="0.00" width="851.00" height="456.00" style="stroke-width: 1.07;stroke: #FFFFFF;fill: #FFFFFF;"/>
</g><g clip-path="url(#c1)">
<rect x="38.16" y="5.48" width="672.28" height="418.79" style="stroke-width: 1.07;stroke: none;fill: #FFFFFF;"/>
<polyline points="38.16,411.88 710.45,411.88" style="stroke-width: 0.53;stroke: #EBEBEB;stroke-linecap: butt;"/>
<polyline points="38.16,337.96 710.45,337.96" style="stroke-width: 0.53;stroke: #EBEBEB;stroke-linecap: butt;"/>
<polyline points="38.16,264.03 710.45,264.03" style="stroke-width: 0.53;stroke: #EBEBEB;stroke-linecap: butt;"/>
<polyline points="38.16,190.11 710.45,190.11" style="stroke-width: 0.53;stroke: #EBEBEB;stroke-linecap: butt;"/>
<polyline points="38.16,116.18 710.45,116.18" style="stroke-width: 0.53;stroke: #EBEBEB;stroke-linecap: butt;"/>
<polyline points="38.16,42.26 710.45,42.26" style="stroke-width: 0.53;stroke: #EBEBEB;stroke-linecap: butt;"/>
<polyline points="112.38,424.27 112.38,5.48" style="stroke-width: 0.53;stroke: #EBEBEB;stroke-linecap: butt;"/>
<polyline points="316.10,424.27 316.10,5.48" style="stroke-width: 0.53;stroke: #EBEBEB;stroke-linecap: butt;"/>
<polyline points="519.82,424.27 519.82,5.48" style="stroke-width: 0.53;stroke: #EBEBEB;stroke-linecap: butt;"/>
<polyline points="38.16,374.92 710.45,374.92" style="stroke-width: 1.07;stroke: #EBEBEB;stroke-linecap: butt;"/>
<polyline points="38.16,301.00 710.45,301.00" style="stroke-width: 1.07;stroke: #EBEBEB;stroke-linecap: butt;"/>
<polyline points="38.16,227.07 710.45,227.07" style="stroke-width: 1.07;stroke: #EBEBEB;stroke-linecap: butt;"/>
<polyline points="38.16,153.15 710.45,153.15" style="stroke-width: 1.07;stroke: #EBEBEB;stroke-linecap: butt;"/>
<polyline points="38.16,79.22 710.45,79.22" style="stroke-width: 1.07;stroke: #EBEBEB;stroke-linecap: butt;"/>
<polyline points="214.24,424.27 214.24,5.48" style="stroke-width: 1.07;stroke: #EBEBEB;stroke-linecap: butt;"/>
<polyline points="417.96,424.27 417.96,5.48" style="stroke-width: 1.07;stroke: #EBEBEB;stroke-linecap: butt;"/>
<polyline points="621.68,424.27 621.68,5.48" style="stroke-width: 1.07;stroke: #EBEBEB;stroke-linecap: butt;"/>
<polyline points="68.72,405.10 272.44,346.05 476.17,377.63 679.89,322.51" style="stroke-width: 1.07;stroke: #F8766D; stroke-dasharray: 5.69, 5.69;stroke-linecap: butt;"/>
<polyline points="68.72,405.23 272.44,341.11 476.17,370.28 679.89,218.32" style="stroke-width: 1.07;stroke: #00BFC4; stroke-dasharray: 5.69, 5.69;stroke-linecap: butt;"/>
<polyline points="68.72,405.23 272.44,346.09 476.17,377.88 679.89,323.91" style="stroke-width: 1.07;stroke: #F8766D;stroke-linecap: butt;"/>
<polyline points="68.72,405.23 272.44,341.65 476.17,371.96 679.89,235.20" style="stroke-width: 1.07;stroke: #00BFC4;stroke-linecap: butt;"/>
<polygon points="68.72,404.49 272.44,342.39 476.17,366.79 679.89,281.78 679.89,358.66 476.17,387.49 272.44,349.05 68.72,405.23" style="stroke-width: 0.00;stroke: none;stroke-linecap: butt;fill: #F8766D;fill-opacity: 0.10;" />
<polyline points="68.72,404.49 272.44,342.39 476.17,366.79 679.89,281.78" style="stroke-width: 0.43;stroke: #F8766D;stroke-linecap: butt;"/>
<polyline points="679.89,358.66 476.17,387.49 272.44,349.05 68.72,405.23" style="stroke-width: 0.43;stroke: #F8766D;stroke-linecap: butt;"/>
<polygon points="68.72,405.23 272.44,332.78 476.17,342.39 679.89,24.52 679.89,354.26 476.17,391.92 272.44,346.83 68.72,405.23" style="stroke-width: 0.00;stroke: none;stroke-linecap: butt;fill: #00BFC4;fill-opacity: 0.10;" />
<polyline points="68.72,405.23 272.44,332.78 476.17,342.39 679.89,24.52" style="stroke-width: 0.43;stroke: #00BFC4;stroke-linecap: butt;"/>
<polyline points="679.89,354.26 476.17,391.92 272.44,346.83 68.72,405.23" style="stroke-width: 0.43;stroke: #00BFC4;stroke-linecap: butt;"/>
<polygon points="68.72,405.23 272.44,344.61 476.17,371.96 679.89,303.21 679.89,341.80 476.17,383.05 272.44,347.57 68.72,405.23" style="stroke-width: 0.00;stroke: none;stroke-linecap: butt;fill: #F8766D;fill-opacity: 0.10;" />
<polyline points="68.72,405.23 272.44,344.61 476.17,371.96 679.89,303.21" style="stroke-width: 1.07;stroke: none;stroke-linecap: butt;"/>
<polyline points="679.89,341.80 476.17,383.05 272.44,347.57 68.72,405.23" style="stroke-width: 1.07;stroke: none;stroke-linecap: butt;"/>
<polygon points="68.72,405.23 272.44,337.96 476.17,358.66 679.89,144.27 679.89,303.21 476.17,383.05 272.44,344.61 68.72,405.23" style="stroke-width: 0.00;stroke: none;stroke-linecap: butt;fill: #00BFC4;fill-opacity: 0.10;" />
<polyline points="68.72,405.23 272.44,337.96 476.17,358.66 679.89,144.27" style="stroke-width: 1.07;stroke: none;stroke-linecap: butt;"/>
<polyline points="679.89,303.21 476.17,383.05 272.44,344.61 68.72,405.23" style="stroke-width: 1.07;stroke: none;stroke-linecap: butt;"/>
<polyline points="68.72,405.10 272.44,346.05 476.17,377.63 679.89,322.51" style="stroke-width: 1.07;stroke: #F8766D; stroke-dasharray: 5.69, 5.69;stroke-linecap: butt;"/>
<polyline points="68.72,405.23 272.44,341.11 476.17,370.28 679.89,218.32" style="stroke-width: 1.07;stroke: #00BFC4; stroke-dasharray: 5.69, 5.69;stroke-linecap: butt;"/>
<polyline points="68.72,405.23 272.44,346.09 476.17,377.88 679.89,323.91" style="stroke-width: 1.07;stroke: #F8766D;stroke-linecap: butt;"/>
<polyline points="68.72,405.23 272.44,341.65 476.17,371.96 679.89,235.20" style="stroke-width: 1.07;stroke: #00BFC4;stroke-linecap: butt;"/>
<polygon points="68.72,404.49 272.44,342.39 476.17,366.79 679.89,281.78 679.89,358.66 476.17,387.49 272.44,349.05 68.72,405.23" style="stroke-width: 0.00;stroke: none;stroke-linecap: butt;fill: #F8766D;fill-opacity: 0.10;" />
<polyline points="68.72,404.49 272.44,342.39 476.17,366.79 679.89,281.78" style="stroke-width: 0.43;stroke: #F8766D;stroke-linecap: butt;"/>
<polyline points="679.89,358.66 476.17,387.49 272.44,349.05 68.72,405.23" style="stroke-width: 0.43;stroke: #F8766D;stroke-linecap: butt;"/>
<polygon points="68.72,405.23 272.44,332.78 476.17,342.39 679.89,24.52 679.89,354.26 476.17,391.92 272.44,346.83 68.72,405.23" style="stroke-width: 0.00;stroke: none;stroke-linecap: butt;fill: #00BFC4;fill-opacity: 0.10;" />
<polyline points="68.72,405.23 272.44,332.78 476.17,342.39 679.89,24.52" style="stroke-width: 0.43;stroke: #00BFC4;stroke-linecap: butt;"/>
<polyline points="679.89,354.26 476.17,391.92 272.44,346.83 68.72,405.23" style="stroke-width: 0.43;stroke: #00BFC4;stroke-linecap: butt;"/>
<polygon points="68.72,405.23 272.44,344.61 476.17,371.96 679.89,303.21 679.89,341.80 476.17,383.05 272.44,347.57 68.72,405.23" style="stroke-width: 0.00;stroke: none;stroke-linecap: butt;fill: #F8766D;fill-opacity: 0.10;" />
<polyline points="68.72,405.23 272.44,344.61 476.17,371.96 679.89,303.21" style="stroke-width: 1.07;stroke: none;stroke-linecap: butt;"/>
<polyline points="679.89,341.80 476.17,383.05 272.44,347.57 68.72,405.23" style="stroke-width: 1.07;stroke: none;stroke-linecap: butt;"/>
<polygon points="68.72,405.23 272.44,337.96 476.17,358.66 679.89,144.27 679.89,303.21 476.17,383.05 272.44,344.61 68.72,405.23" style="stroke-width: 0.00;stroke: none;stroke-linecap: butt;fill: #00BFC4;fill-opacity: 0.10;" />
<polyline points="68.72,405.23 272.44,337.96 476.17,358.66 679.89,144.27" style="stroke-width: 1.07;stroke: none;stroke-linecap: butt;"/>
<polyline points="679.89,303.21 476.17,383.05 272.44,344.61 68.72,405.23" style="stroke-width: 1.07;stroke: none;stroke-linecap: butt;"/>
<polygon points="68.72,399.97 71.35,404.53 66.09,404.53" style="stroke-width: 0.71;" />
<polygon points="272.44,333.44 275.08,338.00 269.81,338.00" style="stroke-width: 0.71;" />
<polygon points="476.17,372.62 478.80,377.18 473.53,377.18" style="stroke-width: 0.71;" />
<polygon points="679.89,312.00 682.52,316.56 677.26,316.56" style="stroke-width: 0.71;" />
<rect x="38.16" y="5.48" width="672.28" height="418.79" style="stroke-width: 1.07;stroke: #333333;"/>
</g><g clip-path="url(#c2)">
<g><text x="33.23" y="378.07" text-anchor="end" style="font-family: Arial;font-size: 8.80px;fill: #4D4D4D;" textLength="14.69px" lengthAdjust="spacingAndGlyphs">500</text></g>
<g><text x="33.23" y="304.15" text-anchor="end" style="font-family: Arial;font-size: 8.80px;fill: #4D4D4D;" textLength="14.69px" lengthAdjust="spacingAndGlyphs">600</text></g>
<g><text x="33.23" y="230.22" text-anchor="end" style="font-family: Arial;font-size: 8.80px;fill: #4D4D4D;" textLength="14.69px" lengthAdjust="spacingAndGlyphs">700</text></g>
<g><text x="33.23" y="156.30" text-anchor="end" style="font-family: Arial;font-size: 8.80px;fill: #4D4D4D;" textLength="14.69px" lengthAdjust="spacingAndGlyphs">800</text></g>
<g><text x="33.23" y="82.37" text-anchor="end" style="font-family: Arial;font-size: 8.80px;fill: #4D4D4D;" textLength="14.69px" lengthAdjust="spacingAndGlyphs">900</text></g>
<polyline points="35.42,374.92 38.16,374.92" style="stroke-width: 1.07;stroke: #333333;stroke-linecap: butt;"/>
<polyline points="35.42,301.00 38.16,301.00" style="stroke-width: 1.07;stroke: #333333;stroke-linecap: butt;"/>
<polyline points="35.42,227.07 38.16,227.07" style="stroke-width: 1.07;stroke: #333333;stroke-linecap: butt;"/>
<polyline points="35.42,153.15 38.16,153.15" style="stroke-width: 1.07;stroke: #333333;stroke-linecap: butt;"/>
<polyline points="35.42,79.22 38.16,79.22" style="stroke-width: 1.07;stroke: #333333;stroke-linecap: butt;"/>
<polyline points="214.24,427.01 214.24,424.27" style="stroke-width: 1.07;stroke: #333333;stroke-linecap: butt;"/>
<polyline points="417.96,427.01 417.96,424.27" style="stroke-width: 1.07;stroke: #333333;stroke-linecap: butt;"/>
<polyline points="621.68,427.01 621.68,424.27" style="stroke-width: 1.07;stroke: #333333;stroke-linecap: butt;"/>
<g><text x="214.24" y="435.50" text-anchor="middle" style="font-family: Arial;font-size: 8.80px;fill: #4D4D4D;" textLength="25.93px" lengthAdjust="spacingAndGlyphs">Apr 08</text></g>
<g><text x="417.96" y="435.50" text-anchor="middle" style="font-family: Arial;font-size: 8.80px;fill: #4D4D4D;" textLength="25.93px" lengthAdjust="spacingAndGlyphs">Apr 15</text></g>
<g><text x="621.68" y="435.50" text-anchor="middle" style="font-family: Arial;font-size: 8.80px;fill: #4D4D4D;" textLength="25.93px" lengthAdjust="spacingAndGlyphs">Apr 22</text></g>
<g><text x="374.31" y="448.09" text-anchor="middle" style="font-family: Arial;font-size: 11.00px;" textLength="23.23px" lengthAdjust="spacingAndGlyphs">Date</text></g>
<g><text transform="translate(13.37,214.87) rotate(-90.00)" text-anchor="middle" style="font-family: Arial;font-size: 11.00px;" textLength="99.04px" lengthAdjust="spacingAndGlyphs">Hospital Admissions</text></g>
<rect x="721.41" y="184.21" width="124.11" height="61.32" style="stroke-width: 1.07;stroke: none;fill: #FFFFFF;"/>
<g><text x="726.89" y="198.80" style="font-family: Arial;font-size: 11.00px;" textLength="29.97px" lengthAdjust="spacingAndGlyphs">Model</text></g>
<rect x="726.89" y="205.49" width="17.28" height="17.28" style="stroke-width: 1.07;stroke: none;fill: #FFFFFF;"/>
<line x1="728.61" y1="214.13" x2="742.44" y2="214.13" style="stroke-width: 1.07;stroke: #F8766D; stroke-dasharray: 5.69, 5.69;stroke-linecap: butt;"/>
<line x1="728.61" y1="214.13" x2="742.44" y2="214.13" style="stroke-width: 1.07;stroke: #F8766D;stroke-linecap: butt;"/>
<rect x="727.17" y="205.78" width="16.71" height="16.71" style="stroke-width: 0.43;stroke: #F8766D;stroke-linecap: butt;stroke-linejoin: miter;fill: #F8766D;fill-opacity: 0.10;"/>
<rect x="727.59" y="206.20" width="15.86" height="15.86" style="stroke-width: 1.07;stroke: none;stroke-linecap: butt;stroke-linejoin: miter;fill: #F8766D;fill-opacity: 0.10;"/>
<line x1="728.61" y1="214.13" x2="742.44" y2="214.13" style="stroke-width: 1.07;stroke: #F8766D; stroke-dasharray: 5.69, 5.69;stroke-linecap: butt;"/>
<line x1="728.61" y1="214.13" x2="742.44" y2="214.13" style="stroke-width: 1.07;stroke: #F8766D;stroke-linecap: butt;"/>
<rect x="727.17" y="205.78" width="16.71" height="16.71" style="stroke-width: 0.43;stroke: #F8766D;stroke-linecap: butt;stroke-linejoin: miter;fill: #F8766D;fill-opacity: 0.10;"/>
<rect x="727.59" y="206.20" width="15.86" height="15.86" style="stroke-width: 1.07;stroke: none;stroke-linecap: butt;stroke-linejoin: miter;fill: #F8766D;fill-opacity: 0.10;"/>
<rect x="726.89" y="222.77" width="17.28" height="17.28" style="stroke-width: 1.07;stroke: none;fill: #FFFFFF;"/>
<line x1="728.61" y1="231.41" x2="742.44" y2="231.41" style="stroke-width: 1.07;stroke: #00BFC4; stroke-dasharray: 5.69, 5.69;stroke-linecap: butt;"/>
<line x1="728.61" y1="231.41" x2="742.44" y2="231.41" style="stroke-width: 1.07;stroke: #00BFC4;stroke-linecap: butt;"/>
<rect x="727.17" y="223.06" width="16.71" height="16.71" style="stroke-width: 0.43;stroke: #00BFC4;stroke-linecap: butt;stroke-linejoin: miter;fill: #00BFC4;fill-opacity: 0.10;"/>
<rect x="727.59" y="223.48" width="15.86" height="15.86" style="stroke-width: 1.07;stroke: none;stroke-linecap: butt;stroke-linejoin: miter;fill: #00BFC4;fill-opacity: 0.10;"/>
<line x1="728.61" y1="231.41" x2="742.44" y2="231.41" style="stroke-width: 1.07;stroke: #00BFC4; stroke-dasharray: 5.69, 5.69;stroke-linecap: butt;"/>
<line x1="728.61" y1="231.41" x2="742.44" y2="231.41" style="stroke-width: 1.07;stroke: #00BFC4;stroke-linecap: butt;"/>
<rect x="727.17" y="223.06" width="16.71" height="16.71" style="stroke-width: 0.43;stroke: #00BFC4;stroke-linecap: butt;stroke-linejoin: miter;fill: #00BFC4;fill-opacity: 0.10;"/>
<rect x="727.59" y="223.48" width="15.86" height="15.86" style="stroke-width: 1.07;stroke: none;stroke-linecap: butt;stroke-linejoin: miter;fill: #00BFC4;fill-opacity: 0.10;"/>
<g><text x="749.65" y="217.29" style="font-family: Arial;font-size: 8.80px;" textLength="90.40px" lengthAdjust="spacingAndGlyphs">Daily/Weekly, DOW Eff</text></g>
<g><text x="749.65" y="234.57" style="font-family: Arial;font-size: 8.80px;" textLength="60.13px" lengthAdjust="spacingAndGlyphs">Weekly/Weekly</text></g>
</g>
</svg>