<svg xmlns="http://www.w3.org/2000/svg" xmlns:xlink="http://www.w3.org/1999/xlink" class="httpgd" width="1077.00" height="541.00" viewBox="0 0 1077.00 541.00">
<defs>
  <style type='text/css'><![CDATA[
    .httpgd line, .httpgd polyline, .httpgd polygon, .httpgd path, .httpgd rect, .httpgd circle {
      fill: none;
      stroke: #000000;
      stroke-linecap: round;
      stroke-linejoin: round;
      stroke-miterlimit: 10.00;
    }
  ]]></style>
<clipPath id="c0"><rect x="0.00" y="0.00" width="1077.00" height="541.00"/></clipPath>
<clipPath id="c1"><rect x="38.16" y="5.48" width="898.28" height="503.79"/></clipPath>
<clipPath id="c2"><rect x="0.00" y="0.00" width="1077.00" height="541.00"/></clipPath>
</defs>
<rect width="100%" height="100%" style="stroke: none;fill: #FFFFFF;"/>
<g clip-path="url(#c0)">
<rect x="0.00" y="0.00" width="1077.00" height="541.00" style="stroke-width: 1.07;stroke: #FFFFFF;fill: #FFFFFF;"/>
</g><g clip-path="url(#c1)">
<rect x="38.16" y="5.48" width="898.28" height="503.79" style="stroke-width: 1.07;stroke: none;fill: #FFFFFF;"/>
<polyline points="38.16,446.10 936.45,446.10" style="stroke-width: 0.53;stroke: #EBEBEB;stroke-linecap: butt;"/>
<polyline points="38.16,320.28 936.45,320.28" style="stroke-width: 0.53;stroke: #EBEBEB;stroke-linecap: butt;"/>
<polyline points="38.16,194.46 936.45,194.46" style="stroke-width: 0.53;stroke: #EBEBEB;stroke-linecap: butt;"/>
<polyline points="38.16,68.64 936.45,68.64" style="stroke-width: 0.53;stroke: #EBEBEB;stroke-linecap: butt;"/>
<polyline points="137.32,509.27 137.32,5.48" style="stroke-width: 0.53;stroke: #EBEBEB;stroke-linecap: butt;"/>
<polyline points="409.53,509.27 409.53,5.48" style="stroke-width: 0.53;stroke: #EBEBEB;stroke-linecap: butt;"/>
<polyline points="681.74,509.27 681.74,5.48" style="stroke-width: 0.53;stroke: #EBEBEB;stroke-linecap: butt;"/>
<polyline points="38.16,509.01 936.45,509.01" style="stroke-width: 1.07;stroke: #EBEBEB;stroke-linecap: butt;"/>
<polyline points="38.16,383.19 936.45,383.19" style="stroke-width: 1.07;stroke: #EBEBEB;stroke-linecap: butt;"/>
<polyline points="38.16,257.37 936.45,257.37" style="stroke-width: 1.07;stroke: #EBEBEB;stroke-linecap: butt;"/>
<polyline points="38.16,131.55 936.45,131.55" style="stroke-width: 1.07;stroke: #EBEBEB;stroke-linecap: butt;"/>
<polyline points="38.16,5.73 936.45,5.73" style="stroke-width: 1.07;stroke: #EBEBEB;stroke-linecap: butt;"/>
<polyline points="273.43,509.27 273.43,5.48" style="stroke-width: 1.07;stroke: #EBEBEB;stroke-linecap: butt;"/>
<polyline points="545.64,509.27 545.64,5.48" style="stroke-width: 1.07;stroke: #EBEBEB;stroke-linecap: butt;"/>
<polyline points="817.84,509.27 817.84,5.48" style="stroke-width: 1.07;stroke: #EBEBEB;stroke-linecap: butt;"/>
<polyline points="78.99,485.92 351.20,284.93 623.41,392.42 895.62,204.79" style="stroke-width: 1.07;stroke: #F8766D; stroke-dasharray: 5.69, 5.69;stroke-linecap: butt;"/>
<polyline points="78.99,486.37 351.20,268.50 623.41,377.23 895.62,164.24" style="stroke-width: 1.07;stroke: #00BFC4; stroke-dasharray: 5.69, 5.69;stroke-linecap: butt;"/>
<polyline points="78.99,486.37 351.20,285.05 623.41,393.26 895.62,209.56" style="stroke-width: 1.07;stroke: #F8766D;stroke-linecap: butt;"/>
<polyline points="78.99,486.37 351.20,269.95 623.41,378.16 895.62,169.30" style="stroke-width: 1.07;stroke: #00BFC4;stroke-linecap: butt;"/>
<polygon points="78.99,483.85 351.20,272.47 623.41,355.51 895.62,66.13 895.62,327.83 623.41,425.97 351.20,295.12 78.99,486.37" style="stroke-width: 0.00;stroke: none;stroke-linecap: butt;fill: #F8766D;fill-opacity: 0.10;" />
<polyline points="78.99,483.85 351.20,272.47 623.41,355.51 895.62,66.13" style="stroke-width: 0.43;stroke: #F8766D;stroke-linecap: butt;"/>
<polyline points="895.62,327.83 623.41,425.97 351.20,295.12 78.99,486.37" style="stroke-width: 0.43;stroke: #F8766D;stroke-linecap: butt;"/>
<polygon points="78.99,486.37 351.20,252.34 623.41,335.38 895.62,28.38 895.62,287.57 623.41,415.91 351.20,282.54 78.99,486.37" style="stroke-width: 0.00;stroke: none;stroke-linecap: butt;fill: #00BFC4;fill-opacity: 0.10;" />
<polyline points="78.99,486.37 351.20,252.34 623.41,335.38 895.62,28.38" style="stroke-width: 0.43;stroke: #00BFC4;stroke-linecap: butt;"/>
<polyline points="895.62,287.57 623.41,415.91 351.20,282.54 78.99,486.37" style="stroke-width: 0.43;stroke: #00BFC4;stroke-linecap: butt;"/>
<polygon points="78.99,486.37 351.20,280.02 623.41,373.13 895.62,139.10 895.62,270.46 623.41,410.87 351.20,290.09 78.99,486.37" style="stroke-width: 0.00;stroke: none;stroke-linecap: butt;fill: #F8766D;fill-opacity: 0.10;" />
<polyline points="78.99,486.37 351.20,280.02 623.41,373.13 895.62,139.10" style="stroke-width: 1.07;stroke: none;stroke-linecap: butt;"/>
<polyline points="895.62,270.46 623.41,410.87 351.20,290.09 78.99,486.37" style="stroke-width: 1.07;stroke: none;stroke-linecap: butt;"/>
<polygon points="78.99,486.37 351.20,259.89 623.41,358.03 895.62,98.84 895.62,229.69 623.41,398.29 351.20,277.50 78.99,486.37" style="stroke-width: 0.00;stroke: none;stroke-linecap: butt;fill: #00BFC4;fill-opacity: 0.10;" />
<polyline points="78.99,486.37 351.20,259.89 623.41,358.03 895.62,98.84" style="stroke-width: 1.07;stroke: none;stroke-linecap: butt;"/>
<polyline points="895.62,229.69 623.41,398.29 351.20,277.50 78.99,486.37" style="stroke-width: 1.07;stroke: none;stroke-linecap: butt;"/>
<polyline points="78.99,485.92 351.20,284.93 623.41,392.42 895.62,204.79" style="stroke-width: 1.07;stroke: #F8766D; stroke-dasharray: 5.69, 5.69;stroke-linecap: butt;"/>
<polyline points="78.99,486.37 351.20,268.50 623.41,377.23 895.62,164.24" style="stroke-width: 1.07;stroke: #00BFC4; stroke-dasharray: 5.69, 5.69;stroke-linecap: butt;"/>
<polyline points="78.99,486.37 351.20,285.05 623.41,393.26 895.62,209.56" style="stroke-width: 1.07;stroke: #F8766D;stroke-linecap: butt;"/>
<polyline points="78.99,486.37 351.20,269.95 623.41,378.16 895.62,169.30" style="stroke-width: 1.07;stroke: #00BFC4;stroke-linecap: butt;"/>
<polygon points="78.99,483.85 351.20,272.47 623.41,355.51 895.62,66.13 895.62,327.83 623.41,425.97 351.20,295.12 78.99,486.37" style="stroke-width: 0.00;stroke: none;stroke-linecap: butt;fill: #F8766D;fill-opacity: 0.10;" />
<polyline points="78.99,483.85 351.20,272.47 623.41,355.51 895.62,66.13" style="stroke-width: 0.43;stroke: #F8766D;stroke-linecap: butt;"/>
<polyline points="895.62,327.83 623.41,425.97 351.20,295.12 78.99,486.37" style="stroke-width: 0.43;stroke: #F8766D;stroke-linecap: butt;"/>
<polygon points="78.99,486.37 351.20,252.34 623.41,335.38 895.62,28.38 895.62,287.57 623.41,415.91 351.20,282.54 78.99,486.37" style="stroke-width: 0.00;stroke: none;stroke-linecap: butt;fill: #00BFC4;fill-opacity: 0.10;" />
<polyline points="78.99,486.37 351.20,252.34 623.41,335.38 895.62,28.38" style="stroke-width: 0.43;stroke: #00BFC4;stroke-linecap: butt;"/>
<polyline points="895.62,287.57 623.41,415.91 351.20,282.54 78.99,486.37" style="stroke-width: 0.43;stroke: #00BFC4;stroke-linecap: butt;"/>
<polygon points="78.99,486.37 351.20,280.02 623.41,373.13 895.62,139.10 895.62,270.46 623.41,410.87 351.20,290.09 78.99,486.37" style="stroke-width: 0.00;stroke: none;stroke-linecap: butt;fill: #F8766D;fill-opacity: 0.10;" />
<polyline points="78.99,486.37 351.20,280.02 623.41,373.13 895.62,139.10" style="stroke-width: 1.07;stroke: none;stroke-linecap: butt;"/>
<polyline points="895.62,270.46 623.41,410.87 351.20,290.09 78.99,486.37" style="stroke-width: 1.07;stroke: none;stroke-linecap: butt;"/>
<polygon points="78.99,486.37 351.20,259.89 623.41,358.03 895.62,98.84 895.62,229.69 623.41,398.29 351.20,277.50 78.99,486.37" style="stroke-width: 0.00;stroke: none;stroke-linecap: butt;fill: #00BFC4;fill-opacity: 0.10;" />
<polyline points="78.99,486.37 351.20,259.89 623.41,358.03 895.62,98.84" style="stroke-width: 1.07;stroke: none;stroke-linecap: butt;"/>
<polyline points="895.62,229.69 623.41,398.29 351.20,277.50 78.99,486.37" style="stroke-width: 1.07;stroke: none;stroke-linecap: butt;"/>
<polygon points="78.99,483.33 81.63,487.89 76.36,487.89" style="stroke-width: 0.71;" />
<polygon points="351.20,256.85 353.83,261.41 348.57,261.41" style="stroke-width: 0.71;" />
<polygon points="623.41,390.22 626.04,394.78 620.78,394.78" style="stroke-width: 0.71;" />
<polygon points="895.62,183.87 898.25,188.43 892.98,188.43" style="stroke-width: 0.71;" />
<rect x="38.16" y="5.48" width="898.28" height="503.79" style="stroke-width: 1.07;stroke: #333333;"/>
</g><g clip-path="url(#c2)">
<g><text x="33.23" y="512.17" text-anchor="end" style="font-family: Arial;font-size: 8.80px;fill: #4D4D4D;" textLength="14.69px" lengthAdjust="spacingAndGlyphs">450</text></g>
<g><text x="33.23" y="386.35" text-anchor="end" style="font-family: Arial;font-size: 8.80px;fill: #4D4D4D;" textLength="14.69px" lengthAdjust="spacingAndGlyphs">500</text></g>
<g><text x="33.23" y="260.53" text-anchor="end" style="font-family: Arial;font-size: 8.80px;fill: #4D4D4D;" textLength="14.69px" lengthAdjust="spacingAndGlyphs">550</text></g>
<g><text x="33.23" y="134.71" text-anchor="end" style="font-family: Arial;font-size: 8.80px;fill: #4D4D4D;" textLength="14.69px" lengthAdjust="spacingAndGlyphs">600</text></g>
<g><text x="33.23" y="8.88" text-anchor="end" style="font-family: Arial;font-size: 8.80px;fill: #4D4D4D;" textLength="14.69px" lengthAdjust="spacingAndGlyphs">650</text></g>
<polyline points="35.42,509.01 38.16,509.01" style="stroke-width: 1.07;stroke: #333333;stroke-linecap: butt;"/>
<polyline points="35.42,383.19 38.16,383.19" style="stroke-width: 1.07;stroke: #333333;stroke-linecap: butt;"/>
<polyline points="35.42,257.37 38.16,257.37" style="stroke-width: 1.07;stroke: #333333;stroke-linecap: butt;"/>
<polyline points="35.42,131.55 38.16,131.55" style="stroke-width: 1.07;stroke: #333333;stroke-linecap: butt;"/>
<polyline points="35.42,5.73 38.16,5.73" style="stroke-width: 1.07;stroke: #333333;stroke-linecap: butt;"/>
<polyline points="273.43,512.01 273.43,509.27" style="stroke-width: 1.07;stroke: #333333;stroke-linecap: butt;"/>
<polyline points="545.64,512.01 545.64,509.27" style="stroke-width: 1.07;stroke: #333333;stroke-linecap: butt;"/>
<polyline points="817.84,512.01 817.84,509.27" style="stroke-width: 1.07;stroke: #333333;stroke-linecap: butt;"/>
<g><text x="273.43" y="520.50" text-anchor="middle" style="font-family: Arial;font-size: 8.80px;fill: #4D4D4D;" textLength="25.93px" lengthAdjust="spacingAndGlyphs">Apr 08</text></g>
<g><text x="545.64" y="520.50" text-anchor="middle" style="font-family: Arial;font-size: 8.80px;fill: #4D4D4D;" textLength="25.93px" lengthAdjust="spacingAndGlyphs">Apr 15</text></g>
<g><text x="817.84" y="520.50" text-anchor="middle" style="font-family: Arial;font-size: 8.80px;fill: #4D4D4D;" textLength="25.93px" lengthAdjust="spacingAndGlyphs">Apr 22</text></g>
<g><text x="487.31" y="533.09" text-anchor="middle" style="font-family: Arial;font-size: 11.00px;" textLength="23.23px" lengthAdjust="spacingAndGlyphs">Date</text></g>
<g><text transform="translate(13.37,257.37) rotate(-90.00)" text-anchor="middle" style="font-family: Arial;font-size: 11.00px;" textLength="99.04px" lengthAdjust="spacingAndGlyphs">Hospital Admissions</text></g>
<rect x="947.41" y="226.71" width="124.11" height="61.32" style="stroke-width: 1.07;stroke: none;fill: #FFFFFF;"/>
<g><text x="952.89" y="241.30" style="font-family: Arial;font-size: 11.00px;" textLength="29.97px" lengthAdjust="spacingAndGlyphs">Model</text></g>
<rect x="952.89" y="247.99" width="17.28" height="17.28" style="stroke-width: 1.07;stroke: none;fill: #FFFFFF;"/>
<line x1="954.61" y1="256.63" x2="968.44" y2="256.63" style="stroke-width: 1.07;stroke: #F8766D; stroke-dasharray: 5.69, 5.69;stroke-linecap: butt;"/>
<line x1="954.61" y1="256.63" x2="968.44" y2="256.63" style="stroke-width: 1.07;stroke: #F8766D;stroke-linecap: butt;"/>
<rect x="953.17" y="248.28" width="16.71" height="16.71" style="stroke-width: 0.43;stroke: #F8766D;stroke-linecap: butt;stroke-linejoin: miter;fill: #F8766D;fill-opacity: 0.10;"/>
<rect x="953.59" y="248.70" width="15.86" height="15.86" style="stroke-width: 1.07;stroke: none;stroke-linecap: butt;stroke-linejoin: miter;fill: #F8766D;fill-opacity: 0.10;"/>
<line x1="954.61" y1="256.63" x2="968.44" y2="256.63" style="stroke-width: 1.07;stroke: #F8766D; stroke-dasharray: 5.69, 5.69;stroke-linecap: butt;"/>
<line x1="954.61" y1="256.63" x2="968.44" y2="256.63" style="stroke-width: 1.07;stroke: #F8766D;stroke-linecap: butt;"/>
<rect x="953.17" y="248.28" width="16.71" height="16.71" style="stroke-width: 0.43;stroke: #F8766D;stroke-linecap: butt;stroke-linejoin: miter;fill: #F8766D;fill-opacity: 0.10;"/>
<rect x="953.59" y="248.70" width="15.86" height="15.86" style="stroke-width: 1.07;stroke: none;stroke-linecap: butt;stroke-linejoin: miter;fill: #F8766D;fill-opacity: 0.10;"/>
<rect x="952.89" y="265.27" width="17.28" height="17.28" style="stroke-width: 1.07;stroke: none;fill: #FFFFFF;"/>
<line x1="954.61" y1="273.91" x2="968.44" y2="273.91" style="stroke-width: 1.07;stroke: #00BFC4; stroke-dasharray: 5.69, 5.69;stroke-linecap: butt;"/>
<line x1="954.61" y1="273.91" x2="968.44" y2="273.91" style="stroke-width: 1.07;stroke: #00BFC4;stroke-linecap: butt;"/>
<rect x="953.17" y="265.56" width="16.71" height="16.71" style="stroke-width: 0.43;stroke: #00BFC4;stroke-linecap: butt;stroke-linejoin: miter;fill: #00BFC4;fill-opacity: 0.10;"/>
<rect x="953.59" y="265.98" width="15.86" height="15.86" style="stroke-width: 1.07;stroke: none;stroke-linecap: butt;stroke-linejoin: miter;fill: #00BFC4;fill-opacity: 0.10;"/>
<line x1="954.61" y1="273.91" x2="968.44" y2="273.91" style="stroke-width: 1.07;stroke: #00BFC4; stroke-dasharray: 5.69, 5.69;stroke-linecap: butt;"/>
<line x1="954.61" y1="273.91" x2="968.44" y2="273.91" style="stroke-width: 1.07;stroke: #00BFC4;stroke-linecap: butt;"/>
<rect x="953.17" y="265.56" width="16.71" height="16.71" style="stroke-width: 0.43;stroke: #00BFC4;stroke-linecap: butt;stroke-linejoin: miter;fill: #00BFC4;fill-opacity: 0.10;"/>
<rect x="953.59" y="265.98" width="15.86" height="15.86" style="stroke-width: 1.07;stroke: none;stroke-linecap: butt;stroke-linejoin: miter;fill: #00BFC4;fill-opacity: 0.10;"/>
<g><text x="975.65" y="259.79" style="font-family: Arial;font-size: 8.80px;" textLength="90.40px" lengthAdjust="spacingAndGlyphs">Daily/Weekly, DOW Eff</text></g>
<g><text x="975.65" y="277.07" style="font-family: Arial;font-size: 8.80px;" textLength="60.13px" lengthAdjust="spacingAndGlyphs">Weekly/Weekly</text></g>
</g>
</svg>