<svg xmlns="http://www.w3.org/2000/svg" xmlns:xlink="http://www.w3.org/1999/xlink" class="httpgd" width="1187.00" height="541.00" viewBox="0 0 1187.00 541.00">
<defs>
  <style type='text/css'><![CDATA[
    .httpgd line, .httpgd polyline, .httpgd polygon, .httpgd path, .httpgd rect, .httpgd circle {
      fill: none;
      stroke: #000000;
      stroke-linecap: round;
      stroke-linejoin: round;
      stroke-miterlimit: 10.00;
    }
  ]]></style>
<clipPath id="c0"><rect x="0.00" y="0.00" width="1187.00" height="541.00"/></clipPath>
<clipPath id="c1"><rect x="38.16" y="5.48" width="974.00" height="503.79"/></clipPath>
<clipPath id="c2"><rect x="0.00" y="0.00" width="1187.00" height="541.00"/></clipPath>
</defs>
<rect width="100%" height="100%" style="stroke: none;fill: #FFFFFF;"/>
<g clip-path="url(#c0)">
<rect x="0.00" y="0.00" width="1187.00" height="541.00" style="stroke-width: 1.07;stroke: #FFFFFF;fill: #FFFFFF;"/>
</g><g clip-path="url(#c1)">
<rect x="38.16" y="5.48" width="974.00" height="503.79" style="stroke-width: 1.07;stroke: none;fill: #FFFFFF;"/>
<polyline points="38.16,443.82 1012.16,443.82" style="stroke-width: 0.53;stroke: #EBEBEB;stroke-linecap: butt;"/>
<polyline points="38.16,318.69 1012.16,318.69" style="stroke-width: 0.53;stroke: #EBEBEB;stroke-linecap: butt;"/>
<polyline points="38.16,193.55 1012.16,193.55" style="stroke-width: 0.53;stroke: #EBEBEB;stroke-linecap: butt;"/>
<polyline points="38.16,68.42 1012.16,68.42" style="stroke-width: 0.53;stroke: #EBEBEB;stroke-linecap: butt;"/>
<polyline points="145.68,509.27 145.68,5.48" style="stroke-width: 0.53;stroke: #EBEBEB;stroke-linecap: butt;"/>
<polyline points="440.83,509.27 440.83,5.48" style="stroke-width: 0.53;stroke: #EBEBEB;stroke-linecap: butt;"/>
<polyline points="735.98,509.27 735.98,5.48" style="stroke-width: 0.53;stroke: #EBEBEB;stroke-linecap: butt;"/>
<polyline points="38.16,506.39 1012.16,506.39" style="stroke-width: 1.07;stroke: #EBEBEB;stroke-linecap: butt;"/>
<polyline points="38.16,381.25 1012.16,381.25" style="stroke-width: 1.07;stroke: #EBEBEB;stroke-linecap: butt;"/>
<polyline points="38.16,256.12 1012.16,256.12" style="stroke-width: 1.07;stroke: #EBEBEB;stroke-linecap: butt;"/>
<polyline points="38.16,130.99 1012.16,130.99" style="stroke-width: 1.07;stroke: #EBEBEB;stroke-linecap: butt;"/>
<polyline points="38.16,5.85 1012.16,5.85" style="stroke-width: 1.07;stroke: #EBEBEB;stroke-linecap: butt;"/>
<polyline points="293.26,509.27 293.26,5.48" style="stroke-width: 1.07;stroke: #EBEBEB;stroke-linecap: butt;"/>
<polyline points="588.41,509.27 588.41,5.48" style="stroke-width: 1.07;stroke: #EBEBEB;stroke-linecap: butt;"/>
<polyline points="883.56,509.27 883.56,5.48" style="stroke-width: 1.07;stroke: #EBEBEB;stroke-linecap: butt;"/>
<polyline points="82.44,480.06 377.59,258.52 672.74,355.79 967.89,235.74" style="stroke-width: 1.07;stroke: #F8766D; stroke-dasharray: 5.69, 5.69;stroke-linecap: butt;"/>
<polyline points="82.44,483.86 377.59,267.19 672.74,375.32 967.89,163.49" style="stroke-width: 1.07;stroke: #00BFC4; stroke-dasharray: 5.69, 5.69;stroke-linecap: butt;"/>
<polyline points="82.44,481.36 377.59,258.62 672.74,356.23 967.89,241.11" style="stroke-width: 1.07;stroke: #F8766D;stroke-linecap: butt;"/>
<polyline points="82.44,483.86 377.59,268.63 672.74,376.25 967.89,168.53" style="stroke-width: 1.07;stroke: #00BFC4;stroke-linecap: butt;"/>
<polygon points="82.44,471.35 377.59,238.60 672.74,306.17 967.89,83.44 967.89,371.24 672.74,398.90 377.59,276.14 82.44,486.37" style="stroke-width: 0.00;stroke: none;stroke-linecap: butt;fill: #F8766D;fill-opacity: 0.10;" />
<polyline points="82.44,471.35 377.59,238.60 672.74,306.17 967.89,83.44" style="stroke-width: 0.43;stroke: #F8766D;stroke-linecap: butt;"/>
<polyline points="967.89,371.24 672.74,398.90 377.59,276.14 82.44,486.37" style="stroke-width: 0.43;stroke: #F8766D;stroke-linecap: butt;"/>
<polygon points="82.44,483.86 377.59,251.12 672.74,333.70 967.89,28.38 967.89,286.15 672.74,413.79 377.59,281.15 82.44,483.86" style="stroke-width: 0.00;stroke: none;stroke-linecap: butt;fill: #00BFC4;fill-opacity: 0.10;" />
<polyline points="82.44,483.86 377.59,251.12 672.74,333.70 967.89,28.38" style="stroke-width: 0.43;stroke: #00BFC4;stroke-linecap: butt;"/>
<polyline points="967.89,286.15 672.74,413.79 377.59,281.15 82.44,483.86" style="stroke-width: 0.43;stroke: #00BFC4;stroke-linecap: butt;"/>
<polygon points="82.44,476.36 377.59,248.61 672.74,331.20 967.89,163.52 967.89,311.18 672.74,378.75 377.59,268.63 82.44,483.86" style="stroke-width: 0.00;stroke: none;stroke-linecap: butt;fill: #F8766D;fill-opacity: 0.10;" />
<polyline points="82.44,476.36 377.59,248.61 672.74,331.20 967.89,163.52" style="stroke-width: 1.07;stroke: none;stroke-linecap: butt;"/>
<polyline points="967.89,311.18 672.74,378.75 377.59,268.63 82.44,483.86" style="stroke-width: 1.07;stroke: none;stroke-linecap: butt;"/>
<polygon points="82.44,483.86 377.59,258.62 672.74,356.23 967.89,98.45 967.89,228.59 672.74,396.27 377.59,276.14 82.44,483.86" style="stroke-width: 0.00;stroke: none;stroke-linecap: butt;fill: #00BFC4;fill-opacity: 0.10;" />
<polyline points="82.44,483.86 377.59,258.62 672.74,356.23 967.89,98.45" style="stroke-width: 1.07;stroke: none;stroke-linecap: butt;"/>
<polyline points="967.89,228.59 672.74,396.27 377.59,276.14 82.44,483.86" style="stroke-width: 1.07;stroke: none;stroke-linecap: butt;"/>
<polyline points="82.44,480.06 377.59,258.52 672.74,355.79 967.89,235.74" style="stroke-width: 1.07;stroke: #F8766D; stroke-dasharray: 5.69, 5.69;stroke-linecap: butt;"/>
<polyline points="82.44,483.86 377.59,267.19 672.74,375.32 967.89,163.49" style="stroke-width: 1.07;stroke: #00BFC4; stroke-dasharray: 5.69, 5.69;stroke-linecap: butt;"/>
<polyline points="82.44,481.36 377.59,258.62 672.74,356.23 967.89,241.11" style="stroke-width: 1.07;stroke: #F8766D;stroke-linecap: butt;"/>
<polyline points="82.44,483.86 377.59,268.63 672.74,376.25 967.89,168.53" style="stroke-width: 1.07;stroke: #00BFC4;stroke-linecap: butt;"/>
<polygon points="82.44,471.35 377.59,238.60 672.74,306.17 967.89,83.44 967.89,371.24 672.74,398.90 377.59,276.14 82.44,486.37" style="stroke-width: 0.00;stroke: none;stroke-linecap: butt;fill: #F8766D;fill-opacity: 0.10;" />
<polyline points="82.44,471.35 377.59,238.60 672.74,306.17 967.89,83.44" style="stroke-width: 0.43;stroke: #F8766D;stroke-linecap: butt;"/>
<polyline points="967.89,371.24 672.74,398.90 377.59,276.14 82.44,486.37" style="stroke-width: 0.43;stroke: #F8766D;stroke-linecap: butt;"/>
<polygon points="82.44,483.86 377.59,251.12 672.74,333.70 967.89,28.38 967.89,286.15 672.74,413.79 377.59,281.15 82.44,483.86" style="stroke-width: 0.00;stroke: none;stroke-linecap: butt;fill: #00BFC4;fill-opacity: 0.10;" />
<polyline points="82.44,483.86 377.59,251.12 672.74,333.70 967.89,28.38" style="stroke-width: 0.43;stroke: #00BFC4;stroke-linecap: butt;"/>
<polyline points="967.89,286.15 672.74,413.79 377.59,281.15 82.44,483.86" style="stroke-width: 0.43;stroke: #00BFC4;stroke-linecap: butt;"/>
<polygon points="82.44,476.36 377.59,248.61 672.74,331.20 967.89,163.52 967.89,311.18 672.74,378.75 377.59,268.63 82.44,483.86" style="stroke-width: 0.00;stroke: none;stroke-linecap: butt;fill: #F8766D;fill-opacity: 0.10;" />
<polyline points="82.44,476.36 377.59,248.61 672.74,331.20 967.89,163.52" style="stroke-width: 1.07;stroke: none;stroke-linecap: butt;"/>
<polyline points="967.89,311.18 672.74,378.75 377.59,268.63 82.44,483.86" style="stroke-width: 1.07;stroke: none;stroke-linecap: butt;"/>
<polygon points="82.44,483.86 377.59,258.62 672.74,356.23 967.89,98.45 967.89,228.59 672.74,396.27 377.59,276.14 82.44,483.86" style="stroke-width: 0.00;stroke: none;stroke-linecap: butt;fill: #00BFC4;fill-opacity: 0.10;" />
<polyline points="82.44,483.86 377.59,258.62 672.74,356.23 967.89,98.45" style="stroke-width: 1.07;stroke: none;stroke-linecap: butt;"/>
<polyline points="967.89,228.59 672.74,396.27 377.59,276.14 82.44,483.86" style="stroke-width: 1.07;stroke: none;stroke-linecap: butt;"/>
<polygon points="82.44,480.82 85.07,485.38 79.80,485.38" style="stroke-width: 0.71;" />
<polygon points="377.59,255.58 380.22,260.14 374.95,260.14" style="stroke-width: 0.71;" />
<polygon points="672.74,388.23 675.37,392.79 670.10,392.79" style="stroke-width: 0.71;" />
<polygon points="967.89,183.01 970.52,187.57 965.26,187.57" style="stroke-width: 0.71;" />
<rect x="38.16" y="5.48" width="974.00" height="503.79" style="stroke-width: 1.07;stroke: #333333;"/>
</g><g clip-path="url(#c2)">
<g><text x="33.23" y="509.54" text-anchor="end" style="font-family: Arial;font-size: 8.80px;fill: #4D4D4D;" textLength="14.69px" lengthAdjust="spacingAndGlyphs">450</text></g>
<g><text x="33.23" y="384.41" text-anchor="end" style="font-family: Arial;font-size: 8.80px;fill: #4D4D4D;" textLength="14.69px" lengthAdjust="spacingAndGlyphs">500</text></g>
<g><text x="33.23" y="259.28" text-anchor="end" style="font-family: Arial;font-size: 8.80px;fill: #4D4D4D;" textLength="14.69px" lengthAdjust="spacingAndGlyphs">550</text></g>
<g><text x="33.23" y="134.14" text-anchor="end" style="font-family: Arial;font-size: 8.80px;fill: #4D4D4D;" textLength="14.69px" lengthAdjust="spacingAndGlyphs">600</text></g>
<g><text x="33.23" y="9.01" text-anchor="end" style="font-family: Arial;font-size: 8.80px;fill: #4D4D4D;" textLength="14.69px" lengthAdjust="spacingAndGlyphs">650</text></g>
<polyline points="35.42,506.39 38.16,506.39" style="stroke-width: 1.07;stroke: #333333;stroke-linecap: butt;"/>
<polyline points="35.42,381.25 38.16,381.25" style="stroke-width: 1.07;stroke: #333333;stroke-linecap: butt;"/>
<polyline points="35.42,256.12 38.16,256.12" style="stroke-width: 1.07;stroke: #333333;stroke-linecap: butt;"/>
<polyline points="35.42,130.99 38.16,130.99" style="stroke-width: 1.07;stroke: #333333;stroke-linecap: butt;"/>
<polyline points="35.42,5.85 38.16,5.85" style="stroke-width: 1.07;stroke: #333333;stroke-linecap: butt;"/>
<polyline points="293.26,512.01 293.26,509.27" style="stroke-width: 1.07;stroke: #333333;stroke-linecap: butt;"/>
<polyline points="588.41,512.01 588.41,509.27" style="stroke-width: 1.07;stroke: #333333;stroke-linecap: butt;"/>
<polyline points="883.56,512.01 883.56,509.27" style="stroke-width: 1.07;stroke: #333333;stroke-linecap: butt;"/>
<g><text x="293.26" y="520.50" text-anchor="middle" style="font-family: Arial;font-size: 8.80px;fill: #4D4D4D;" textLength="25.93px" lengthAdjust="spacingAndGlyphs">Apr 08</text></g>
<g><text x="588.41" y="520.50" text-anchor="middle" style="font-family: Arial;font-size: 8.80px;fill: #4D4D4D;" textLength="25.93px" lengthAdjust="spacingAndGlyphs">Apr 15</text></g>
<g><text x="883.56" y="520.50" text-anchor="middle" style="font-family: Arial;font-size: 8.80px;fill: #4D4D4D;" textLength="25.93px" lengthAdjust="spacingAndGlyphs">Apr 22</text></g>
<g><text x="525.16" y="533.09" text-anchor="middle" style="font-family: Arial;font-size: 11.00px;" textLength="23.23px" lengthAdjust="spacingAndGlyphs">Date</text></g>
<g><text transform="translate(13.37,257.37) rotate(-90.00)" text-anchor="middle" style="font-family: Arial;font-size: 11.00px;" textLength="99.04px" lengthAdjust="spacingAndGlyphs">Hospital Admissions</text></g>
<rect x="1023.12" y="226.71" width="158.40" height="61.32" style="stroke-width: 1.07;stroke: none;fill: #FFFFFF;"/>
<g><text x="1028.60" y="241.30" style="font-family: Arial;font-size: 11.00px;" textLength="29.97px" lengthAdjust="spacingAndGlyphs">Model</text></g>
<rect x="1028.60" y="247.99" width="17.28" height="17.28" style="stroke-width: 1.07;stroke: none;fill: #FFFFFF;"/>
<line x1="1030.33" y1="256.63" x2="1044.15" y2="256.63" style="stroke-width: 1.07;stroke: #F8766D; stroke-dasharray: 5.69, 5.69;stroke-linecap: butt;"/>
<line x1="1030.33" y1="256.63" x2="1044.15" y2="256.63" style="stroke-width: 1.07;stroke: #F8766D;stroke-linecap: butt;"/>
<rect x="1028.88" y="248.28" width="16.71" height="16.71" style="stroke-width: 0.43;stroke: #F8766D;stroke-linecap: butt;stroke-linejoin: miter;fill: #F8766D;fill-opacity: 0.10;"/>
<rect x="1029.31" y="248.70" width="15.86" height="15.86" style="stroke-width: 1.07;stroke: none;stroke-linecap: butt;stroke-linejoin: miter;fill: #F8766D;fill-opacity: 0.10;"/>
<line x1="1030.33" y1="256.63" x2="1044.15" y2="256.63" style="stroke-width: 1.07;stroke: #F8766D; stroke-dasharray: 5.69, 5.69;stroke-linecap: butt;"/>
<line x1="1030.33" y1="256.63" x2="1044.15" y2="256.63" style="stroke-width: 1.07;stroke: #F8766D;stroke-linecap: butt;"/>
<rect x="1028.88" y="248.28" width="16.71" height="16.71" style="stroke-width: 0.43;stroke: #F8766D;stroke-linecap: butt;stroke-linejoin: miter;fill: #F8766D;fill-opacity: 0.10;"/>
<rect x="1029.31" y="248.70" width="15.86" height="15.86" style="stroke-width: 1.07;stroke: none;stroke-linecap: butt;stroke-linejoin: miter;fill: #F8766D;fill-opacity: 0.10;"/>
<rect x="1028.60" y="265.27" width="17.28" height="17.28" style="stroke-width: 1.07;stroke: none;fill: #FFFFFF;"/>
<line x1="1030.33" y1="273.91" x2="1044.15" y2="273.91" style="stroke-width: 1.07;stroke: #00BFC4; stroke-dasharray: 5.69, 5.69;stroke-linecap: butt;"/>
<line x1="1030.33" y1="273.91" x2="1044.15" y2="273.91" style="stroke-width: 1.07;stroke: #00BFC4;stroke-linecap: butt;"/>
<rect x="1028.88" y="265.56" width="16.71" height="16.71" style="stroke-width: 0.43;stroke: #00BFC4;stroke-linecap: butt;stroke-linejoin: miter;fill: #00BFC4;fill-opacity: 0.10;"/>
<rect x="1029.31" y="265.98" width="15.86" height="15.86" style="stroke-width: 1.07;stroke: none;stroke-linecap: butt;stroke-linejoin: miter;fill: #00BFC4;fill-opacity: 0.10;"/>
<line x1="1030.33" y1="273.91" x2="1044.15" y2="273.91" style="stroke-width: 1.07;stroke: #00BFC4; stroke-dasharray: 5.69, 5.69;stroke-linecap: butt;"/>
<line x1="1030.33" y1="273.91" x2="1044.15" y2="273.91" style="stroke-width: 1.07;stroke: #00BFC4;stroke-linecap: butt;"/>
<rect x="1028.88" y="265.56" width="16.71" height="16.71" style="stroke-width: 0.43;stroke: #00BFC4;stroke-linecap: butt;stroke-linejoin: miter;fill: #00BFC4;fill-opacity: 0.10;"/>
<rect x="1029.31" y="265.98" width="15.86" height="15.86" style="stroke-width: 1.07;stroke: none;stroke-linecap: butt;stroke-linejoin: miter;fill: #00BFC4;fill-opacity: 0.10;"/>
<g><text x="1051.36" y="259.79" style="font-family: Arial;font-size: 8.80px;" textLength="124.68px" lengthAdjust="spacingAndGlyphs">Daily/Weekly, Hardcode Hazard</text></g>
<g><text x="1051.36" y="277.07" style="font-family: Arial;font-size: 8.80px;" textLength="60.13px" lengthAdjust="spacingAndGlyphs">Weekly/Weekly</text></g>
</g>
</svg>